{
.appVersion = "113";
date = "2020-11-29 16:49:33 +0000";
designer = "Cruzine Design";
familyName = "Blue Dream";
featurePrefixes = (
{
automatic = 1;
code = "languagesystem DFLT dflt;\012languagesystem latn dflt;\012languagesystem latn ROM;\012languagesystem latn MOL;\012";
name = Languagesystems;
}
);
features = (
{
automatic = 1;
code = "feature locl;\012";
name = aalt;
},
{
automatic = 1;
code = "script latn;\012language ROM;\012sub Scedilla by Scommaaccent;\012sub scedilla by scommaaccent;\012sub Tcedilla by Tcommaaccent;\012sub tcedilla by tcommaaccent;\012language MOL;\012sub Scedilla by Scommaaccent;\012sub scedilla by scommaaccent;\012sub Tcedilla by Tcommaaccent;\012sub tcedilla by tcommaaccent;\012";
name = locl;
}
);
fontMaster = (
{
ascender = 800;
capHeight = 700;
descender = -200;
id = "BC2BDE5E-3D40-4D25-8676-E4E66850FFEB";
weightValue = 0;
widthValue = 0;
xHeight = 500;
}
);
glyphs = (
{
glyphname = A;
lastChange = "2020-11-29 17:02:49 +0000";
layers = (
{
layerId = "BC2BDE5E-3D40-4D25-8676-E4E66850FFEB";
paths = (
{
closed = 1;
nodes = (
"305 15 OFFCURVE",
"309 15 OFFCURVE",
"315 15 CURVE",
"313 21 OFFCURVE",
"311 25 OFFCURVE",
"311 30 CURVE",
"311 37 OFFCURVE",
"313 45 OFFCURVE",
"313 52 CURVE",
"313 58 OFFCURVE",
"311 64 OFFCURVE",
"310 70 CURVE",
"309 77 OFFCURVE",
"308 85 OFFCURVE",
"308 92 CURVE",
"308 97 OFFCURVE",
"310 102 OFFCURVE",
"311 109 CURVE",
"307 114 OFFCURVE",
"306 123 OFFCURVE",
"309 132 CURVE",
"309 133 OFFCURVE",
"310 134 OFFCURVE",
"310 135 CURVE",
"309 145 OFFCURVE",
"308 156 OFFCURVE",
"306 167 CURVE",
"306 170 OFFCURVE",
"305 174 OFFCURVE",
"305 177 CURVE",
"305 180 OFFCURVE",
"306 184 OFFCURVE",
"307 188 CURVE",
"304 189 OFFCURVE",
"300 192 OFFCURVE",
"306 197 CURVE",
"306 198 OFFCURVE",
"306 200 OFFCURVE",
"306 201 CURVE",
"303 212 OFFCURVE",
"303 222 OFFCURVE",
"306 234 CURVE",
"308 244 OFFCURVE",
"305 256 OFFCURVE",
"303 267 CURVE",
"301 275 OFFCURVE",
"301 280 OFFCURVE",
"306 285 CURVE",
"279 292 OFFCURVE",
"251 292 OFFCURVE",
"224 290 CURVE",
"206 289 OFFCURVE",
"188 284 OFFCURVE",
"171 279 CURVE",
"156 274 OFFCURVE",
"140 272 OFFCURVE",
"124 273 CURVE",
"122 273 OFFCURVE",
"121 274 OFFCURVE",
"120 276 CURVE",
"114 262 OFFCURVE",
"109 249 OFFCURVE",
"104 236 CURVE",
"98 218 OFFCURVE",
"92 199 OFFCURVE",
"86 181 CURVE",
"84 176 OFFCURVE",
"84 171 OFFCURVE",
"82 166 CURVE",
"80 162 OFFCURVE",
"75 160 OFFCURVE",
"73 156 CURVE",
"71 151 OFFCURVE",
"69 145 OFFCURVE",
"68 139 CURVE",
"65 128 OFFCURVE",
"62 117 OFFCURVE",
"60 106 CURVE",
"59 100 OFFCURVE",
"58 93 OFFCURVE",
"56 87 CURVE",
"56 84 OFFCURVE",
"53 82 OFFCURVE",
"51 81 CURVE",
"45 78 OFFCURVE",
"38 76 OFFCURVE",
"32 74 CURVE",
"25 71 OFFCURVE",
"19 75 OFFCURVE",
"12 78 CURVE",
"5 81 OFFCURVE",
"0 85 OFFCURVE",
"-6 90 CURVE",
"-17 98 OFFCURVE",
"-18 101 OFFCURVE",
"-11 113 CURVE",
"-4 124 OFFCURVE",
"0 137 OFFCURVE",
"6 148 CURVE",
"9 155 OFFCURVE",
"15 162 OFFCURVE",
"17 170 CURVE",
"21 187 OFFCURVE",
"35 202 OFFCURVE",
"35 221 CURVE",
"35 223 OFFCURVE",
"37 225 OFFCURVE",
"38 226 CURVE",
"39 228 OFFCURVE",
"41 229 OFFCURVE",
"41 230 CURVE",
"40 247 OFFCURVE",
"60 255 OFFCURVE",
"57 272 CURVE",
"57 273 OFFCURVE",
"58 276 OFFCURVE",
"60 276 CURVE",
"67 278 OFFCURVE",
"63 282 OFFCURVE",
"62 285 CURVE",
"65 290 OFFCURVE",
"69 295 OFFCURVE",
"73 300 CURVE",
"70 306 OFFCURVE",
"74 328 OFFCURVE",
"80 334 CURVE",
"83 338 OFFCURVE",
"84 342 OFFCURVE",
"86 347 CURVE",
"88 354 OFFCURVE",
"91 361 OFFCURVE",
"93 368 CURVE",
"94 370 OFFCURVE",
"93 373 OFFCURVE",
"93 376 CURVE",
"97 378 OFFCURVE",
"98 381 OFFCURVE",
"97 392 CURVE",
"99 391 OFFCURVE",
"100 390 OFFCURVE",
"103 388 CURVE",
"100 401 OFFCURVE",
"101 412 OFFCURVE",
"113 421 CURVE",
"110 425 OFFCURVE",
"113 429 OFFCURVE",
"116 435 CURVE",
"118 441 OFFCURVE",
"118 447 OFFCURVE",
"119 454 CURVE",
"121 453 OFFCURVE",
"122 452 OFFCURVE",
"122 452 CURVE",
"123 461 OFFCURVE",
"124 470 OFFCURVE",
"125 479 CURVE",
"128 478 OFFCURVE",
"130 478 OFFCURVE",
"132 478 CURVE",
"133 485 OFFCURVE",
"133 493 OFFCURVE",
"133 500 CURVE",
"134 500 OFFCURVE",
"135 500 OFFCURVE",
"135 500 CURVE",
"136 499 OFFCURVE",
"137 497 OFFCURVE",
"138 495 CURVE",
"138 495 OFFCURVE",
"139 495 OFFCURVE",
"139 495 CURVE",
"139 500 OFFCURVE",
"142 505 OFFCURVE",
"141 510 CURVE",
"140 517 OFFCURVE",
"143 525 OFFCURVE",
"147 526 CURVE",
"149 531 OFFCURVE",
"151 535 OFFCURVE",
"153 540 CURVE",
"150 548 OFFCURVE",
"152 556 OFFCURVE",
"162 560 CURVE",
"153 568 OFFCURVE",
"162 574 OFFCURVE",
"164 580 CURVE",
"164 576 OFFCURVE",
"165 572 OFFCURVE",
"165 567 CURVE",
"166 567 OFFCURVE",
"168 567 OFFCURVE",
"169 567 CURVE",
"169 573 OFFCURVE",
"170 580 OFFCURVE",
"167 583 CURVE",
"163 590 OFFCURVE",
"167 591 OFFCURVE",
"171 593 CURVE",
"168 604 OFFCURVE",
"174 616 OFFCURVE",
"181 618 CURVE",
"180 632 OFFCURVE",
"194 640 OFFCURVE",
"195 654 CURVE",
"197 653 OFFCURVE",
"198 652 OFFCURVE",
"200 652 CURVE",
"191 661 OFFCURVE",
"205 666 OFFCURVE",
"206 675 CURVE",
"202 674 OFFCURVE",
"201 673 OFFCURVE",
"198 672 CURVE",
"202 684 OFFCURVE",
"206 695 OFFCURVE",
"210 706 CURVE",
"212 704 OFFCURVE",
"213 704 OFFCURVE",
"216 701 CURVE",
"209 713 OFFCURVE",
"217 719 OFFCURVE",
"220 726 CURVE",
"221 732 OFFCURVE",
"223 738 OFFCURVE",
"224 746 CURVE",
"226 744 OFFCURVE",
"228 742 OFFCURVE",
"229 740 CURVE",
"230 742 OFFCURVE",
"230 743 OFFCURVE",
"230 743 CURVE",
"226 749 OFFCURVE",
"227 754 OFFCURVE",
"230 761 CURVE",
"236 774 OFFCURVE",
"241 788 OFFCURVE",
"245 801 CURVE",
"250 815 OFFCURVE",
"255 830 OFFCURVE",
"259 844 CURVE",
"260 846 OFFCURVE",
"259 850 OFFCURVE",
"258 853 CURVE",
"253 864 OFFCURVE",
"259 874 OFFCURVE",
"271 875 CURVE",
"277 875 OFFCURVE",
"282 877 OFFCURVE",
"288 877 CURVE",
"291 877 OFFCURVE",
"295 876 OFFCURVE",
"297 874 CURVE",
"305 870 OFFCURVE",
"316 874 OFFCURVE",
"321 865 CURVE",
"325 859 OFFCURVE",
"329 854 OFFCURVE",
"327 845 CURVE",
"323 829 OFFCURVE",
"323 811 OFFCURVE",
"326 795 CURVE",
"328 783 OFFCURVE",
"322 772 OFFCURVE",
"325 760 CURVE",
"326 756 OFFCURVE",
"325 752 OFFCURVE",
"325 748 CURVE",
"326 737 OFFCURVE",
"328 726 OFFCURVE",
"329 716 CURVE",
"329 703 OFFCURVE",
"329 690 OFFCURVE",
"329 677 CURVE",
"329 664 OFFCURVE",
"333 651 OFFCURVE",
"335 638 CURVE",
"336 636 OFFCURVE",
"336 634 OFFCURVE",
"336 632 CURVE",
"337 614 OFFCURVE",
"338 597 OFFCURVE",
"339 579 CURVE",
"340 572 OFFCURVE",
"339 565 OFFCURVE",
"340 558 CURVE",
"341 535 OFFCURVE",
"342 511 OFFCURVE",
"343 487 CURVE",
"344 478 OFFCURVE",
"346 469 OFFCURVE",
"347 459 CURVE",
"347 455 OFFCURVE",
"345 450 OFFCURVE",
"344 444 CURVE",
"355 434 OFFCURVE",
"348 420 OFFCURVE",
"350 407 CURVE",
"350 403 OFFCURVE",
"349 397 OFFCURVE",
"351 393 CURVE",
"356 384 OFFCURVE",
"355 375 OFFCURVE",
"351 367 CURVE",
"352 362 OFFCURVE",
"354 358 OFFCURVE",
"354 354 CURVE",
"355 342 OFFCURVE",
"359 330 OFFCURVE",
"356 318 CURVE",
"353 303 OFFCURVE",
"360 290 OFFCURVE",
"358 275 CURVE",
"356 261 OFFCURVE",
"358 246 OFFCURVE",
"359 231 CURVE",
"359 220 OFFCURVE",
"360 210 OFFCURVE",
"358 199 CURVE",
"357 189 OFFCURVE",
"360 179 OFFCURVE",
"361 169 CURVE",
"362 162 OFFCURVE",
"363 155 OFFCURVE",
"362 148 CURVE",
"361 141 OFFCURVE",
"365 134 OFFCURVE",
"365 127 CURVE",
"365 118 OFFCURVE",
"363 108 OFFCURVE",
"365 98 CURVE",
"366 89 OFFCURVE",
"364 79 OFFCURVE",
"365 69 CURVE",
"367 52 OFFCURVE",
"369 35 OFFCURVE",
"371 18 CURVE",
"372 11 OFFCURVE",
"371 4 OFFCURVE",
"372 -2 CURVE",
"374 -17 OFFCURVE",
"377 -31 OFFCURVE",
"379 -46 CURVE",
"381 -57 OFFCURVE",
"383 -69 OFFCURVE",
"387 -80 CURVE",
"390 -87 OFFCURVE",
"392 -93 OFFCURVE",
"385 -98 CURVE",
"380 -101 OFFCURVE",
"375 -107 OFFCURVE",
"368 -103 CURVE",
"367 -103 OFFCURVE",
"365 -103 OFFCURVE",
"365 -104 CURVE",
"356 -109 OFFCURVE",
"350 -103 OFFCURVE",
"343 -100 CURVE",
"331 -93 OFFCURVE",
"327 -83 OFFCURVE",
"324 -69 CURVE",
"321 -47 OFFCURVE",
"313 -25 OFFCURVE",
"303 -5 CURVE",
"300 1 OFFCURVE",
"301 9 OFFCURVE",
"299 15 CURVE"
);
},
{
closed = 1;
nodes = (
"131 320 OFFCURVE",
"133 319 OFFCURVE",
"134 320 CURVE",
"142 322 OFFCURVE",
"151 325 OFFCURVE",
"159 326 CURVE",
"179 329 OFFCURVE",
"198 332 OFFCURVE",
"218 334 CURVE",
"241 336 OFFCURVE",
"265 337 OFFCURVE",
"288 338 CURVE",
"292 338 OFFCURVE",
"295 337 OFFCURVE",
"298 338 CURVE",
"300 339 OFFCURVE",
"303 343 OFFCURVE",
"302 343 CURVE",
"295 352 OFFCURVE",
"309 364 OFFCURVE",
"297 372 CURVE",
"297 372 OFFCURVE",
"298 373 OFFCURVE",
"298 374 CURVE",
"304 384 OFFCURVE",
"300 395 OFFCURVE",
"299 406 CURVE",
"298 407 OFFCURVE",
"297 408 OFFCURVE",
"297 409 CURVE",
"296 416 OFFCURVE",
"294 422 OFFCURVE",
"294 428 CURVE",
"293 439 OFFCURVE",
"292 450 OFFCURVE",
"294 460 CURVE",
"295 465 OFFCURVE",
"294 467 OFFCURVE",
"292 471 CURVE",
"291 475 OFFCURVE",
"289 483 OFFCURVE",
"291 486 CURVE",
"298 492 OFFCURVE",
"297 498 OFFCURVE",
"293 505 CURVE",
"291 508 OFFCURVE",
"289 512 OFFCURVE",
"289 515 CURVE",
"287 534 OFFCURVE",
"286 553 OFFCURVE",
"285 571 CURVE",
"285 574 OFFCURVE",
"286 578 OFFCURVE",
"287 581 CURVE",
"289 587 OFFCURVE",
"291 593 OFFCURVE",
"282 597 CURVE",
"285 598 OFFCURVE",
"286 599 OFFCURVE",
"289 600 CURVE",
"285 603 OFFCURVE",
"276 604 OFFCURVE",
"284 610 CURVE",
"285 611 OFFCURVE",
"285 612 OFFCURVE",
"284 613 CURVE",
"280 622 OFFCURVE",
"278 631 OFFCURVE",
"281 641 CURVE",
"282 643 OFFCURVE",
"281 646 OFFCURVE",
"280 648 CURVE",
"275 662 OFFCURVE",
"279 675 OFFCURVE",
"280 690 CURVE",
"279 690 OFFCURVE",
"277 690 OFFCURVE",
"274 690 CURVE",
"274 697 OFFCURVE",
"274 704 OFFCURVE",
"274 711 CURVE",
"267 699 OFFCURVE",
"261 687 OFFCURVE",
"256 676 CURVE",
"251 664 OFFCURVE",
"246 653 OFFCURVE",
"242 642 CURVE",
"235 624 OFFCURVE",
"228 606 OFFCURVE",
"222 588 CURVE",
"218 577 OFFCURVE",
"214 567 OFFCURVE",
"210 556 CURVE",
"207 545 OFFCURVE",
"204 534 OFFCURVE",
"200 523 CURVE",
"196 512 OFFCURVE",
"190 501 OFFCURVE",
"186 490 CURVE",
"184 487 OFFCURVE",
"186 482 OFFCURVE",
"184 479 CURVE",
"180 466 OFFCURVE",
"172 453 OFFCURVE",
"170 439 CURVE",
"167 422 OFFCURVE",
"159 408 OFFCURVE",
"154 392 CURVE",
"153 386 OFFCURVE",
"149 380 OFFCURVE",
"147 374 CURVE",
"144 364 OFFCURVE",
"141 353 OFFCURVE",
"138 342 CURVE",
"135 335 OFFCURVE",
"132 328 OFFCURVE",
"128 320 CURVE"
);
},
{
closed = 1;
nodes = (
"334 274 OFFCURVE",
"334 269 OFFCURVE",
"343 262 CURVE",
"343 269 OFFCURVE",
"343 275 OFFCURVE",
"343 282 CURVE"
);
},
{
closed = 1;
nodes = (
"338 318 OFFCURVE",
"336 318 OFFCURVE",
"335 317 CURVE",
"337 312 OFFCURVE",
"338 307 OFFCURVE",
"340 302 CURVE",
"341 303 OFFCURVE",
"343 303 OFFCURVE",
"344 304 CURVE",
"342 308 OFFCURVE",
"341 313 OFFCURVE",
"339 318 CURVE"
);
}
);
width = 400;
}
);
unicode = 0041;
},
{
glyphname = B;
lastChange = "2020-11-29 17:02:56 +0000";
layers = (
{
layerId = "BC2BDE5E-3D40-4D25-8676-E4E66850FFEB";
paths = (
{
closed = 1;
nodes = (
"130 459 OFFCURVE",
"142 459 OFFCURVE",
"153 456 CURVE",
"163 452 OFFCURVE",
"174 453 OFFCURVE",
"184 447 CURVE",
"193 442 OFFCURVE",
"202 439 OFFCURVE",
"209 431 CURVE",
"218 421 OFFCURVE",
"223 410 OFFCURVE",
"226 397 CURVE",
"227 389 OFFCURVE",
"228 381 OFFCURVE",
"230 373 CURVE",
"232 357 OFFCURVE",
"226 343 OFFCURVE",
"217 331 CURVE",
"208 317 OFFCURVE",
"198 304 OFFCURVE",
"186 292 CURVE",
"176 282 OFFCURVE",
"168 271 OFFCURVE",
"159 261 CURVE",
"155 255 OFFCURVE",
"149 251 OFFCURVE",
"145 246 CURVE",
"134 233 OFFCURVE",
"123 220 OFFCURVE",
"113 206 CURVE",
"111 204 OFFCURVE",
"111 199 OFFCURVE",
"109 195 CURVE",
"105 183 OFFCURVE",
"97 177 OFFCURVE",
"80 176 CURVE",
"82 169 OFFCURVE",
"82 159 OFFCURVE",
"86 156 CURVE",
"96 147 OFFCURVE",
"89 140 OFFCURVE",
"87 134 CURVE",
"84 124 OFFCURVE",
"77 123 OFFCURVE",
"67 126 CURVE",
"65 126 OFFCURVE",
"62 127 OFFCURVE",
"62 126 CURVE",
"56 119 OFFCURVE",
"52 124 OFFCURVE",
"48 128 CURVE",
"46 131 OFFCURVE",
"42 131 OFFCURVE",
"39 133 CURVE",
"36 137 OFFCURVE",
"32 141 OFFCURVE",
"29 144 CURVE",
"17 155 OFFCURVE",
"26 169 OFFCURVE",
"23 181 CURVE",
"20 191 OFFCURVE",
"18 202 OFFCURVE",
"17 212 CURVE",
"15 221 OFFCURVE",
"16 230 OFFCURVE",
"16 240 CURVE",
"15 251 OFFCURVE",
"16 261 OFFCURVE",
"16 272 CURVE",
"16 287 OFFCURVE",
"14 301 OFFCURVE",
"15 316 CURVE",
"16 330 OFFCURVE",
"13 344 OFFCURVE",
"12 358 CURVE",
"12 362 OFFCURVE",
"15 367 OFFCURVE",
"15 371 CURVE",
"15 380 OFFCURVE",
"13 389 OFFCURVE",
"13 398 CURVE",
"12 403 OFFCURVE",
"13 409 OFFCURVE",
"12 415 CURVE",
"11 422 OFFCURVE",
"7 430 OFFCURVE",
"6 437 CURVE",
"5 442 OFFCURVE",
"8 447 OFFCURVE",
"10 452 CURVE",
"11 454 OFFCURVE",
"12 457 OFFCURVE",
"12 459 CURVE",
"12 477 OFFCURVE",
"12 494 OFFCURVE",
"12 512 CURVE",
"11 521 OFFCURVE",
"7 531 OFFCURVE",
"9 539 CURVE",
"13 550 OFFCURVE",
"6 558 OFFCURVE",
"8 568 CURVE",
"9 578 OFFCURVE",
"10 588 OFFCURVE",
"8 598 CURVE",
"4 612 OFFCURVE",
"7 629 OFFCURVE",
"-5 642 CURVE",
"-6 644 OFFCURVE",
"-4 651 OFFCURVE",
"-3 655 CURVE",
"1 665 OFFCURVE",
"9 670 OFFCURVE",
"20 671 CURVE",
"28 671 OFFCURVE",
"35 673 OFFCURVE",
"43 673 CURVE",
"49 673 OFFCURVE",
"55 671 OFFCURVE",
"61 669 CURVE",
"65 668 OFFCURVE",
"69 667 OFFCURVE",
"73 666 CURVE",
"90 665 OFFCURVE",
"108 664 OFFCURVE",
"125 662 CURVE",
"135 661 OFFCURVE",
"145 655 OFFCURVE",
"155 656 CURVE",
"171 658 OFFCURVE",
"185 646 OFFCURVE",
"202 651 CURVE",
"207 645 OFFCURVE",
"214 644 OFFCURVE",
"221 644 CURVE",
"237 644 OFFCURVE",
"241 631 OFFCURVE",
"250 622 CURVE",
"254 619 OFFCURVE",
"251 607 OFFCURVE",
"245 600 CURVE",
"236 591 OFFCURVE",
"228 581 OFFCURVE",
"219 571 CURVE",
"209 559 OFFCURVE",
"200 545 OFFCURVE",
"189 534 CURVE",
"177 521 OFFCURVE",
"162 511 OFFCURVE",
"150 498 CURVE",
"138 487 OFFCURVE",
"129 474 OFFCURVE",
"118 461 CURVE"
);
},
{
closed = 1;
nodes = (
"82 262 OFFCURVE",
"89 269 OFFCURVE",
"95 276 CURVE",
"100 282 OFFCURVE",
"103 291 OFFCURVE",
"109 296 CURVE",
"127 314 OFFCURVE",
"142 334 OFFCURVE",
"155 355 CURVE",
"163 367 OFFCURVE",
"173 378 OFFCURVE",
"164 393 CURVE",
"160 400 OFFCURVE",
"156 408 OFFCURVE",
"150 412 CURVE",
"142 416 OFFCURVE",
"132 416 OFFCURVE",
"123 416 CURVE",
"110 415 OFFCURVE",
"97 412 OFFCURVE",
"85 409 CURVE",
"70 406 OFFCURVE",
"70 406 OFFCURVE",
"70 391 CURVE",
"70 388 OFFCURVE",
"70 385 OFFCURVE",
"70 382 CURVE",
"71 375 OFFCURVE",
"73 368 OFFCURVE",
"73 361 CURVE",
"73 353 OFFCURVE",
"71 345 OFFCURVE",
"71 337 CURVE",
"71 328 OFFCURVE",
"73 319 OFFCURVE",
"73 310 CURVE",
"74 292 OFFCURVE",
"74 273 OFFCURVE",
"74 253 CURVE"
);
},
{
closed = 1;
nodes = (
"80 508 OFFCURVE",
"88 518 OFFCURVE",
"97 528 CURVE SMOOTH",
"107 538 OFFCURVE",
"118 546 OFFCURVE",
"127 556 CURVE SMOOTH",
"141 571 OFFCURVE",
"154 586 OFFCURVE",
"167 602 CURVE SMOOTH",
"169 604 OFFCURVE",
"172 608 OFFCURVE",
"171 609 CURVE SMOOTH",
"169 612 OFFCURVE",
"165 614 OFFCURVE",
"162 615 CURVE SMOOTH",
"160 616 OFFCURVE",
"157 615 OFFCURVE",
"154 616 CURVE SMOOTH",
"143 617 OFFCURVE",
"132 618 OFFCURVE",
"122 619 CURVE SMOOTH",
"103 619 OFFCURVE",
"85 619 OFFCURVE",
"65 619 CURVE",
"67 579 OFFCURVE",
"68 539 OFFCURVE",
"70 496 CURVE"
);
}
);
width = 300;
}
);
unicode = 0042;
},
{
glyphname = C;
lastChange = "2020-11-29 17:03:00 +0000";
layers = (
{
layerId = "BC2BDE5E-3D40-4D25-8676-E4E66850FFEB";
paths = (
{
closed = 1;
nodes = (
"215 456 OFFCURVE",
"217 454 OFFCURVE",
"220 452 CURVE",
"228 455 OFFCURVE",
"242 451 OFFCURVE",
"247 443 CURVE SMOOTH",
"255 433 OFFCURVE",
"255 424 OFFCURVE",
"251 411 CURVE SMOOTH",
"242 383 OFFCURVE",
"224 362 OFFCURVE",
"207 340 CURVE SMOOTH",
"202 333 OFFCURVE",
"196 326 OFFCURVE",
"190 320 CURVE SMOOTH",
"179 309 OFFCURVE",
"168 297 OFFCURVE",
"155 289 CURVE SMOOTH",
"143 281 OFFCURVE",
"128 277 OFFCURVE",
"114 271 CURVE SMOOTH",
"112 269 OFFCURVE",
"110 267 OFFCURVE",
"109 267 CURVE",
"102 267 OFFCURVE",
"97 267 OFFCURVE",
"91 267 CURVE",
"85 272 OFFCURVE",
"78 274 OFFCURVE",
"68 270 CURVE SMOOTH",
"65 269 OFFCURVE",
"59 273 OFFCURVE",
"55 275 CURVE SMOOTH",
"36 287 OFFCURVE",
"19 301 OFFCURVE",
"8 320 CURVE SMOOTH",
"3 331 OFFCURVE",
"0 343 OFFCURVE",
"-4 355 CURVE SMOOTH",
"-12 379 OFFCURVE",
"-7 403 OFFCURVE",
"-7 427 CURVE SMOOTH",
"-7 440 OFFCURVE",
"-3 452 OFFCURVE",
"-1 464 CURVE SMOOTH",
"2 479 OFFCURVE",
"4 495 OFFCURVE",
"7 510 CURVE SMOOTH",
"9 520 OFFCURVE",
"13 529 OFFCURVE",
"16 539 CURVE SMOOTH",
"22 554 OFFCURVE",
"27 570 OFFCURVE",
"33 584 CURVE SMOOTH",
"37 593 OFFCURVE",
"43 601 OFFCURVE",
"48 609 CURVE SMOOTH",
"57 621 OFFCURVE",
"66 633 OFFCURVE",
"76 644 CURVE SMOOTH",
"93 662 OFFCURVE",
"114 671 OFFCURVE",
"139 668 CURVE SMOOTH",
"147 667 OFFCURVE",
"157 669 OFFCURVE",
"165 667 CURVE SMOOTH",
"176 664 OFFCURVE",
"187 658 OFFCURVE",
"198 653 CURVE SMOOTH",
"200 652 OFFCURVE",
"202 648 OFFCURVE",
"202 645 CURVE SMOOTH",
"206 630 OFFCURVE",
"209 616 OFFCURVE",
"212 601 CURVE",
"189 595 OFFCURVE",
"171 598 OFFCURVE",
"158 617 CURVE SMOOTH",
"153 625 OFFCURVE",
"146 625 OFFCURVE",
"140 621 CURVE SMOOTH",
"131 613 OFFCURVE",
"123 605 OFFCURVE",
"115 597 CURVE SMOOTH",
"111 593 OFFCURVE",
"107 589 OFFCURVE",
"103 584 CURVE SMOOTH",
"90 570 OFFCURVE",
"79 554 OFFCURVE",
"76 534 CURVE SMOOTH",
"74 528 OFFCURVE",
"71 522 OFFCURVE",
"69 516 CURVE SMOOTH",
"66 509 OFFCURVE",
"63 502 OFFCURVE",
"62 495 CURVE SMOOTH",
"59 482 OFFCURVE",
"57 468 OFFCURVE",
"54 455 CURVE SMOOTH",
"52 446 OFFCURVE",
"48 437 OFFCURVE",
"48 428 CURVE SMOOTH",
"47 403 OFFCURVE",
"47 378 OFFCURVE",
"48 353 CURVE SMOOTH",
"48 346 OFFCURVE",
"56 339 OFFCURVE",
"57 332 CURVE SMOOTH",
"58 323 OFFCURVE",
"64 319 OFFCURVE",
"69 314 CURVE SMOOTH",
"75 306 OFFCURVE",
"84 307 OFFCURVE",
"90 310 CURVE SMOOTH",
"104 316 OFFCURVE",
"119 321 OFFCURVE",
"131 333 CURVE SMOOTH",
"141 343 OFFCURVE",
"152 351 OFFCURVE",
"162 360 CURVE SMOOTH",
"164 362 OFFCURVE",
"165 365 OFFCURVE",
"167 367 CURVE SMOOTH",
"170 371 OFFCURVE",
"172 375 OFFCURVE",
"176 378 CURVE SMOOTH",
"183 383 OFFCURVE",
"189 388 OFFCURVE",
"189 398 CURVE SMOOTH",
"189 400 OFFCURVE",
"190 404 OFFCURVE",
"192 405 CURVE SMOOTH",
"203 410 OFFCURVE",
"203 422 OFFCURVE",
"206 431 CURVE SMOOTH",
"210 439 OFFCURVE",
"210 448 OFFCURVE",
"212 459 CURVE"
);
}
);
width = 300;
}
);
unicode = 0043;
},
{
glyphname = D;
lastChange = "2020-11-29 17:03:08 +0000";
layers = (
{
layerId = "BC2BDE5E-3D40-4D25-8676-E4E66850FFEB";
paths = (
{
closed = 1;
nodes = (
"46 899 OFFCURVE",
"59 893 OFFCURVE",
"69 882 CURVE",
"73 877 OFFCURVE",
"74 869 OFFCURVE",
"74 863 CURVE",
"73 850 OFFCURVE",
"71 837 OFFCURVE",
"69 824 CURVE",
"67 813 OFFCURVE",
"70 806 OFFCURVE",
"80 801 CURVE",
"103 787 OFFCURVE",
"127 774 OFFCURVE",
"150 760 CURVE",
"199 731 OFFCURVE",
"241 694 OFFCURVE",
"269 643 CURVE",
"294 598 OFFCURVE",
"301 549 OFFCURVE",
"300 499 CURVE",
"296 352 OFFCURVE",
"255 214 OFFCURVE",
"194 82 CURVE",
"168 26 OFFCURVE",
"138 -27 OFFCURVE",
"105 -79 CURVE",
"92 -98 OFFCURVE",
"68 -100 OFFCURVE",
"52 -84 CURVE",
"43 -73 OFFCURVE",
"39 -62 OFFCURVE",
"39 -48 CURVE",
"40 -29 OFFCURVE",
"37 -11 OFFCURVE",
"34 7 CURVE",
"28 57 OFFCURVE",
"22 106 OFFCURVE",
"15 155 CURVE",
"14 167 OFFCURVE",
"11 179 OFFCURVE",
"10 190 CURVE",
"10 200 OFFCURVE",
"13 210 OFFCURVE",
"6 219 CURVE",
"5 221 OFFCURVE",
"5 225 OFFCURVE",
"6 228 CURVE",
"11 239 OFFCURVE",
"9 251 OFFCURVE",
"8 262 CURVE",
"7 271 OFFCURVE",
"8 280 OFFCURVE",
"8 289 CURVE",
"8 293 OFFCURVE",
"8 298 OFFCURVE",
"6 301 CURVE",
"1 311 OFFCURVE",
"3 320 OFFCURVE",
"3 330 CURVE",
"4 363 OFFCURVE",
"3 395 OFFCURVE",
"4 428 CURVE",
"4 444 OFFCURVE",
"6 460 OFFCURVE",
"7 477 CURVE",
"7 479 OFFCURVE",
"8 481 OFFCURVE",
"7 483 CURVE",
"-2 498 OFFCURVE",
"6 514 OFFCURVE",
"6 530 CURVE",
"5 609 OFFCURVE",
"5 688 OFFCURVE",
"4 768 CURVE",
"3 793 OFFCURVE",
"0 818 OFFCURVE",
"5 843 CURVE",
"7 850 OFFCURVE",
"5 858 OFFCURVE",
"4 866 CURVE",
"-1 891 OFFCURVE",
"5 899 OFFCURVE",
"34 899 CURVE"
);
},
{
closed = 1;
nodes = (
"64 754 OFFCURVE",
"64 753 OFFCURVE",
"64 752 CURVE SMOOTH",
"63 653 OFFCURVE",
"61 554 OFFCURVE",
"60 455 CURVE SMOOTH",
"60 379 OFFCURVE",
"62 303 OFFCURVE",
"64 228 CURVE SMOOTH",
"65 175 OFFCURVE",
"68 123 OFFCURVE",
"77 71 CURVE SMOOTH",
"80 55 OFFCURVE",
"83 39 OFFCURVE",
"87 21 CURVE",
"90 23 OFFCURVE",
"91 24 OFFCURVE",
"92 25 CURVE SMOOTH",
"105 45 OFFCURVE",
"121 63 OFFCURVE",
"130 85 CURVE SMOOTH",
"157 149 OFFCURVE",
"184 213 OFFCURVE",
"205 279 CURVE SMOOTH",
"224 343 OFFCURVE",
"238 410 OFFCURVE",
"241 477 CURVE SMOOTH",
"243 505 OFFCURVE",
"244 533 OFFCURVE",
"241 560 CURVE SMOOTH",
"236 608 OFFCURVE",
"217 649 OFFCURVE",
"181 682 CURVE SMOOTH",
"150 710 OFFCURVE",
"114 733 OFFCURVE",
"76 752 CURVE SMOOTH",
"73 754 OFFCURVE",
"69 755 OFFCURVE",
"65 756 CURVE"
);
}
);
width = 350;
}
);
unicode = 0044;
},
{
glyphname = E;
lastChange = "2020-11-29 17:03:14 +0000";
layers = (
{
layerId = "BC2BDE5E-3D40-4D25-8676-E4E66850FFEB";
paths = (
{
closed = 1;
nodes = (
"77 209 OFFCURVE",
"97 224 OFFCURVE",
"121 228 CURVE SMOOTH",
"136 230 OFFCURVE",
"151 232 OFFCURVE",
"165 235 CURVE SMOOTH",
"180 239 OFFCURVE",
"192 233 OFFCURVE",
"205 231 CURVE SMOOTH",
"210 230 OFFCURVE",
"215 221 OFFCURVE",
"218 215 CURVE SMOOTH",
"221 209 OFFCURVE",
"222 201 OFFCURVE",
"222 194 CURVE SMOOTH",
"223 188 OFFCURVE",
"219 184 OFFCURVE",
"212 185 CURVE SMOOTH",
"202 185 OFFCURVE",
"191 183 OFFCURVE",
"181 191 CURVE SMOOTH",
"180 192 OFFCURVE",
"178 191 OFFCURVE",
"176 191 CURVE SMOOTH",
"175 190 OFFCURVE",
"174 188 OFFCURVE",
"173 188 CURVE SMOOTH",
"161 190 OFFCURVE",
"150 185 OFFCURVE",
"139 182 CURVE SMOOTH",
"136 181 OFFCURVE",
"134 180 OFFCURVE",
"132 179 CURVE SMOOTH",
"124 173 OFFCURVE",
"117 166 OFFCURVE",
"109 160 CURVE SMOOTH",
"108 159 OFFCURVE",
"106 159 OFFCURVE",
"105 159 CURVE SMOOTH",
"98 160 OFFCURVE",
"95 157 OFFCURVE",
"91 153 CURVE SMOOTH",
"83 142 OFFCURVE",
"75 132 OFFCURVE",
"66 122 CURVE SMOOTH",
"63 119 OFFCURVE",
"60 116 OFFCURVE",
"54 118 CURVE SMOOTH",
"44 122 OFFCURVE",
"33 123 OFFCURVE",
"23 127 CURVE SMOOTH",
"16 129 OFFCURVE",
"7 133 OFFCURVE",
"8 144 CURVE SMOOTH",
"8 145 OFFCURVE",
"8 146 OFFCURVE",
"8 147 CURVE SMOOTH",
"0 152 OFFCURVE",
"2 160 OFFCURVE",
"1 167 CURVE SMOOTH",
"-5 207 OFFCURVE",
"-3 247 OFFCURVE",
"-2 286 CURVE SMOOTH",
"-2 305 OFFCURVE",
"3 324 OFFCURVE",
"4 344 CURVE SMOOTH",
"5 352 OFFCURVE",
"4 362 OFFCURVE",
"5 371 CURVE SMOOTH",
"5 376 OFFCURVE",
"7 382 OFFCURVE",
"8 388 CURVE SMOOTH",
"10 400 OFFCURVE",
"11 412 OFFCURVE",
"11 423 CURVE SMOOTH",
"11 429 OFFCURVE",
"10 436 OFFCURVE",
"7 441 CURVE SMOOTH",
"3 446 OFFCURVE",
"5 449 OFFCURVE",
"9 452 CURVE SMOOTH",
"15 456 OFFCURVE",
"15 462 OFFCURVE",
"16 469 CURVE SMOOTH",
"17 482 OFFCURVE",
"20 496 OFFCURVE",
"22 509 CURVE SMOOTH",
"23 512 OFFCURVE",
"21 515 OFFCURVE",
"22 517 CURVE",
"22 521 OFFCURVE",
"22 525 OFFCURVE",
"23 529 CURVE SMOOTH",
"24 541 OFFCURVE",
"25 553 OFFCURVE",
"26 565 CURVE SMOOTH",
"26 569 OFFCURVE",
"26 574 OFFCURVE",
"27 578 CURVE SMOOTH",
"27 581 OFFCURVE",
"29 583 OFFCURVE",
"30 586 CURVE",
"27 591 OFFCURVE",
"26 596 OFFCURVE",
"29 604 CURVE SMOOTH",
"32 613 OFFCURVE",
"30 623 OFFCURVE",
"30 633 CURVE SMOOTH",
"31 648 OFFCURVE",
"33 663 OFFCURVE",
"34 679 CURVE SMOOTH",
"34 689 OFFCURVE",
"34 700 OFFCURVE",
"34 710 CURVE SMOOTH",
"35 735 OFFCURVE",
"37 759 OFFCURVE",
"37 784 CURVE SMOOTH",
"36 794 OFFCURVE",
"31 805 OFFCURVE",
"28 816 CURVE SMOOTH",
"27 819 OFFCURVE",
"27 822 OFFCURVE",
"26 825 CURVE",
"39 832 OFFCURVE",
"52 831 OFFCURVE",
"66 827 CURVE SMOOTH",
"73 826 OFFCURVE",
"80 825 OFFCURVE",
"86 820 CURVE SMOOTH",
"91 814 OFFCURVE",
"96 808 OFFCURVE",
"95 800 CURVE SMOOTH",
"95 792 OFFCURVE",
"93 783 OFFCURVE",
"93 774 CURVE SMOOTH",
"92 767 OFFCURVE",
"94 760 OFFCURVE",
"94 752 CURVE SMOOTH",
"94 747 OFFCURVE",
"92 741 OFFCURVE",
"92 736 CURVE SMOOTH",
"93 724 OFFCURVE",
"91 712 OFFCURVE",
"92 699 CURVE SMOOTH",
"92 693 OFFCURVE",
"91 686 OFFCURVE",
"90 679 CURVE",
"92 679 OFFCURVE",
"96 678 OFFCURVE",
"98 679 CURVE SMOOTH",
"109 683 OFFCURVE",
"119 689 OFFCURVE",
"131 694 CURVE SMOOTH",
"146 700 OFFCURVE",
"162 705 OFFCURVE",
"178 711 CURVE SMOOTH",
"184 713 OFFCURVE",
"190 718 OFFCURVE",
"197 720 CURVE SMOOTH",
"211 723 OFFCURVE",
"223 730 OFFCURVE",
"239 726 CURVE SMOOTH",
"252 724 OFFCURVE",
"262 719 OFFCURVE",
"273 713 CURVE",
"272 712 OFFCURVE",
"271 712 OFFCURVE",
"270 711 CURVE",
"272 706 OFFCURVE",
"275 701 OFFCURVE",
"275 695 CURVE SMOOTH",
"276 691 OFFCURVE",
"274 685 OFFCURVE",
"271 682 CURVE SMOOTH",
"263 676 OFFCURVE",
"254 672 OFFCURVE",
"243 674 CURVE SMOOTH",
"238 674 OFFCURVE",
"233 672 OFFCURVE",
"228 670 CURVE SMOOTH",
"213 666 OFFCURVE",
"199 661 OFFCURVE",
"185 656 CURVE SMOOTH",
"173 651 OFFCURVE",
"162 646 OFFCURVE",
"150 641 CURVE SMOOTH",
"138 635 OFFCURVE",
"125 629 OFFCURVE",
"113 624 CURVE SMOOTH",
"109 623 OFFCURVE",
"103 626 OFFCURVE",
"98 626 CURVE SMOOTH",
"95 627 OFFCURVE",
"92 627 OFFCURVE",
"89 627 CURVE",
"87 615 OFFCURVE",
"86 604 OFFCURVE",
"84 593 CURVE SMOOTH",
"82 575 OFFCURVE",
"80 558 OFFCURVE",
"78 540 CURVE SMOOTH",
"77 534 OFFCURVE",
"78 528 OFFCURVE",
"77 523 CURVE SMOOTH",
"76 507 OFFCURVE",
"75 492 OFFCURVE",
"74 477 CURVE SMOOTH",
"73 474 OFFCURVE",
"74 471 OFFCURVE",
"74 467 CURVE",
"86 473 OFFCURVE",
"98 478 OFFCURVE",
"110 484 CURVE SMOOTH",
"127 493 OFFCURVE",
"145 500 OFFCURVE",
"164 503 CURVE SMOOTH",
"165 503 OFFCURVE",
"167 502 OFFCURVE",
"168 502 CURVE SMOOTH",
"175 500 OFFCURVE",
"181 498 OFFCURVE",
"188 497 CURVE SMOOTH",
"198 494 OFFCURVE",
"203 490 OFFCURVE",
"204 479 CURVE SMOOTH",
"205 475 OFFCURVE",
"207 471 OFFCURVE",
"208 467 CURVE SMOOTH",
"208 463 OFFCURVE",
"208 456 OFFCURVE",
"206 454 CURVE SMOOTH",
"200 451 OFFCURVE",
"192 447 OFFCURVE",
"186 448 CURVE SMOOTH",
"172 451 OFFCURVE",
"162 444 OFFCURVE",
"150 441 CURVE SMOOTH",
"139 437 OFFCURVE",
"127 433 OFFCURVE",
"116 427 CURVE SMOOTH",
"102 420 OFFCURVE",
"87 418 OFFCURVE",
"72 413 CURVE SMOOTH",
"70 412 OFFCURVE",
"68 407 OFFCURVE",
"66 404 CURVE SMOOTH",
"66 402 OFFCURVE",
"66 399 OFFCURVE",
"66 396 CURVE SMOOTH",
"65 380 OFFCURVE",
"66 363 OFFCURVE",
"62 348 CURVE SMOOTH",
"58 335 OFFCURVE",
"60 322 OFFCURVE",
"59 308 CURVE SMOOTH",
"58 289 OFFCURVE",
"57 269 OFFCURVE",
"55 249 CURVE SMOOTH",
"54 238 OFFCURVE",
"52 228 OFFCURVE",
"52 217 CURVE SMOOTH",
"52 210 OFFCURVE",
"54 203 OFFCURVE",
"55 195 CURVE"
);
}
);
width = 300;
}
);
unicode = 0045;
},
{
glyphname = F;
lastChange = "2020-11-29 17:03:19 +0000";
layers = (
{
layerId = "BC2BDE5E-3D40-4D25-8676-E4E66850FFEB";
paths = (
{
closed = 1;
nodes = (
"24 801 OFFCURVE",
"31 805 OFFCURVE",
"41 803 CURVE SMOOTH",
"45 802 OFFCURVE",
"49 800 OFFCURVE",
"53 798 CURVE SMOOTH",
"61 796 OFFCURVE",
"68 794 OFFCURVE",
"76 792 CURVE SMOOTH",
"77 792 OFFCURVE",
"79 791 OFFCURVE",
"79 791 CURVE SMOOTH",
"82 779 OFFCURVE",
"94 768 OFFCURVE",
"84 755 CURVE SMOOTH",
"83 752 OFFCURVE",
"84 747 OFFCURVE",
"84 743 CURVE SMOOTH",
"82 719 OFFCURVE",
"81 695 OFFCURVE",
"80 671 CURVE SMOOTH",
"79 662 OFFCURVE",
"78 653 OFFCURVE",
"76 645 CURVE SMOOTH",
"76 638 OFFCURVE",
"78 636 OFFCURVE",
"85 636 CURVE SMOOTH",
"101 637 OFFCURVE",
"117 638 OFFCURVE",
"133 640 CURVE SMOOTH",
"150 643 OFFCURVE",
"166 647 OFFCURVE",
"183 650 CURVE SMOOTH",
"183 650 OFFCURVE",
"184 651 OFFCURVE",
"184 650 CURVE SMOOTH",
"191 645 OFFCURVE",
"197 651 OFFCURVE",
"203 651 CURVE SMOOTH",
"212 650 OFFCURVE",
"220 648 OFFCURVE",
"228 647 CURVE SMOOTH",
"230 646 OFFCURVE",
"231 644 OFFCURVE",
"232 642 CURVE SMOOTH",
"236 637 OFFCURVE",
"239 631 OFFCURVE",
"242 626 CURVE SMOOTH",
"244 623 OFFCURVE",
"237 606 OFFCURVE",
"235 603 CURVE SMOOTH",
"226 591 OFFCURVE",
"212 597 OFFCURVE",
"200 596 CURVE SMOOTH",
"182 594 OFFCURVE",
"164 594 OFFCURVE",
"146 592 CURVE SMOOTH",
"135 591 OFFCURVE",
"124 590 OFFCURVE",
"112 589 CURVE SMOOTH",
"101 587 OFFCURVE",
"89 584 OFFCURVE",
"76 581 CURVE",
"71 536 OFFCURVE",
"73 490 OFFCURVE",
"73 443 CURVE",
"79 445 OFFCURVE",
"85 446 OFFCURVE",
"90 448 CURVE SMOOTH",
"115 455 OFFCURVE",
"139 461 OFFCURVE",
"163 470 CURVE SMOOTH",
"183 476 OFFCURVE",
"199 469 OFFCURVE",
"216 461 CURVE SMOOTH",
"218 460 OFFCURVE",
"219 455 OFFCURVE",
"221 451 CURVE SMOOTH",
"227 437 OFFCURVE",
"227 432 OFFCURVE",
"215 422 CURVE SMOOTH",
"213 420 OFFCURVE",
"210 419 OFFCURVE",
"207 419 CURVE SMOOTH",
"198 418 OFFCURVE",
"189 419 OFFCURVE",
"180 418 CURVE SMOOTH",
"170 416 OFFCURVE",
"160 413 OFFCURVE",
"150 410 CURVE SMOOTH",
"141 407 OFFCURVE",
"133 403 OFFCURVE",
"124 400 CURVE SMOOTH",
"116 398 OFFCURVE",
"109 394 OFFCURVE",
"101 393 CURVE SMOOTH",
"92 391 OFFCURVE",
"83 391 OFFCURVE",
"74 391 CURVE SMOOTH",
"73 391 OFFCURVE",
"72 391 OFFCURVE",
"69 390 CURVE",
"70 386 OFFCURVE",
"72 381 OFFCURVE",
"71 377 CURVE SMOOTH",
"71 343 OFFCURVE",
"70 308 OFFCURVE",
"69 273 CURVE SMOOTH",
"68 257 OFFCURVE",
"68 242 OFFCURVE",
"67 226 CURVE SMOOTH",
"67 194 OFFCURVE",
"66 162 OFFCURVE",
"66 130 CURVE SMOOTH",
"66 118 OFFCURVE",
"65 105 OFFCURVE",
"71 95 CURVE SMOOTH",
"76 84 OFFCURVE",
"77 74 OFFCURVE",
"76 63 CURVE SMOOTH",
"76 58 OFFCURVE",
"71 53 OFFCURVE",
"68 50 CURVE SMOOTH",
"66 48 OFFCURVE",
"60 50 OFFCURVE",
"56 52 CURVE SMOOTH",
"47 55 OFFCURVE",
"36 57 OFFCURVE",
"29 63 CURVE SMOOTH",
"21 70 OFFCURVE",
"16 80 OFFCURVE",
"12 90 CURVE SMOOTH",
"10 94 OFFCURVE",
"14 101 OFFCURVE",
"13 106 CURVE SMOOTH",
"13 122 OFFCURVE",
"11 138 OFFCURVE",
"11 154 CURVE SMOOTH",
"12 173 OFFCURVE",
"10 191 OFFCURVE",
"11 209 CURVE SMOOTH",
"12 215 OFFCURVE",
"13 221 OFFCURVE",
"14 227 CURVE SMOOTH",
"15 229 OFFCURVE",
"15 231 OFFCURVE",
"14 233 CURVE SMOOTH",
"9 242 OFFCURVE",
"12 251 OFFCURVE",
"14 261 CURVE SMOOTH",
"15 266 OFFCURVE",
"14 271 OFFCURVE",
"15 277 CURVE SMOOTH",
"15 284 OFFCURVE",
"18 292 OFFCURVE",
"17 299 CURVE SMOOTH",
"16 305 OFFCURVE",
"16 309 OFFCURVE",
"17 315 CURVE SMOOTH",
"18 323 OFFCURVE",
"15 331 OFFCURVE",
"15 339 CURVE SMOOTH",
"15 350 OFFCURVE",
"19 362 OFFCURVE",
"17 373 CURVE SMOOTH",
"16 381 OFFCURVE",
"20 390 OFFCURVE",
"18 397 CURVE SMOOTH",
"14 407 OFFCURVE",
"19 416 OFFCURVE",
"18 426 CURVE SMOOTH",
"18 436 OFFCURVE",
"19 447 OFFCURVE",
"18 458 CURVE SMOOTH",
"18 469 OFFCURVE",
"21 480 OFFCURVE",
"19 492 CURVE SMOOTH",
"18 495 OFFCURVE",
"20 499 OFFCURVE",
"21 503 CURVE SMOOTH",
"22 504 OFFCURVE",
"22 506 OFFCURVE",
"22 507 CURVE SMOOTH",
"21 517 OFFCURVE",
"19 527 OFFCURVE",
"19 536 CURVE SMOOTH",
"19 540 OFFCURVE",
"22 544 OFFCURVE",
"22 548 CURVE SMOOTH",
"21 555 OFFCURVE",
"19 561 OFFCURVE",
"19 568 CURVE SMOOTH",
"20 589 OFFCURVE",
"20 611 OFFCURVE",
"22 632 CURVE SMOOTH",
"23 639 OFFCURVE",
"22 646 OFFCURVE",
"22 654 CURVE SMOOTH",
"23 688 OFFCURVE",
"25 722 OFFCURVE",
"25 756 CURVE SMOOTH",
"25 764 OFFCURVE",
"23 771 OFFCURVE",
"22 778 CURVE SMOOTH",
"21 783 OFFCURVE",
"18 788 OFFCURVE",
"16 793 CURVE"
);
}
);
width = 300;
}
);
unicode = 0046;
},
{
glyphname = G;
lastChange = "2020-11-29 17:03:27 +0000";
layers = (
{
layerId = "BC2BDE5E-3D40-4D25-8676-E4E66850FFEB";
paths = (
{
closed = 1;
nodes = (
"227 575 OFFCURVE",
"223 579 OFFCURVE",
"220 584 CURVE",
"213 581 OFFCURVE",
"206 584 OFFCURVE",
"201 589 CURVE SMOOTH",
"197 594 OFFCURVE",
"196 602 OFFCURVE",
"194 610 CURVE",
"186 604 OFFCURVE",
"178 598 OFFCURVE",
"170 592 CURVE SMOOTH",
"159 584 OFFCURVE",
"148 575 OFFCURVE",
"136 566 CURVE SMOOTH",
"134 565 OFFCURVE",
"132 562 OFFCURVE",
"131 560 CURVE SMOOTH",
"119 544 OFFCURVE",
"107 528 OFFCURVE",
"101 509 CURVE SMOOTH",
"98 500 OFFCURVE",
"92 492 OFFCURVE",
"89 484 CURVE SMOOTH",
"84 470 OFFCURVE",
"80 455 OFFCURVE",
"77 441 CURVE SMOOTH",
"74 426 OFFCURVE",
"70 411 OFFCURVE",
"70 396 CURVE SMOOTH",
"70 383 OFFCURVE",
"73 371 OFFCURVE",
"76 358 CURVE SMOOTH",
"80 345 OFFCURVE",
"84 333 OFFCURVE",
"88 320 CURVE SMOOTH",
"89 317 OFFCURVE",
"91 315 OFFCURVE",
"93 313 CURVE SMOOTH",
"98 306 OFFCURVE",
"104 298 OFFCURVE",
"110 292 CURVE SMOOTH",
"115 287 OFFCURVE",
"121 282 OFFCURVE",
"130 286 CURVE SMOOTH",
"140 291 OFFCURVE",
"152 293 OFFCURVE",
"162 299 CURVE SMOOTH",
"170 303 OFFCURVE",
"176 310 OFFCURVE",
"182 317 CURVE SMOOTH",
"189 324 OFFCURVE",
"195 332 OFFCURVE",
"202 339 CURVE SMOOTH",
"211 350 OFFCURVE",
"221 359 OFFCURVE",
"228 371 CURVE SMOOTH",
"236 382 OFFCURVE",
"241 395 OFFCURVE",
"247 407 CURVE SMOOTH",
"249 410 OFFCURVE",
"250 414 OFFCURVE",
"252 418 CURVE SMOOTH",
"255 426 OFFCURVE",
"259 435 OFFCURVE",
"261 443 CURVE SMOOTH",
"262 445 OFFCURVE",
"258 450 OFFCURVE",
"257 450 CURVE SMOOTH",
"243 450 OFFCURVE",
"228 447 OFFCURVE",
"215 449 CURVE SMOOTH",
"203 451 OFFCURVE",
"194 443 OFFCURVE",
"184 446 CURVE SMOOTH",
"174 449 OFFCURVE",
"165 455 OFFCURVE",
"155 460 CURVE SMOOTH",
"144 466 OFFCURVE",
"141 478 OFFCURVE",
"139 490 CURVE SMOOTH",
"137 498 OFFCURVE",
"146 501 OFFCURVE",
"153 501 CURVE SMOOTH",
"161 501 OFFCURVE",
"169 499 OFFCURVE",
"177 498 CURVE SMOOTH",
"184 497 OFFCURVE",
"192 498 OFFCURVE",
"199 498 CURVE SMOOTH",
"226 498 OFFCURVE",
"254 498 OFFCURVE",
"281 498 CURVE SMOOTH",
"284 498 OFFCURVE",
"287 497 OFFCURVE",
"289 496 CURVE SMOOTH",
"294 494 OFFCURVE",
"298 491 OFFCURVE",
"305 494 CURVE SMOOTH",
"312 496 OFFCURVE",
"319 493 OFFCURVE",
"323 486 CURVE SMOOTH",
"326 479 OFFCURVE",
"330 472 OFFCURVE",
"330 465 CURVE SMOOTH",
"330 457 OFFCURVE",
"324 451 OFFCURVE",
"321 443 CURVE SMOOTH",
"317 433 OFFCURVE",
"314 422 OFFCURVE",
"309 411 CURVE SMOOTH",
"300 394 OFFCURVE",
"297 373 OFFCURVE",
"283 358 CURVE SMOOTH",
"277 352 OFFCURVE",
"271 346 OFFCURVE",
"267 339 CURVE SMOOTH",
"264 334 OFFCURVE",
"263 327 OFFCURVE",
"259 324 CURVE SMOOTH",
"250 318 OFFCURVE",
"248 306 OFFCURVE",
"238 299 CURVE SMOOTH",
"236 297 OFFCURVE",
"233 295 OFFCURVE",
"229 292 CURVE",
"229 291 OFFCURVE",
"229 288 OFFCURVE",
"229 285 CURVE",
"220 288 OFFCURVE",
"218 281 OFFCURVE",
"215 277 CURVE SMOOTH",
"213 274 OFFCURVE",
"211 270 OFFCURVE",
"210 270 CURVE SMOOTH",
"201 270 OFFCURVE",
"198 264 OFFCURVE",
"194 258 CURVE SMOOTH",
"188 249 OFFCURVE",
"177 247 OFFCURVE",
"167 244 CURVE SMOOTH",
"146 238 OFFCURVE",
"126 243 OFFCURVE",
"106 252 CURVE SMOOTH",
"100 254 OFFCURVE",
"95 257 OFFCURVE",
"87 262 CURVE",
"83 265 OFFCURVE",
"78 271 OFFCURVE",
"71 276 CURVE SMOOTH",
"52 291 OFFCURVE",
"42 313 OFFCURVE",
"31 333 CURVE SMOOTH",
"25 343 OFFCURVE",
"25 355 OFFCURVE",
"22 367 CURVE SMOOTH",
"17 384 OFFCURVE",
"14 401 OFFCURVE",
"15 419 CURVE SMOOTH",
"16 432 OFFCURVE",
"19 444 OFFCURVE",
"22 457 CURVE SMOOTH",
"24 468 OFFCURVE",
"26 479 OFFCURVE",
"30 490 CURVE SMOOTH",
"34 503 OFFCURVE",
"39 517 OFFCURVE",
"45 529 CURVE SMOOTH",
"51 543 OFFCURVE",
"59 556 OFFCURVE",
"66 569 CURVE SMOOTH",
"69 573 OFFCURVE",
"73 577 OFFCURVE",
"77 580 CURVE SMOOTH",
"95 599 OFFCURVE",
"112 619 OFFCURVE",
"131 636 CURVE SMOOTH",
"145 649 OFFCURVE",
"161 659 OFFCURVE",
"179 664 CURVE SMOOTH",
"186 665 OFFCURVE",
"193 662 OFFCURVE",
"200 660 CURVE SMOOTH",
"207 658 OFFCURVE",
"213 652 OFFCURVE",
"220 651 CURVE SMOOTH",
"231 649 OFFCURVE",
"233 640 OFFCURVE",
"236 633 CURVE SMOOTH",
"240 624 OFFCURVE",
"241 615 OFFCURVE",
"243 606 CURVE SMOOTH",
"245 596 OFFCURVE",
"243 587 OFFCURVE",
"237 579 CURVE SMOOTH",
"235 576 OFFCURVE",
"233 574 OFFCURVE",
"230 570 CURVE"
);
}
);
width = 350;
}
);
unicode = 0047;
},
{
glyphname = H;
lastChange = "2020-11-29 17:03:34 +0000";
layers = (
{
layerId = "BC2BDE5E-3D40-4D25-8676-E4E66850FFEB";
paths = (
{
closed = 1;
nodes = (
"81 431 OFFCURVE",
"93 431 OFFCURVE",
"104 431 CURVE",
"109 432 OFFCURVE",
"114 433 OFFCURVE",
"119 434 CURVE",
"141 439 OFFCURVE",
"163 444 OFFCURVE",
"185 449 CURVE",
"194 451 OFFCURVE",
"203 454 OFFCURVE",
"215 457 CURVE",
"215 465 OFFCURVE",
"215 473 OFFCURVE",
"215 482 CURVE",
"216 497 OFFCURVE",
"215 512 OFFCURVE",
"218 527 CURVE",
"221 545 OFFCURVE",
"217 562 OFFCURVE",
"217 579 CURVE",
"219 613 OFFCURVE",
"219 648 OFFCURVE",
"219 682 CURVE",
"219 722 OFFCURVE",
"218 763 OFFCURVE",
"218 803 CURVE",
"218 810 OFFCURVE",
"221 817 OFFCURVE",
"221 824 CURVE",
"221 832 OFFCURVE",
"218 840 OFFCURVE",
"218 849 CURVE",
"218 855 OFFCURVE",
"221 862 OFFCURVE",
"221 868 CURVE",
"221 903 OFFCURVE",
"221 938 OFFCURVE",
"221 973 CURVE",
"221 975 OFFCURVE",
"221 977 OFFCURVE",
"221 979 CURVE",
"217 992 OFFCURVE",
"217 993 OFFCURVE",
"229 998 CURVE",
"233 999 OFFCURVE",
"239 996 OFFCURVE",
"244 995 CURVE",
"249 994 OFFCURVE",
"255 992 OFFCURVE",
"261 992 CURVE",
"267 992 OFFCURVE",
"271 990 OFFCURVE",
"272 983 CURVE",
"273 980 OFFCURVE",
"274 976 OFFCURVE",
"276 973 CURVE",
"281 962 OFFCURVE",
"281 952 OFFCURVE",
"277 941 CURVE",
"275 936 OFFCURVE",
"276 930 OFFCURVE",
"276 925 CURVE",
"274 887 OFFCURVE",
"273 850 OFFCURVE",
"272 813 CURVE",
"272 811 OFFCURVE",
"270 808 OFFCURVE",
"270 806 CURVE",
"270 803 OFFCURVE",
"270 800 OFFCURVE",
"270 796 CURVE",
"271 794 OFFCURVE",
"272 792 OFFCURVE",
"272 789 CURVE",
"271 778 OFFCURVE",
"269 766 OFFCURVE",
"269 754 CURVE",
"268 735 OFFCURVE",
"269 715 OFFCURVE",
"268 695 CURVE",
"268 679 OFFCURVE",
"269 663 OFFCURVE",
"268 647 CURVE",
"268 599 OFFCURVE",
"268 551 OFFCURVE",
"268 503 CURVE",
"268 500 OFFCURVE",
"267 498 OFFCURVE",
"267 495 CURVE",
"267 492 OFFCURVE",
"267 489 OFFCURVE",
"267 486 CURVE",
"268 486 OFFCURVE",
"268 486 OFFCURVE",
"269 485 CURVE",
"267 483 OFFCURVE",
"264 481 OFFCURVE",
"261 479 CURVE",
"269 476 OFFCURVE",
"272 472 OFFCURVE",
"266 466 CURVE",
"265 465 OFFCURVE",
"264 462 OFFCURVE",
"265 461 CURVE",
"273 448 OFFCURVE",
"262 435 OFFCURVE",
"264 421 CURVE",
"265 417 OFFCURVE",
"262 412 OFFCURVE",
"263 407 CURVE",
"263 402 OFFCURVE",
"265 397 OFFCURVE",
"265 393 CURVE",
"265 383 OFFCURVE",
"264 374 OFFCURVE",
"264 364 CURVE",
"264 357 OFFCURVE",
"265 351 OFFCURVE",
"264 344 CURVE",
"264 342 OFFCURVE",
"260 341 OFFCURVE",
"257 340 CURVE",
"260 338 OFFCURVE",
"262 336 OFFCURVE",
"266 333 CURVE",
"262 331 OFFCURVE",
"259 329 OFFCURVE",
"254 326 CURVE",
"255 325 OFFCURVE",
"256 323 OFFCURVE",
"257 322 CURVE",
"259 319 OFFCURVE",
"261 317 OFFCURVE",
"261 315 CURVE",
"262 308 OFFCURVE",
"262 301 OFFCURVE",
"261 293 CURVE",
"261 287 OFFCURVE",
"259 281 OFFCURVE",
"259 275 CURVE",
"258 273 OFFCURVE",
"261 270 OFFCURVE",
"261 268 CURVE",
"256 260 OFFCURVE",
"263 252 OFFCURVE",
"261 243 CURVE",
"261 241 OFFCURVE",
"261 239 OFFCURVE",
"261 237 CURVE",
"260 234 OFFCURVE",
"258 231 OFFCURVE",
"256 228 CURVE",
"257 225 OFFCURVE",
"258 220 OFFCURVE",
"257 216 CURVE",
"257 203 OFFCURVE",
"255 191 OFFCURVE",
"255 178 CURVE",
"254 175 OFFCURVE",
"257 172 OFFCURVE",
"257 168 CURVE",
"256 129 OFFCURVE",
"255 90 OFFCURVE",
"254 50 CURVE",
"254 42 OFFCURVE",
"257 33 OFFCURVE",
"257 24 CURVE",
"258 14 OFFCURVE",
"254 8 OFFCURVE",
"244 6 CURVE",
"233 4 OFFCURVE",
"223 6 OFFCURVE",
"214 13 CURVE",
"202 22 OFFCURVE",
"199 35 OFFCURVE",
"195 48 CURVE",
"193 59 OFFCURVE",
"189 70 OFFCURVE",
"186 81 CURVE",
"185 83 OFFCURVE",
"185 85 OFFCURVE",
"185 88 CURVE",
"190 89 OFFCURVE",
"195 89 OFFCURVE",
"200 90 CURVE",
"198 99 OFFCURVE",
"199 109 OFFCURVE",
"200 117 CURVE",
"205 140 OFFCURVE",
"202 163 OFFCURVE",
"203 187 CURVE",
"204 194 OFFCURVE",
"204 202 OFFCURVE",
"204 210 CURVE",
"204 228 OFFCURVE",
"208 245 OFFCURVE",
"210 263 CURVE",
"211 270 OFFCURVE",
"210 278 OFFCURVE",
"210 285 CURVE",
"211 295 OFFCURVE",
"212 304 OFFCURVE",
"213 314 CURVE",
"213 321 OFFCURVE",
"212 328 OFFCURVE",
"212 335 CURVE",
"212 347 OFFCURVE",
"212 360 OFFCURVE",
"212 372 CURVE",
"213 383 OFFCURVE",
"214 393 OFFCURVE",
"214 405 CURVE",
"207 404 OFFCURVE",
"201 403 OFFCURVE",
"195 401 CURVE",
"179 397 OFFCURVE",
"163 392 OFFCURVE",
"147 388 CURVE",
"141 386 OFFCURVE",
"135 387 OFFCURVE",
"128 387 CURVE",
"118 386 OFFCURVE",
"107 383 OFFCURVE",
"96 384 CURVE",
"88 384 OFFCURVE",
"80 387 OFFCURVE",
"72 389 CURVE",
"70 389 OFFCURVE",
"69 390 OFFCURVE",
"65 391 CURVE",
"65 384 OFFCURVE",
"65 377 OFFCURVE",
"65 371 CURVE",
"65 332 OFFCURVE",
"65 292 OFFCURVE",
"66 253 CURVE",
"66 232 OFFCURVE",
"67 211 OFFCURVE",
"70 190 CURVE",
"72 175 OFFCURVE",
"75 161 OFFCURVE",
"77 145 CURVE",
"78 131 OFFCURVE",
"84 118 OFFCURVE",
"87 105 CURVE",
"89 96 OFFCURVE",
"89 86 OFFCURVE",
"91 78 CURVE",
"93 73 OFFCURVE",
"97 68 OFFCURVE",
"92 63 CURVE",
"91 63 OFFCURVE",
"92 61 OFFCURVE",
"92 60 CURVE",
"97 47 OFFCURVE",
"91 40 OFFCURVE",
"77 42 CURVE",
"70 43 OFFCURVE",
"62 43 OFFCURVE",
"56 46 CURVE",
"38 55 OFFCURVE",
"34 71 OFFCURVE",
"32 89 CURVE",
"31 104 OFFCURVE",
"28 119 OFFCURVE",
"26 134 CURVE",
"25 135 OFFCURVE",
"26 137 OFFCURVE",
"25 139 CURVE",
"23 152 OFFCURVE",
"21 166 OFFCURVE",
"19 179 CURVE",
"18 180 OFFCURVE",
"18 181 OFFCURVE",
"18 183 CURVE",
"17 218 OFFCURVE",
"16 253 OFFCURVE",
"14 289 CURVE",
"14 298 OFFCURVE",
"12 307 OFFCURVE",
"11 316 CURVE",
"11 322 OFFCURVE",
"12 329 OFFCURVE",
"12 336 CURVE",
"13 357 OFFCURVE",
"13 379 OFFCURVE",
"15 401 CURVE",
"15 410 OFFCURVE",
"17 419 OFFCURVE",
"18 429 CURVE",
"18 433 OFFCURVE",
"16 437 OFFCURVE",
"16 441 CURVE",
"16 444 OFFCURVE",
"18 447 OFFCURVE",
"18 451 CURVE",
"20 473 OFFCURVE",
"21 496 OFFCURVE",
"22 519 CURVE",
"23 533 OFFCURVE",
"24 548 OFFCURVE",
"26 562 CURVE",
"28 580 OFFCURVE",
"30 597 OFFCURVE",
"33 615 CURVE",
"36 633 OFFCURVE",
"40 651 OFFCURVE",
"43 669 CURVE",
"45 678 OFFCURVE",
"46 688 OFFCURVE",
"47 698 CURVE",
"49 707 OFFCURVE",
"52 716 OFFCURVE",
"54 725 CURVE",
"54 729 OFFCURVE",
"54 733 OFFCURVE",
"54 738 CURVE",
"54 748 OFFCURVE",
"54 759 OFFCURVE",
"54 769 CURVE",
"54 781 OFFCURVE",
"63 788 OFFCURVE",
"74 785 CURVE",
"84 782 OFFCURVE",
"94 779 OFFCURVE",
"105 778 CURVE",
"115 777 OFFCURVE",
"114 765 OFFCURVE",
"116 758 CURVE",
"118 747 OFFCURVE",
"114 737 OFFCURVE",
"110 727 CURVE",
"107 721 OFFCURVE",
"107 714 OFFCURVE",
"105 708 CURVE",
"103 697 OFFCURVE",
"100 686 OFFCURVE",
"98 675 CURVE",
"97 665 OFFCURVE",
"96 655 OFFCURVE",
"94 645 CURVE",
"92 633 OFFCURVE",
"90 621 OFFCURVE",
"88 609 CURVE",
"86 601 OFFCURVE",
"84 593 OFFCURVE",
"84 584 CURVE",
"82 570 OFFCURVE",
"81 555 OFFCURVE",
"80 541 CURVE",
"79 528 OFFCURVE",
"77 515 OFFCURVE",
"76 502 CURVE",
"75 488 OFFCURVE",
"74 474 OFFCURVE",
"72 461 CURVE",
"71 451 OFFCURVE",
"69 442 OFFCURVE",
"67 431 CURVE"
);
},
{
closed = 1;
nodes = (
"237 297 OFFCURVE",
"237 291 OFFCURVE",
"245 276 CURVE",
"252 281 OFFCURVE",
"236 291 OFFCURVE",
"248 293 CURVE",
"247 301 OFFCURVE",
"246 308 OFFCURVE",
"246 315 CURVE"
);
},
{
closed = 1;
nodes = (
"249 452 OFFCURVE",
"250 453 OFFCURVE",
"250 453 CURVE",
"247 462 OFFCURVE",
"244 471 OFFCURVE",
"251 479 CURVE",
"251 480 OFFCURVE",
"249 483 OFFCURVE",
"248 484 CURVE",
"247 483 OFFCURVE",
"244 482 OFFCURVE",
"244 481 CURVE",
"243 473 OFFCURVE",
"243 465 OFFCURVE",
"244 457 CURVE",
"244 455 OFFCURVE",
"247 453 OFFCURVE",
"248 452 CURVE"
);
},
{
closed = 1;
nodes = (
"237 335 OFFCURVE",
"237 334 OFFCURVE",
"238 333 CURVE",
"242 333 OFFCURVE",
"246 332 OFFCURVE",
"250 332 CURVE",
"250 333 OFFCURVE",
"251 334 OFFCURVE",
"252 334 CURVE",
"250 337 OFFCURVE",
"248 340 OFFCURVE",
"246 343 CURVE",
"243 341 OFFCURVE",
"240 338 OFFCURVE",
"237 335 CURVE"
);
},
{
closed = 1;
nodes = (
"248 532 OFFCURVE",
"249 532 OFFCURVE",
"250 532 CURVE",
"250 541 OFFCURVE",
"250 549 OFFCURVE",
"250 557 CURVE",
"249 557 OFFCURVE",
"248 557 OFFCURVE",
"247 557 CURVE",
"247 549 OFFCURVE",
"247 540 OFFCURVE",
"247 532 CURVE"
);
},
{
closed = 1;
nodes = (
"249 366 OFFCURVE",
"248 367 OFFCURVE",
"246 367 CURVE",
"245 361 OFFCURVE",
"244 355 OFFCURVE",
"242 349 CURVE",
"244 348 OFFCURVE",
"245 348 OFFCURVE",
"247 348 CURVE",
"248 354 OFFCURVE",
"249 360 OFFCURVE",
"251 366 CURVE"
);
},
{
closed = 1;
nodes = (
"242 403 OFFCURVE",
"241 397 OFFCURVE",
"245 383 CURVE",
"247 390 OFFCURVE",
"248 397 OFFCURVE",
"249 404 CURVE"
);
},
{
closed = 1;
nodes = (
"53 451 OFFCURVE",
"52 451 OFFCURVE",
"51 452 CURVE",
"49 447 OFFCURVE",
"48 443 OFFCURVE",
"46 437 CURVE",
"58 439 OFFCURVE",
"53 446 OFFCURVE",
"54 450 CURVE"
);
},
{
closed = 1;
nodes = (
"243 626 OFFCURVE",
"246 624 OFFCURVE",
"250 623 CURVE",
"250 628 OFFCURVE",
"250 632 OFFCURVE",
"250 635 CURVE",
"246 632 OFFCURVE",
"243 630 OFFCURVE",
"240 627 CURVE"
);
}
);
width = 350;
}
);
unicode = 0048;
},
{
glyphname = I;
lastChange = "2020-11-29 17:03:39 +0000";
layers = (
{
layerId = "BC2BDE5E-3D40-4D25-8676-E4E66850FFEB";
paths = (
{
closed = 1;
nodes = (
"115 536 OFFCURVE",
"115 510 OFFCURVE",
"113 484 CURVE SMOOTH",
"112 468 OFFCURVE",
"109 452 OFFCURVE",
"107 436 CURVE SMOOTH",
"106 430 OFFCURVE",
"106 424 OFFCURVE",
"106 419 CURVE SMOOTH",
"104 392 OFFCURVE",
"103 365 OFFCURVE",
"102 339 CURVE SMOOTH",
"101 331 OFFCURVE",
"99 323 OFFCURVE",
"99 315 CURVE SMOOTH",
"98 311 OFFCURVE",
"101 306 OFFCURVE",
"102 302 CURVE",
"113 306 OFFCURVE",
"122 309 OFFCURVE",
"131 313 CURVE SMOOTH",
"137 316 OFFCURVE",
"144 320 OFFCURVE",
"150 323 CURVE SMOOTH",
"162 328 OFFCURVE",
"173 331 OFFCURVE",
"185 326 CURVE SMOOTH",
"192 323 OFFCURVE",
"199 321 OFFCURVE",
"205 318 CURVE SMOOTH",
"214 313 OFFCURVE",
"218 301 OFFCURVE",
"213 292 CURVE SMOOTH",
"212 290 OFFCURVE",
"211 287 OFFCURVE",
"211 287 CURVE",
"201 283 OFFCURVE",
"194 279 OFFCURVE",
"186 276 CURVE SMOOTH",
"175 271 OFFCURVE",
"164 266 OFFCURVE",
"152 262 CURVE SMOOTH",
"142 259 OFFCURVE",
"133 255 OFFCURVE",
"123 252 CURVE SMOOTH",
"120 252 OFFCURVE",
"118 252 OFFCURVE",
"116 252 CURVE SMOOTH",
"110 251 OFFCURVE",
"106 251 OFFCURVE",
"105 244 CURVE SMOOTH",
"104 235 OFFCURVE",
"91 230 OFFCURVE",
"80 234 CURVE SMOOTH",
"73 237 OFFCURVE",
"66 241 OFFCURVE",
"59 244 CURVE SMOOTH",
"52 247 OFFCURVE",
"45 249 OFFCURVE",
"39 252 CURVE SMOOTH",
"23 260 OFFCURVE",
"12 272 OFFCURVE",
"4 287 CURVE SMOOTH",
"3 289 OFFCURVE",
"2 291 OFFCURVE",
"1 293 CURVE",
"12 310 OFFCURVE",
"28 300 OFFCURVE",
"43 298 CURVE",
"44 311 OFFCURVE",
"45 322 OFFCURVE",
"45 334 CURVE SMOOTH",
"45 340 OFFCURVE",
"46 346 OFFCURVE",
"46 352 CURVE SMOOTH",
"47 359 OFFCURVE",
"47 365 OFFCURVE",
"48 372 CURVE SMOOTH",
"49 400 OFFCURVE",
"50 427 OFFCURVE",
"51 455 CURVE SMOOTH",
"52 468 OFFCURVE",
"52 480 OFFCURVE",
"55 492 CURVE SMOOTH",
"61 510 OFFCURVE",
"57 528 OFFCURVE",
"58 546 CURVE SMOOTH",
"59 560 OFFCURVE",
"58 558 OFFCURVE",
"45 564 CURVE SMOOTH",
"31 569 OFFCURVE",
"18 579 OFFCURVE",
"15 595 CURVE SMOOTH",
"14 602 OFFCURVE",
"18 606 OFFCURVE",
"25 607 CURVE SMOOTH",
"35 607 OFFCURVE",
"45 607 OFFCURVE",
"55 607 CURVE SMOOTH",
"63 606 OFFCURVE",
"66 610 OFFCURVE",
"66 617 CURVE SMOOTH",
"65 625 OFFCURVE",
"64 634 OFFCURVE",
"63 642 CURVE SMOOTH",
"63 644 OFFCURVE",
"64 646 OFFCURVE",
"65 647 CURVE SMOOTH",
"73 657 OFFCURVE",
"86 659 OFFCURVE",
"98 652 CURVE SMOOTH",
"103 649 OFFCURVE",
"108 648 OFFCURVE",
"113 647 CURVE SMOOTH",
"121 644 OFFCURVE",
"127 637 OFFCURVE",
"127 629 CURVE SMOOTH",
"128 624 OFFCURVE",
"127 620 OFFCURVE",
"127 613 CURVE",
"136 614 OFFCURVE",
"143 616 OFFCURVE",
"151 617 CURVE SMOOTH",
"152 617 OFFCURVE",
"154 618 OFFCURVE",
"155 617 CURVE SMOOTH",
"166 615 OFFCURVE",
"177 613 OFFCURVE",
"187 610 CURVE SMOOTH",
"191 610 OFFCURVE",
"195 609 OFFCURVE",
"199 607 CURVE SMOOTH",
"202 606 OFFCURVE",
"205 604 OFFCURVE",
"207 601 CURVE SMOOTH",
"211 593 OFFCURVE",
"208 576 OFFCURVE",
"201 570 CURVE SMOOTH",
"199 568 OFFCURVE",
"195 567 OFFCURVE",
"192 567 CURVE SMOOTH",
"175 567 OFFCURVE",
"159 567 OFFCURVE",
"142 567 CURVE SMOOTH",
"133 566 OFFCURVE",
"125 565 OFFCURVE",
"117 564 CURVE"
);
}
);
width = 300;
}
);
unicode = 0049;
},
{
glyphname = J;
lastChange = "2020-11-29 17:03:44 +0000";
layers = (
{
layerId = "BC2BDE5E-3D40-4D25-8676-E4E66850FFEB";
paths = (
{
closed = 1;
nodes = (
"44 393 OFFCURVE",
"46 388 OFFCURVE",
"46 383 CURVE",
"48 374 OFFCURVE",
"49 366 OFFCURVE",
"50 357 CURVE",
"50 336 OFFCURVE",
"51 316 OFFCURVE",
"51 295 CURVE",
"51 288 OFFCURVE",
"50 281 OFFCURVE",
"50 275 CURVE",
"51 264 OFFCURVE",
"52 252 OFFCURVE",
"54 241 CURVE",
"56 229 OFFCURVE",
"60 217 OFFCURVE",
"63 204 CURVE",
"65 197 OFFCURVE",
"66 190 OFFCURVE",
"68 183 CURVE",
"71 169 OFFCURVE",
"75 155 OFFCURVE",
"89 144 CURVE",
"99 153 OFFCURVE",
"110 161 OFFCURVE",
"121 171 CURVE",
"124 174 OFFCURVE",
"126 179 OFFCURVE",
"128 183 CURVE",
"136 198 OFFCURVE",
"144 213 OFFCURVE",
"151 229 CURVE",
"152 231 OFFCURVE",
"154 233 OFFCURVE",
"155 235 CURVE",
"163 249 OFFCURVE",
"166 264 OFFCURVE",
"171 279 CURVE",
"176 292 OFFCURVE",
"177 306 OFFCURVE",
"180 319 CURVE",
"185 340 OFFCURVE",
"192 360 OFFCURVE",
"191 382 CURVE",
"191 383 OFFCURVE",
"192 385 OFFCURVE",
"192 386 CURVE",
"198 395 OFFCURVE",
"198 406 OFFCURVE",
"199 417 CURVE",
"199 447 OFFCURVE",
"201 478 OFFCURVE",
"202 508 CURVE",
"203 544 OFFCURVE",
"202 579 OFFCURVE",
"202 615 CURVE",
"202 631 OFFCURVE",
"200 646 OFFCURVE",
"198 662 CURVE",
"198 669 OFFCURVE",
"193 670 OFFCURVE",
"187 668 CURVE",
"182 666 OFFCURVE",
"176 664 OFFCURVE",
"171 663 CURVE",
"160 661 OFFCURVE",
"149 660 OFFCURVE",
"137 657 CURVE",
"130 656 OFFCURVE",
"123 653 OFFCURVE",
"115 651 CURVE",
"108 649 OFFCURVE",
"100 647 OFFCURVE",
"92 645 CURVE",
"84 642 OFFCURVE",
"76 639 OFFCURVE",
"67 636 CURVE",
"61 634 OFFCURVE",
"55 631 OFFCURVE",
"49 631 CURVE",
"42 631 OFFCURVE",
"36 634 OFFCURVE",
"29 637 CURVE",
"12 643 OFFCURVE",
"10 660 OFFCURVE",
"3 673 CURVE",
"1 677 OFFCURVE",
"9 684 OFFCURVE",
"15 685 CURVE",
"32 688 OFFCURVE",
"49 692 OFFCURVE",
"65 695 CURVE",
"80 698 OFFCURVE",
"94 700 OFFCURVE",
"108 703 CURVE",
"117 705 OFFCURVE",
"126 709 OFFCURVE",
"136 711 CURVE",
"147 713 OFFCURVE",
"159 716 OFFCURVE",
"170 718 CURVE",
"181 719 OFFCURVE",
"191 721 OFFCURVE",
"198 729 CURVE",
"199 730 OFFCURVE",
"200 732 OFFCURVE",
"201 732 CURVE",
"216 731 OFFCURVE",
"231 736 OFFCURVE",
"245 724 CURVE",
"249 721 OFFCURVE",
"254 720 OFFCURVE",
"259 717 CURVE",
"261 717 OFFCURVE",
"263 716 OFFCURVE",
"263 715 CURVE",
"263 704 OFFCURVE",
"267 695 OFFCURVE",
"265 684 CURVE",
"264 672 OFFCURVE",
"253 664 OFFCURVE",
"254 653 CURVE",
"254 645 OFFCURVE",
"255 637 OFFCURVE",
"256 630 CURVE",
"256 627 OFFCURVE",
"256 624 OFFCURVE",
"256 622 CURVE",
"257 603 OFFCURVE",
"257 584 OFFCURVE",
"258 565 CURVE",
"259 555 OFFCURVE",
"260 545 OFFCURVE",
"260 535 CURVE",
"259 527 OFFCURVE",
"260 518 OFFCURVE",
"260 509 CURVE",
"259 492 OFFCURVE",
"258 474 OFFCURVE",
"256 457 CURVE",
"255 444 OFFCURVE",
"254 432 OFFCURVE",
"253 420 CURVE",
"251 400 OFFCURVE",
"248 380 OFFCURVE",
"246 360 CURVE",
"243 341 OFFCURVE",
"241 321 OFFCURVE",
"238 302 CURVE",
"237 292 OFFCURVE",
"233 282 OFFCURVE",
"230 272 CURVE",
"227 262 OFFCURVE",
"224 251 OFFCURVE",
"220 241 CURVE",
"215 229 OFFCURVE",
"209 218 OFFCURVE",
"204 206 CURVE",
"203 205 OFFCURVE",
"202 205 OFFCURVE",
"202 204 CURVE",
"200 184 OFFCURVE",
"188 169 OFFCURVE",
"180 152 CURVE",
"174 141 OFFCURVE",
"167 130 OFFCURVE",
"158 121 CURVE",
"146 110 OFFCURVE",
"132 99 OFFCURVE",
"115 97 CURVE",
"105 95 OFFCURVE",
"94 98 OFFCURVE",
"85 101 CURVE",
"69 107 OFFCURVE",
"55 115 OFFCURVE",
"45 130 CURVE",
"39 140 OFFCURVE",
"32 150 OFFCURVE",
"28 162 CURVE",
"23 176 OFFCURVE",
"20 191 OFFCURVE",
"17 205 CURVE",
"14 217 OFFCURVE",
"12 229 OFFCURVE",
"11 241 CURVE",
"10 244 OFFCURVE",
"12 248 OFFCURVE",
"13 251 CURVE",
"13 255 OFFCURVE",
"14 260 OFFCURVE",
"12 264 CURVE",
"10 273 OFFCURVE",
"8 282 OFFCURVE",
"12 291 CURVE",
"13 292 OFFCURVE",
"12 294 OFFCURVE",
"12 296 CURVE",
"12 301 OFFCURVE",
"11 305 OFFCURVE",
"11 310 CURVE",
"12 310 OFFCURVE",
"13 310 OFFCURVE",
"13 310 CURVE",
"12 311 OFFCURVE",
"10 312 OFFCURVE",
"10 312 CURVE",
"10 325 OFFCURVE",
"10 338 OFFCURVE",
"10 351 CURVE",
"17 346 OFFCURVE",
"18 349 OFFCURVE",
"21 355 CURVE",
"26 364 OFFCURVE",
"22 371 OFFCURVE",
"17 378 CURVE",
"17 374 OFFCURVE",
"17 370 OFFCURVE",
"18 367 CURVE",
"19 360 OFFCURVE",
"18 357 OFFCURVE",
"9 353 CURVE",
"10 360 OFFCURVE",
"11 365 OFFCURVE",
"12 370 CURVE",
"12 371 OFFCURVE",
"11 372 OFFCURVE",
"11 374 CURVE",
"11 376 OFFCURVE",
"12 379 OFFCURVE",
"12 381 CURVE",
"11 384 OFFCURVE",
"11 386 OFFCURVE",
"11 389 CURVE",
"11 393 OFFCURVE",
"11 397 OFFCURVE",
"10 402 CURVE",
"10 402 OFFCURVE",
"9 402 OFFCURVE",
"5 403 CURVE",
"8 405 OFFCURVE",
"10 405 OFFCURVE",
"11 406 CURVE",
"12 408 OFFCURVE",
"13 409 OFFCURVE",
"13 411 CURVE",
"15 421 OFFCURVE",
"16 432 OFFCURVE",
"17 443 CURVE",
"17 449 OFFCURVE",
"18 454 OFFCURVE",
"26 449 CURVE",
"27 449 OFFCURVE",
"29 451 OFFCURVE",
"30 451 CURVE",
"28 449 OFFCURVE",
"26 446 OFFCURVE",
"24 444 CURVE",
"25 443 OFFCURVE",
"25 442 OFFCURVE",
"25 442 CURVE",
"28 443 OFFCURVE",
"33 444 OFFCURVE",
"34 446 CURVE",
"35 449 OFFCURVE",
"33 453 OFFCURVE",
"32 457 CURVE",
"29 459 OFFCURVE",
"27 461 OFFCURVE",
"24 463 CURVE",
"19 469 OFFCURVE",
"22 475 OFFCURVE",
"25 481 CURVE",
"27 485 OFFCURVE",
"30 488 OFFCURVE",
"33 493 CURVE",
"37 490 OFFCURVE",
"41 487 OFFCURVE",
"46 483 CURVE",
"46 483 OFFCURVE",
"49 484 OFFCURVE",
"53 485 CURVE",
"54 486 OFFCURVE",
"56 489 OFFCURVE",
"58 492 CURVE",
"59 492 OFFCURVE",
"60 492 OFFCURVE",
"61 491 CURVE",
"60 483 OFFCURVE",
"59 475 OFFCURVE",
"58 467 CURVE",
"57 457 OFFCURVE",
"55 447 OFFCURVE",
"53 437 CURVE",
"52 433 OFFCURVE",
"50 430 OFFCURVE",
"48 424 CURVE",
"52 418 OFFCURVE",
"49 409 OFFCURVE",
"49 400 CURVE",
"49 399 OFFCURVE",
"45 398 OFFCURVE",
"43 397 CURVE",
"41 399 OFFCURVE",
"39 401 OFFCURVE",
"36 402 CURVE",
"35 402 OFFCURVE",
"32 400 OFFCURVE",
"32 399 CURVE",
"33 395 OFFCURVE",
"34 391 OFFCURVE",
"36 386 CURVE",
"39 391 OFFCURVE",
"41 394 OFFCURVE",
"43 398 CURVE"
);
},
{
closed = 1;
nodes = (
"42 478 OFFCURVE",
"41 479 OFFCURVE",
"40 480 CURVE",
"36 478 OFFCURVE",
"32 476 OFFCURVE",
"28 473 CURVE",
"31 470 OFFCURVE",
"33 466 OFFCURVE",
"37 461 CURVE",
"39 469 OFFCURVE",
"41 473 OFFCURVE",
"43 477 CURVE"
);
},
{
closed = 1;
nodes = (
"19 410 OFFCURVE",
"18 409 OFFCURVE",
"18 409 CURVE",
"18 403 OFFCURVE",
"18 397 OFFCURVE",
"18 390 CURVE",
"18 390 OFFCURVE",
"19 390 OFFCURVE",
"19 390 CURVE",
"20 393 OFFCURVE",
"21 395 OFFCURVE",
"21 398 CURVE",
"23 397 OFFCURVE",
"25 397 OFFCURVE",
"27 396 CURVE",
"27 400 OFFCURVE",
"27 402 OFFCURVE",
"27 406 CURVE",
"25 404 OFFCURVE",
"23 403 OFFCURVE",
"21 402 CURVE",
"21 405 OFFCURVE",
"20 407 OFFCURVE",
"20 410 CURVE"
);
},
{
closed = 1;
nodes = (
"36 415 OFFCURVE",
"38 419 OFFCURVE",
"41 422 CURVE",
"40 424 OFFCURVE",
"38 425 OFFCURVE",
"37 427 CURVE",
"38 426 OFFCURVE",
"39 424 OFFCURVE",
"40 423 CURVE",
"37 421 OFFCURVE",
"33 419 OFFCURVE",
"30 417 CURVE",
"30 416 OFFCURVE",
"32 414 OFFCURVE",
"33 412 CURVE"
);
},
{
closed = 1;
nodes = (
"47 450 OFFCURVE",
"48 452 OFFCURVE",
"49 453 CURVE",
"47 455 OFFCURVE",
"44 457 OFFCURVE",
"41 459 CURVE",
"41 457 OFFCURVE",
"39 454 OFFCURVE",
"40 453 CURVE",
"41 451 OFFCURVE",
"44 450 OFFCURVE",
"47 449 CURVE"
);
},
{
closed = 1;
nodes = (
"35 436 OFFCURVE",
"35 437 OFFCURVE",
"34 437 CURVE",
"31 437 OFFCURVE",
"28 437 OFFCURVE",
"25 436 CURVE",
"25 434 OFFCURVE",
"25 431 OFFCURVE",
"25 428 CURVE",
"25 427 OFFCURVE",
"26 427 OFFCURVE",
"27 426 CURVE",
"30 429 OFFCURVE",
"33 432 OFFCURVE",
"36 435 CURVE"
);
},
{
closed = 1;
nodes = (
"31 386 OFFCURVE",
"30 387 OFFCURVE",
"29 388 CURVE",
"26 386 OFFCURVE",
"23 385 OFFCURVE",
"19 383 CURVE",
"22 380 OFFCURVE",
"24 379 OFFCURVE",
"27 377 CURVE",
"29 380 OFFCURVE",
"31 383 OFFCURVE",
"32 386 CURVE"
);
}
);
width = 300;
}
);
unicode = 004A;
},
{
glyphname = K;
lastChange = "2020-11-29 17:03:49 +0000";
layers = (
{
layerId = "BC2BDE5E-3D40-4D25-8676-E4E66850FFEB";
paths = (
{
closed = 1;
nodes = (
"3 166 OFFCURVE",
"5 165 OFFCURVE",
"8 163 CURVE",
"7 173 OFFCURVE",
"6 181 OFFCURVE",
"5 190 CURVE SMOOTH",
"5 193 OFFCURVE",
"4 197 OFFCURVE",
"4 200 CURVE SMOOTH",
"10 222 OFFCURVE",
"7 243 OFFCURVE",
"8 265 CURVE SMOOTH",
"8 270 OFFCURVE",
"10 275 OFFCURVE",
"11 280 CURVE SMOOTH",
"11 282 OFFCURVE",
"10 284 OFFCURVE",
"10 285 CURVE SMOOTH",
"9 288 OFFCURVE",
"8 292 OFFCURVE",
"8 295 CURVE SMOOTH",
"9 311 OFFCURVE",
"10 327 OFFCURVE",
"12 343 CURVE SMOOTH",
"12 349 OFFCURVE",
"15 356 OFFCURVE",
"14 362 CURVE SMOOTH",
"11 372 OFFCURVE",
"16 381 OFFCURVE",
"16 390 CURVE SMOOTH",
"15 407 OFFCURVE",
"18 423 OFFCURVE",
"18 439 CURVE SMOOTH",
"19 445 OFFCURVE",
"15 451 OFFCURVE",
"13 457 CURVE SMOOTH",
"12 461 OFFCURVE",
"12 465 OFFCURVE",
"11 470 CURVE SMOOTH",
"11 471 OFFCURVE",
"11 473 OFFCURVE",
"11 474 CURVE SMOOTH",
"8 481 OFFCURVE",
"11 489 OFFCURVE",
"17 494 CURVE SMOOTH",
"20 496 OFFCURVE",
"22 499 OFFCURVE",
"22 502 CURVE SMOOTH",
"24 529 OFFCURVE",
"23 556 OFFCURVE",
"26 582 CURVE SMOOTH",
"33 627 OFFCURVE",
"28 673 OFFCURVE",
"29 718 CURVE SMOOTH",
"30 728 OFFCURVE",
"25 738 OFFCURVE",
"24 747 CURVE SMOOTH",
"23 750 OFFCURVE",
"24 754 OFFCURVE",
"26 756 CURVE SMOOTH",
"34 767 OFFCURVE",
"53 763 OFFCURVE",
"62 756 CURVE SMOOTH",
"68 752 OFFCURVE",
"74 747 OFFCURVE",
"80 744 CURVE SMOOTH",
"86 741 OFFCURVE",
"88 738 OFFCURVE",
"88 732 CURVE SMOOTH",
"87 724 OFFCURVE",
"89 716 OFFCURVE",
"87 708 CURVE SMOOTH",
"82 689 OFFCURVE",
"85 669 OFFCURVE",
"84 650 CURVE SMOOTH",
"84 639 OFFCURVE",
"84 628 OFFCURVE",
"84 617 CURVE SMOOTH",
"83 594 OFFCURVE",
"82 571 OFFCURVE",
"80 548 CURVE SMOOTH",
"80 544 OFFCURVE",
"77 539 OFFCURVE",
"76 535 CURVE",
"77 534 OFFCURVE",
"78 534 OFFCURVE",
"78 533 CURVE",
"84 537 OFFCURVE",
"89 541 OFFCURVE",
"94 546 CURVE SMOOTH",
"114 565 OFFCURVE",
"133 584 OFFCURVE",
"152 604 CURVE SMOOTH",
"168 620 OFFCURVE",
"183 636 OFFCURVE",
"198 653 CURVE SMOOTH",
"203 660 OFFCURVE",
"207 668 OFFCURVE",
"211 675 CURVE SMOOTH",
"213 678 OFFCURVE",
"214 681 OFFCURVE",
"217 682 CURVE SMOOTH",
"226 686 OFFCURVE",
"257 679 OFFCURVE",
"264 671 CURVE SMOOTH",
"277 657 OFFCURVE",
"275 640 OFFCURVE",
"262 629 CURVE SMOOTH",
"239 609 OFFCURVE",
"218 587 OFFCURVE",
"197 565 CURVE SMOOTH",
"178 546 OFFCURVE",
"160 527 OFFCURVE",
"141 508 CURVE SMOOTH",
"130 498 OFFCURVE",
"118 488 OFFCURVE",
"107 479 CURVE SMOOTH",
"101 473 OFFCURVE",
"94 469 OFFCURVE",
"86 463 CURVE",
"99 451 OFFCURVE",
"110 440 OFFCURVE",
"122 428 CURVE SMOOTH",
"136 414 OFFCURVE",
"149 400 OFFCURVE",
"163 385 CURVE SMOOTH",
"184 361 OFFCURVE",
"205 337 OFFCURVE",
"226 313 CURVE SMOOTH",
"230 309 OFFCURVE",
"234 304 OFFCURVE",
"239 301 CURVE SMOOTH",
"249 295 OFFCURVE",
"247 284 OFFCURVE",
"250 276 CURVE SMOOTH",
"253 267 OFFCURVE",
"241 255 OFFCURVE",
"232 254 CURVE SMOOTH",
"225 254 OFFCURVE",
"219 254 OFFCURVE",
"213 254 CURVE",
"213 255 OFFCURVE",
"213 256 OFFCURVE",
"213 256 CURVE",
"210 258 OFFCURVE",
"206 259 OFFCURVE",
"203 262 CURVE SMOOTH",
"197 267 OFFCURVE",
"189 273 OFFCURVE",
"186 280 CURVE SMOOTH",
"181 295 OFFCURVE",
"171 306 OFFCURVE",
"162 318 CURVE SMOOTH",
"157 324 OFFCURVE",
"153 329 OFFCURVE",
"149 335 CURVE SMOOTH",
"147 338 OFFCURVE",
"144 341 OFFCURVE",
"142 343 CURVE SMOOTH",
"128 358 OFFCURVE",
"115 373 OFFCURVE",
"102 387 CURVE SMOOTH",
"92 396 OFFCURVE",
"81 404 OFFCURVE",
"71 412 CURVE",
"69 404 OFFCURVE",
"67 395 OFFCURVE",
"66 386 CURVE SMOOTH",
"65 374 OFFCURVE",
"63 362 OFFCURVE",
"63 350 CURVE SMOOTH",
"63 346 OFFCURVE",
"63 341 OFFCURVE",
"63 337 CURVE SMOOTH",
"62 318 OFFCURVE",
"61 299 OFFCURVE",
"61 281 CURVE SMOOTH",
"61 273 OFFCURVE",
"62 265 OFFCURVE",
"62 258 CURVE SMOOTH",
"61 252 OFFCURVE",
"59 246 OFFCURVE",
"59 241 CURVE SMOOTH",
"58 211 OFFCURVE",
"58 180 OFFCURVE",
"59 150 CURVE SMOOTH",
"60 136 OFFCURVE",
"65 123 OFFCURVE",
"67 109 CURVE SMOOTH",
"68 103 OFFCURVE",
"67 96 OFFCURVE",
"65 90 CURVE SMOOTH",
"62 84 OFFCURVE",
"57 81 OFFCURVE",
"49 79 CURVE SMOOTH",
"34 78 OFFCURVE",
"24 87 OFFCURVE",
"18 95 CURVE SMOOTH",
"12 103 OFFCURVE",
"3 113 OFFCURVE",
"7 128 CURVE SMOOTH",
"9 136 OFFCURVE",
"4 147 OFFCURVE",
"2 156 CURVE SMOOTH",
"1 159 OFFCURVE",
"1 162 OFFCURVE",
"0 167 CURVE"
);
}
);
width = 300;
}
);
unicode = 004B;
},
{
glyphname = L;
lastChange = "2020-11-29 17:04:03 +0000";
layers = (
{
layerId = "BC2BDE5E-3D40-4D25-8676-E4E66850FFEB";
paths = (
{
closed = 1;
nodes = (
"14 463 OFFCURVE",
"15 466 OFFCURVE",
"16 469 CURVE SMOOTH",
"16 472 OFFCURVE",
"16 476 OFFCURVE",
"16 480 CURVE SMOOTH",
"15 491 OFFCURVE",
"18 501 OFFCURVE",
"22 511 CURVE SMOOTH",
"25 519 OFFCURVE",
"23 528 OFFCURVE",
"24 537 CURVE SMOOTH",
"25 548 OFFCURVE",
"28 559 OFFCURVE",
"30 571 CURVE SMOOTH",
"31 577 OFFCURVE",
"32 583 OFFCURVE",
"30 589 CURVE SMOOTH",
"27 596 OFFCURVE",
"24 604 OFFCURVE",
"30 609 CURVE SMOOTH",
"36 616 OFFCURVE",
"44 618 OFFCURVE",
"54 612 CURVE SMOOTH",
"61 607 OFFCURVE",
"71 604 OFFCURVE",
"80 601 CURVE SMOOTH",
"87 599 OFFCURVE",
"88 592 OFFCURVE",
"88 587 CURVE SMOOTH",
"88 573 OFFCURVE",
"89 558 OFFCURVE",
"82 544 CURVE SMOOTH",
"81 544 OFFCURVE",
"81 543 OFFCURVE",
"81 542 CURVE SMOOTH",
"80 529 OFFCURVE",
"79 516 OFFCURVE",
"77 502 CURVE SMOOTH",
"76 490 OFFCURVE",
"73 477 OFFCURVE",
"71 465 CURVE SMOOTH",
"70 457 OFFCURVE",
"70 450 OFFCURVE",
"70 442 CURVE SMOOTH",
"70 432 OFFCURVE",
"70 423 OFFCURVE",
"70 413 CURVE",
"81 410 OFFCURVE",
"91 405 OFFCURVE",
"100 406 CURVE SMOOTH",
"111 407 OFFCURVE",
"119 399 OFFCURVE",
"130 401 CURVE SMOOTH",
"132 401 OFFCURVE",
"135 399 OFFCURVE",
"136 398 CURVE SMOOTH",
"143 391 OFFCURVE",
"149 384 OFFCURVE",
"155 378 CURVE",
"152 368 OFFCURVE",
"148 358 OFFCURVE",
"145 347 CURVE",
"132 344 OFFCURVE",
"120 351 OFFCURVE",
"107 354 CURVE SMOOTH",
"102 356 OFFCURVE",
"97 359 OFFCURVE",
"92 359 CURVE SMOOTH",
"80 359 OFFCURVE",
"68 369 OFFCURVE",
"55 362 CURVE SMOOTH",
"54 361 OFFCURVE",
"51 361 OFFCURVE",
"50 361 CURVE SMOOTH",
"37 371 OFFCURVE",
"17 374 OFFCURVE",
"12 393 CURVE SMOOTH",
"10 401 OFFCURVE",
"10 410 OFFCURVE",
"10 419 CURVE SMOOTH",
"10 422 OFFCURVE",
"12 425 OFFCURVE",
"12 428 CURVE SMOOTH",
"13 437 OFFCURVE",
"15 446 OFFCURVE",
"15 454 CURVE SMOOTH",
"15 456 OFFCURVE",
"14 459 OFFCURVE",
"13 460 CURVE"
);
}
);
width = 200;
}
);
unicode = 004C;
},
{
glyphname = M;
lastChange = "2020-11-29 17:04:10 +0000";
layers = (
{
layerId = "BC2BDE5E-3D40-4D25-8676-E4E66850FFEB";
paths = (
{
closed = 1;
nodes = (
"86 577 OFFCURVE",
"84 575 OFFCURVE",
"84 572 CURVE SMOOTH",
"82 559 OFFCURVE",
"80 546 OFFCURVE",
"80 533 CURVE SMOOTH",
"79 523 OFFCURVE",
"78 513 OFFCURVE",
"74 503 CURVE SMOOTH",
"72 500 OFFCURVE",
"73 496 OFFCURVE",
"72 492 CURVE SMOOTH",
"71 480 OFFCURVE",
"70 468 OFFCURVE",
"69 456 CURVE SMOOTH",
"68 449 OFFCURVE",
"66 443 OFFCURVE",
"65 437 CURVE SMOOTH",
"63 430 OFFCURVE",
"62 422 OFFCURVE",
"61 415 CURVE SMOOTH",
"59 400 OFFCURVE",
"57 384 OFFCURVE",
"56 369 CURVE SMOOTH",
"55 363 OFFCURVE",
"57 357 OFFCURVE",
"57 350 CURVE SMOOTH",
"57 345 OFFCURVE",
"57 341 OFFCURVE",
"57 336 CURVE SMOOTH",
"58 326 OFFCURVE",
"62 317 OFFCURVE",
"61 308 CURVE SMOOTH",
"60 298 OFFCURVE",
"58 287 OFFCURVE",
"52 279 CURVE SMOOTH",
"47 271 OFFCURVE",
"37 276 OFFCURVE",
"29 279 CURVE SMOOTH",
"10 288 OFFCURVE",
"3 305 OFFCURVE",
"-3 323 CURVE SMOOTH",
"-5 327 OFFCURVE",
"-1 332 OFFCURVE",
"0 337 CURVE SMOOTH",
"0 350 OFFCURVE",
"-1 363 OFFCURVE",
"0 376 CURVE SMOOTH",
"1 387 OFFCURVE",
"3 398 OFFCURVE",
"5 409 CURVE SMOOTH",
"5 410 OFFCURVE",
"6 411 OFFCURVE",
"6 411 CURVE SMOOTH",
"0 422 OFFCURVE",
"9 432 OFFCURVE",
"8 443 CURVE SMOOTH",
"7 452 OFFCURVE",
"12 461 OFFCURVE",
"14 470 CURVE SMOOTH",
"17 483 OFFCURVE",
"19 497 OFFCURVE",
"21 510 CURVE SMOOTH",
"21 511 OFFCURVE",
"21 512 OFFCURVE",
"21 512 CURVE SMOOTH",
"23 527 OFFCURVE",
"23 541 OFFCURVE",
"25 555 CURVE SMOOTH",
"26 564 OFFCURVE",
"29 572 OFFCURVE",
"31 580 CURVE SMOOTH",
"33 586 OFFCURVE",
"35 592 OFFCURVE",
"36 598 CURVE SMOOTH",
"37 612 OFFCURVE",
"38 626 OFFCURVE",
"40 639 CURVE SMOOTH",
"41 655 OFFCURVE",
"42 670 OFFCURVE",
"43 685 CURVE SMOOTH",
"43 687 OFFCURVE",
"44 689 OFFCURVE",
"43 691 CURVE SMOOTH",
"42 696 OFFCURVE",
"37 702 OFFCURVE",
"45 706 CURVE SMOOTH",
"54 711 OFFCURVE",
"62 712 OFFCURVE",
"70 706 CURVE SMOOTH",
"76 703 OFFCURVE",
"82 698 OFFCURVE",
"88 696 CURVE SMOOTH",
"94 694 OFFCURVE",
"96 691 OFFCURVE",
"99 685 CURVE SMOOTH",
"103 677 OFFCURVE",
"109 670 OFFCURVE",
"114 663 CURVE SMOOTH",
"116 659 OFFCURVE",
"118 655 OFFCURVE",
"119 650 CURVE SMOOTH",
"122 640 OFFCURVE",
"124 630 OFFCURVE",
"127 620 CURVE SMOOTH",
"129 612 OFFCURVE",
"133 605 OFFCURVE",
"136 597 CURVE SMOOTH",
"139 587 OFFCURVE",
"142 576 OFFCURVE",
"145 565 CURVE SMOOTH",
"148 554 OFFCURVE",
"152 542 OFFCURVE",
"155 531 CURVE SMOOTH",
"158 520 OFFCURVE",
"160 509 OFFCURVE",
"163 498 CURVE SMOOTH",
"164 494 OFFCURVE",
"166 489 OFFCURVE",
"166 484 CURVE SMOOTH",
"167 480 OFFCURVE",
"165 477 OFFCURVE",
"165 474 CURVE",
"168 468 OFFCURVE",
"172 462 OFFCURVE",
"174 458 CURVE",
"179 470 OFFCURVE",
"184 481 OFFCURVE",
"188 493 CURVE SMOOTH",
"191 505 OFFCURVE",
"195 515 OFFCURVE",
"204 525 CURVE",
"202 530 OFFCURVE",
"209 546 OFFCURVE",
"216 548 CURVE",
"215 550 OFFCURVE",
"215 552 OFFCURVE",
"214 556 CURVE",
"216 555 OFFCURVE",
"218 555 OFFCURVE",
"220 555 CURVE",
"224 558 OFFCURVE",
"213 570 OFFCURVE",
"228 568 CURVE",
"228 575 OFFCURVE",
"229 582 OFFCURVE",
"229 588 CURVE",
"230 588 OFFCURVE",
"231 588 OFFCURVE",
"231 587 CURVE",
"236 595 OFFCURVE",
"241 603 OFFCURVE",
"246 611 CURVE",
"244 612 OFFCURVE",
"242 612 OFFCURVE",
"238 613 CURVE",
"247 625 OFFCURVE",
"245 642 OFFCURVE",
"262 651 CURVE",
"262 653 OFFCURVE",
"262 657 OFFCURVE",
"262 661 CURVE",
"263 661 OFFCURVE",
"265 661 OFFCURVE",
"267 660 CURVE",
"267 661 OFFCURVE",
"268 663 OFFCURVE",
"268 663 CURVE SMOOTH",
"261 669 OFFCURVE",
"267 675 OFFCURVE",
"269 680 CURVE SMOOTH",
"275 690 OFFCURVE",
"283 699 OFFCURVE",
"288 709 CURVE SMOOTH",
"295 722 OFFCURVE",
"301 737 OFFCURVE",
"308 751 CURVE SMOOTH",
"313 760 OFFCURVE",
"318 768 OFFCURVE",
"323 777 CURVE SMOOTH",
"325 781 OFFCURVE",
"326 786 OFFCURVE",
"327 790 CURVE SMOOTH",
"328 800 OFFCURVE",
"329 810 OFFCURVE",
"337 818 CURVE SMOOTH",
"342 822 OFFCURVE",
"346 822 OFFCURVE",
"352 821 CURVE SMOOTH",
"354 820 OFFCURVE",
"357 822 OFFCURVE",
"359 821 CURVE SMOOTH",
"371 818 OFFCURVE",
"382 814 OFFCURVE",
"394 810 CURVE",
"398 802 OFFCURVE",
"405 794 OFFCURVE",
"402 783 CURVE SMOOTH",
"400 774 OFFCURVE",
"397 765 OFFCURVE",
"396 756 CURVE SMOOTH",
"395 747 OFFCURVE",
"395 739 OFFCURVE",
"395 730 CURVE SMOOTH",
"396 723 OFFCURVE",
"398 716 OFFCURVE",
"399 709 CURVE SMOOTH",
"399 695 OFFCURVE",
"396 681 OFFCURVE",
"399 667 CURVE SMOOTH",
"404 647 OFFCURVE",
"401 626 OFFCURVE",
"403 606 CURVE SMOOTH",
"403 596 OFFCURVE",
"405 587 OFFCURVE",
"399 578 CURVE",
"401 577 OFFCURVE",
"403 576 OFFCURVE",
"404 575 CURVE",
"405 572 OFFCURVE",
"405 569 OFFCURVE",
"405 567 CURVE SMOOTH",
"405 561 OFFCURVE",
"404 556 OFFCURVE",
"404 550 CURVE SMOOTH",
"404 545 OFFCURVE",
"405 539 OFFCURVE",
"405 534 CURVE SMOOTH",
"405 498 OFFCURVE",
"405 461 OFFCURVE",
"406 425 CURVE SMOOTH",
"406 416 OFFCURVE",
"400 420 OFFCURVE",
"395 417 CURVE",
"398 415 OFFCURVE",
"401 413 OFFCURVE",
"405 411 CURVE",
"405 402 OFFCURVE",
"405 391 OFFCURVE",
"405 380 CURVE",
"402 381 OFFCURVE",
"399 381 OFFCURVE",
"396 382 CURVE",
"396 380 OFFCURVE",
"395 377 OFFCURVE",
"395 373 CURVE",
"397 374 OFFCURVE",
"399 375 OFFCURVE",
"401 376 CURVE",
"405 370 OFFCURVE",
"408 363 OFFCURVE",
"403 355 CURVE SMOOTH",
"401 352 OFFCURVE",
"402 348 OFFCURVE",
"402 344 CURVE SMOOTH",
"403 335 OFFCURVE",
"406 326 OFFCURVE",
"405 317 CURVE SMOOTH",
"404 298 OFFCURVE",
"407 280 OFFCURVE",
"406 261 CURVE SMOOTH",
"405 242 OFFCURVE",
"404 221 OFFCURVE",
"407 202 CURVE SMOOTH",
"411 177 OFFCURVE",
"406 152 OFFCURVE",
"410 127 CURVE SMOOTH",
"415 103 OFFCURVE",
"411 79 OFFCURVE",
"413 55 CURVE SMOOTH",
"414 49 OFFCURVE",
"416 43 OFFCURVE",
"416 37 CURVE SMOOTH",
"417 34 OFFCURVE",
"416 31 OFFCURVE",
"416 28 CURVE SMOOTH",
"415 24 OFFCURVE",
"413 20 OFFCURVE",
"413 15 CURVE SMOOTH",
"414 8 OFFCURVE",
"410 2 OFFCURVE",
"405 1 CURVE SMOOTH",
"400 -1 OFFCURVE",
"394 2 OFFCURVE",
"388 3 CURVE SMOOTH",
"383 4 OFFCURVE",
"379 4 OFFCURVE",
"375 7 CURVE SMOOTH",
"370 10 OFFCURVE",
"365 14 OFFCURVE",
"363 19 CURVE SMOOTH",
"359 30 OFFCURVE",
"356 42 OFFCURVE",
"352 53 CURVE SMOOTH",
"352 54 OFFCURVE",
"352 56 OFFCURVE",
"353 57 CURVE SMOOTH",
"363 74 OFFCURVE",
"360 92 OFFCURVE",
"356 110 CURVE SMOOTH",
"355 112 OFFCURVE",
"355 113 OFFCURVE",
"355 115 CURVE SMOOTH",
"354 166 OFFCURVE",
"353 217 OFFCURVE",
"352 268 CURVE SMOOTH",
"351 285 OFFCURVE",
"351 302 OFFCURVE",
"351 320 CURVE SMOOTH",
"351 350 OFFCURVE",
"351 381 OFFCURVE",
"351 412 CURVE SMOOTH",
"351 477 OFFCURVE",
"351 541 OFFCURVE",
"351 606 CURVE SMOOTH",
"351 611 OFFCURVE",
"348 616 OFFCURVE",
"348 620 CURVE SMOOTH",
"350 636 OFFCURVE",
"347 651 OFFCURVE",
"345 666 CURVE SMOOTH",
"343 675 OFFCURVE",
"344 684 OFFCURVE",
"344 693 CURVE",
"343 694 OFFCURVE",
"342 694 OFFCURVE",
"341 694 CURVE",
"338 689 OFFCURVE",
"334 684 OFFCURVE",
"331 678 CURVE SMOOTH",
"323 664 OFFCURVE",
"316 649 OFFCURVE",
"308 635 CURVE SMOOTH",
"306 631 OFFCURVE",
"301 628 OFFCURVE",
"296 628 CURVE SMOOTH",
"292 629 OFFCURVE",
"290 623 OFFCURVE",
"292 616 CURVE",
"293 618 OFFCURVE",
"294 620 OFFCURVE",
"295 623 CURVE",
"297 621 OFFCURVE",
"299 620 OFFCURVE",
"301 617 CURVE",
"295 605 OFFCURVE",
"289 593 OFFCURVE",
"282 580 CURVE",
"282 577 OFFCURVE",
"282 572 OFFCURVE",
"280 568 CURVE SMOOTH",
"278 561 OFFCURVE",
"274 553 OFFCURVE",
"271 546 CURVE SMOOTH",
"271 544 OFFCURVE",
"270 543 OFFCURVE",
"270 543 CURVE SMOOTH",
"265 539 OFFCURVE",
"262 536 OFFCURVE",
"264 528 CURVE SMOOTH",
"265 523 OFFCURVE",
"259 516 OFFCURVE",
"256 510 CURVE SMOOTH",
"249 495 OFFCURVE",
"242 480 OFFCURVE",
"236 465 CURVE SMOOTH",
"230 450 OFFCURVE",
"224 435 OFFCURVE",
"219 420 CURVE SMOOTH",
"215 410 OFFCURVE",
"212 399 OFFCURVE",
"210 388 CURVE SMOOTH",
"208 377 OFFCURVE",
"207 365 OFFCURVE",
"207 354 CURVE SMOOTH",
"206 344 OFFCURVE",
"190 333 OFFCURVE",
"180 337 CURVE SMOOTH",
"173 339 OFFCURVE",
"167 343 OFFCURVE",
"161 346 CURVE SMOOTH",
"143 354 OFFCURVE",
"137 369 OFFCURVE",
"137 389 CURVE SMOOTH",
"137 392 OFFCURVE",
"135 395 OFFCURVE",
"134 399 CURVE SMOOTH",
"132 409 OFFCURVE",
"129 420 OFFCURVE",
"127 430 CURVE SMOOTH",
"123 442 OFFCURVE",
"120 454 OFFCURVE",
"117 466 CURVE SMOOTH",
"115 473 OFFCURVE",
"114 482 OFFCURVE",
"112 490 CURVE SMOOTH",
"110 501 OFFCURVE",
"107 513 OFFCURVE",
"104 524 CURVE SMOOTH",
"102 531 OFFCURVE",
"100 539 OFFCURVE",
"98 546 CURVE SMOOTH",
"95 557 OFFCURVE",
"92 567 OFFCURVE",
"88 580 CURVE"
);
}
);
width = 450;
}
);
unicode = 004D;
},
{
glyphname = N;
lastChange = "2020-11-29 17:04:14 +0000";
layers = (
{
layerId = "BC2BDE5E-3D40-4D25-8676-E4E66850FFEB";
paths = (
{
closed = 1;
nodes = (
"259 817 OFFCURVE",
"258 811 OFFCURVE",
"259 803 CURVE",
"260 799 OFFCURVE",
"257 795 OFFCURVE",
"255 790 CURVE",
"257 786 OFFCURVE",
"265 780 OFFCURVE",
"255 774 CURVE",
"255 756 OFFCURVE",
"255 738 OFFCURVE",
"255 718 CURVE",
"254 718 OFFCURVE",
"253 716 OFFCURVE",
"251 714 CURVE",
"248 715 OFFCURVE",
"244 717 OFFCURVE",
"243 719 CURVE",
"242 722 OFFCURVE",
"242 726 OFFCURVE",
"244 729 CURVE",
"245 733 OFFCURVE",
"248 737 OFFCURVE",
"251 742 CURVE",
"240 742 OFFCURVE",
"238 736 OFFCURVE",
"239 718 CURVE",
"244 711 OFFCURVE",
"248 706 OFFCURVE",
"252 701 CURVE",
"253 701 OFFCURVE",
"250 698 OFFCURVE",
"249 696 CURVE",
"248 694 OFFCURVE",
"247 692 OFFCURVE",
"246 690 CURVE",
"257 687 OFFCURVE",
"251 678 OFFCURVE",
"253 672 CURVE",
"244 669 OFFCURVE",
"243 662 OFFCURVE",
"249 655 CURVE",
"250 654 OFFCURVE",
"250 650 OFFCURVE",
"249 649 CURVE",
"245 643 OFFCURVE",
"245 639 OFFCURVE",
"248 636 CURVE",
"247 628 OFFCURVE",
"246 621 OFFCURVE",
"245 613 CURVE",
"248 615 OFFCURVE",
"250 615 OFFCURVE",
"252 616 CURVE",
"251 609 OFFCURVE",
"249 603 OFFCURVE",
"248 596 CURVE",
"247 585 OFFCURVE",
"247 575 OFFCURVE",
"246 564 CURVE",
"246 562 OFFCURVE",
"246 559 OFFCURVE",
"246 557 CURVE",
"247 554 OFFCURVE",
"249 551 OFFCURVE",
"251 547 CURVE",
"244 542 OFFCURVE",
"241 533 OFFCURVE",
"247 522 CURVE",
"248 524 OFFCURVE",
"250 524 OFFCURVE",
"253 526 CURVE",
"253 503 OFFCURVE",
"253 482 OFFCURVE",
"253 460 CURVE",
"253 457 OFFCURVE",
"251 453 OFFCURVE",
"248 451 CURVE",
"243 445 OFFCURVE",
"246 442 OFFCURVE",
"249 441 CURVE",
"251 433 OFFCURVE",
"252 427 OFFCURVE",
"253 422 CURVE",
"254 422 OFFCURVE",
"255 422 OFFCURVE",
"256 422 CURVE",
"253 421 OFFCURVE",
"249 419 OFFCURVE",
"245 416 CURVE",
"252 413 OFFCURVE",
"252 410 OFFCURVE",
"250 404 CURVE",
"248 395 OFFCURVE",
"250 384 OFFCURVE",
"254 377 CURVE",
"259 366 OFFCURVE",
"252 360 OFFCURVE",
"249 352 CURVE",
"251 352 OFFCURVE",
"253 351 OFFCURVE",
"254 351 CURVE",
"254 326 OFFCURVE",
"254 301 OFFCURVE",
"254 276 CURVE",
"253 276 OFFCURVE",
"250 275 OFFCURVE",
"245 274 CURVE",
"256 271 OFFCURVE",
"253 264 OFFCURVE",
"251 258 CURVE",
"249 252 OFFCURVE",
"245 246 OFFCURVE",
"255 242 CURVE",
"255 242 OFFCURVE",
"256 241 OFFCURVE",
"256 240 CURVE",
"254 234 OFFCURVE",
"252 228 OFFCURVE",
"250 221 CURVE",
"250 221 OFFCURVE",
"252 220 OFFCURVE",
"253 220 CURVE",
"254 215 OFFCURVE",
"254 211 OFFCURVE",
"255 207 CURVE",
"255 206 OFFCURVE",
"256 205 OFFCURVE",
"256 204 CURVE",
"258 192 OFFCURVE",
"260 180 OFFCURVE",
"260 168 CURVE",
"260 161 OFFCURVE",
"256 155 OFFCURVE",
"253 148 CURVE",
"250 150 OFFCURVE",
"248 150 OFFCURVE",
"246 151 CURVE",
"244 136 OFFCURVE",
"232 132 OFFCURVE",
"217 142 CURVE",
"206 150 OFFCURVE",
"198 161 OFFCURVE",
"188 171 CURVE",
"187 172 OFFCURVE",
"187 174 OFFCURVE",
"187 176 CURVE",
"189 196 OFFCURVE",
"181 214 OFFCURVE",
"171 231 CURVE",
"161 248 OFFCURVE",
"151 264 OFFCURVE",
"147 284 CURVE",
"145 292 OFFCURVE",
"139 299 OFFCURVE",
"135 308 CURVE",
"132 316 OFFCURVE",
"129 325 OFFCURVE",
"126 334 CURVE",
"122 342 OFFCURVE",
"118 349 OFFCURVE",
"115 357 CURVE",
"109 372 OFFCURVE",
"103 387 OFFCURVE",
"97 403 CURVE",
"88 424 OFFCURVE",
"77 444 OFFCURVE",
"68 465 CURVE",
"63 479 OFFCURVE",
"58 493 OFFCURVE",
"53 507 CURVE",
"52 507 OFFCURVE",
"51 507 OFFCURVE",
"50 507 CURVE",
"50 505 OFFCURVE",
"50 502 OFFCURVE",
"50 500 CURVE",
"50 482 OFFCURVE",
"49 464 OFFCURVE",
"50 445 CURVE",
"50 428 OFFCURVE",
"52 410 OFFCURVE",
"53 392 CURVE",
"54 379 OFFCURVE",
"55 367 OFFCURVE",
"57 355 CURVE",
"59 344 OFFCURVE",
"63 333 OFFCURVE",
"65 323 CURVE",
"67 318 OFFCURVE",
"69 313 OFFCURVE",
"67 310 CURVE",
"65 306 OFFCURVE",
"59 305 OFFCURVE",
"55 302 CURVE",
"55 301 OFFCURVE",
"56 299 OFFCURVE",
"57 297 CURVE",
"51 295 OFFCURVE",
"45 293 OFFCURVE",
"38 291 CURVE",
"34 297 OFFCURVE",
"28 304 OFFCURVE",
"23 312 CURVE",
"21 314 OFFCURVE",
"20 317 OFFCURVE",
"18 319 CURVE",
"13 326 OFFCURVE",
"11 331 OFFCURVE",
"11 340 CURVE",
"12 357 OFFCURVE",
"9 375 OFFCURVE",
"8 392 CURVE",
"7 406 OFFCURVE",
"7 419 OFFCURVE",
"6 433 CURVE",
"5 456 OFFCURVE",
"3 480 OFFCURVE",
"3 503 CURVE",
"3 513 OFFCURVE",
"5 522 OFFCURVE",
"6 531 CURVE",
"6 533 OFFCURVE",
"5 535 OFFCURVE",
"5 537 CURVE",
"2 548 OFFCURVE",
"1 559 OFFCURVE",
"5 570 CURVE",
"7 574 OFFCURVE",
"7 581 OFFCURVE",
"5 585 CURVE",
"1 591 OFFCURVE",
"5 595 OFFCURVE",
"6 600 CURVE",
"8 610 OFFCURVE",
"1 618 OFFCURVE",
"-3 626 CURVE",
"-9 638 OFFCURVE",
"-5 654 OFFCURVE",
"7 658 CURVE",
"11 660 OFFCURVE",
"18 659 OFFCURVE",
"23 657 CURVE",
"31 654 OFFCURVE",
"38 649 OFFCURVE",
"45 645 CURVE",
"55 638 OFFCURVE",
"57 626 OFFCURVE",
"60 615 CURVE",
"65 603 OFFCURVE",
"69 590 OFFCURVE",
"73 577 CURVE",
"77 566 OFFCURVE",
"81 555 OFFCURVE",
"86 543 CURVE",
"90 535 OFFCURVE",
"95 527 OFFCURVE",
"99 518 CURVE",
"102 510 OFFCURVE",
"104 503 OFFCURVE",
"108 495 CURVE",
"114 480 OFFCURVE",
"122 464 OFFCURVE",
"128 449 CURVE",
"131 441 OFFCURVE",
"133 433 OFFCURVE",
"137 425 CURVE",
"146 403 OFFCURVE",
"155 381 OFFCURVE",
"164 358 CURVE",
"169 347 OFFCURVE",
"175 336 OFFCURVE",
"180 325 CURVE",
"184 315 OFFCURVE",
"187 304 OFFCURVE",
"191 293 CURVE",
"192 291 OFFCURVE",
"194 289 OFFCURVE",
"196 286 CURVE",
"196 305 OFFCURVE",
"195 322 OFFCURVE",
"196 340 CURVE",
"196 356 OFFCURVE",
"198 373 OFFCURVE",
"198 389 CURVE",
"199 407 OFFCURVE",
"198 426 OFFCURVE",
"199 447 CURVE",
"192 453 OFFCURVE",
"195 464 OFFCURVE",
"197 476 CURVE",
"198 481 OFFCURVE",
"196 487 OFFCURVE",
"196 493 CURVE",
"196 499 OFFCURVE",
"195 504 OFFCURVE",
"196 509 CURVE",
"196 515 OFFCURVE",
"197 521 OFFCURVE",
"198 526 CURVE",
"199 531 OFFCURVE",
"202 535 OFFCURVE",
"202 540 CURVE",
"202 543 OFFCURVE",
"200 547 OFFCURVE",
"199 550 CURVE",
"198 553 OFFCURVE",
"197 555 OFFCURVE",
"197 558 CURVE",
"196 563 OFFCURVE",
"196 568 OFFCURVE",
"196 573 CURVE",
"196 575 OFFCURVE",
"195 576 OFFCURVE",
"195 578 CURVE",
"195 589 OFFCURVE",
"196 599 OFFCURVE",
"196 610 CURVE",
"197 610 OFFCURVE",
"199 610 OFFCURVE",
"201 609 CURVE",
"190 634 OFFCURVE",
"201 657 OFFCURVE",
"203 681 CURVE",
"203 681 OFFCURVE",
"201 682 OFFCURVE",
"199 682 CURVE",
"201 701 OFFCURVE",
"203 719 OFFCURVE",
"205 739 CURVE",
"206 739 OFFCURVE",
"209 740 OFFCURVE",
"213 741 CURVE",
"209 743 OFFCURVE",
"207 743 OFFCURVE",
"205 744 CURVE",
"207 755 OFFCURVE",
"206 766 OFFCURVE",
"206 777 CURVE",
"206 793 OFFCURVE",
"209 808 OFFCURVE",
"209 823 CURVE",
"210 840 OFFCURVE",
"210 857 OFFCURVE",
"210 874 CURVE",
"210 880 OFFCURVE",
"212 886 OFFCURVE",
"212 892 CURVE",
"211 905 OFFCURVE",
"210 918 OFFCURVE",
"209 931 CURVE",
"209 934 OFFCURVE",
"207 937 OFFCURVE",
"207 939 CURVE",
"205 944 OFFCURVE",
"202 949 OFFCURVE",
"202 954 CURVE",
"201 972 OFFCURVE",
"209 977 OFFCURVE",
"226 976 CURVE",
"239 976 OFFCURVE",
"249 969 OFFCURVE",
"259 962 CURVE",
"265 959 OFFCURVE",
"270 952 OFFCURVE",
"270 943 CURVE",
"270 942 OFFCURVE",
"271 940 OFFCURVE",
"270 940 CURVE",
"259 935 OFFCURVE",
"265 924 OFFCURVE",
"262 916 CURVE",
"260 911 OFFCURVE",
"265 904 OFFCURVE",
"267 898 CURVE",
"265 898 OFFCURVE",
"263 898 OFFCURVE",
"261 898 CURVE",
"261 895 OFFCURVE",
"261 892 OFFCURVE",
"261 889 CURVE",
"263 890 OFFCURVE",
"264 891 OFFCURVE",
"266 892 CURVE",
"267 890 OFFCURVE",
"267 888 OFFCURVE",
"267 886 CURVE",
"266 880 OFFCURVE",
"264 873 OFFCURVE",
"264 866 CURVE",
"263 857 OFFCURVE",
"261 847 OFFCURVE",
"261 838 CURVE",
"261 833 OFFCURVE",
"264 828 OFFCURVE",
"266 822 CURVE"
);
},
{
closed = 1;
nodes = (
"234 563 OFFCURVE",
"235 563 OFFCURVE",
"237 563 CURVE",
"240 579 OFFCURVE",
"239 586 OFFCURVE",
"230 588 CURVE",
"231 579 OFFCURVE",
"232 571 OFFCURVE",
"233 563 CURVE"
);
},
{
closed = 1;
nodes = (
"232 495 OFFCURVE",
"233 495 OFFCURVE",
"234 495 CURVE",
"235 502 OFFCURVE",
"237 509 OFFCURVE",
"238 516 CURVE",
"238 518 OFFCURVE",
"236 520 OFFCURVE",
"235 522 CURVE",
"234 520 OFFCURVE",
"231 519 OFFCURVE",
"231 517 CURVE",
"231 510 OFFCURVE",
"231 502 OFFCURVE",
"231 495 CURVE"
);
},
{
closed = 1;
nodes = (
"238 607 OFFCURVE",
"237 616 OFFCURVE",
"227 611 CURVE",
"229 606 OFFCURVE",
"231 602 OFFCURVE",
"233 597 CURVE",
"236 599 OFFCURVE",
"238 601 OFFCURVE",
"242 604 CURVE"
);
},
{
closed = 1;
nodes = (
"232 357 OFFCURVE",
"233 357 OFFCURVE",
"234 357 CURVE",
"233 353 OFFCURVE",
"232 350 OFFCURVE",
"232 347 CURVE",
"232 344 OFFCURVE",
"233 342 OFFCURVE",
"234 339 CURVE",
"235 339 OFFCURVE",
"235 339 OFFCURVE",
"236 340 CURVE",
"237 348 OFFCURVE",
"238 357 OFFCURVE",
"240 368 CURVE",
"236 363 OFFCURVE",
"234 360 OFFCURVE",
"231 357 CURVE"
);
},
{
closed = 1;
nodes = (
"236 688 OFFCURVE",
"237 682 OFFCURVE",
"239 675 CURVE",
"244 683 OFFCURVE",
"242 691 OFFCURVE",
"234 696 CURVE"
);
},
{
closed = 1;
nodes = (
"232 438 OFFCURVE",
"233 438 OFFCURVE",
"235 437 CURVE",
"236 441 OFFCURVE",
"237 444 OFFCURVE",
"238 447 CURVE SMOOTH",
"238 448 OFFCURVE",
"235 449 OFFCURVE",
"234 449 CURVE",
"233 446 OFFCURVE",
"231 442 OFFCURVE",
"230 439 CURVE"
);
}
);
width = 300;
}
);
unicode = 004E;
},
{
glyphname = O;
lastChange = "2020-11-29 17:04:21 +0000";
layers = (
{
layerId = "BC2BDE5E-3D40-4D25-8676-E4E66850FFEB";
paths = (
{
closed = 1;
nodes = (
"234 459 OFFCURVE",
"232 459 OFFCURVE",
"229 459 CURVE",
"228 451 OFFCURVE",
"229 450 OFFCURVE",
"239 453 CURVE",
"236 446 OFFCURVE",
"233 441 OFFCURVE",
"231 435 CURVE",
"230 432 OFFCURVE",
"229 428 OFFCURVE",
"228 425 CURVE",
"229 424 OFFCURVE",
"230 424 OFFCURVE",
"231 424 CURVE",
"229 423 OFFCURVE",
"227 422 OFFCURVE",
"225 422 CURVE",
"229 412 OFFCURVE",
"218 412 OFFCURVE",
"216 406 CURVE",
"226 401 OFFCURVE",
"218 395 OFFCURVE",
"215 391 CURVE",
"204 375 OFFCURVE",
"193 360 OFFCURVE",
"181 346 CURVE",
"177 340 OFFCURVE",
"170 336 OFFCURVE",
"165 332 CURVE",
"163 330 OFFCURVE",
"163 327 OFFCURVE",
"161 325 CURVE",
"149 316 OFFCURVE",
"137 308 OFFCURVE",
"121 305 CURVE",
"116 304 OFFCURVE",
"110 301 OFFCURVE",
"105 299 CURVE",
"91 292 OFFCURVE",
"79 298 OFFCURVE",
"66 301 CURVE",
"44 307 OFFCURVE",
"32 325 OFFCURVE",
"20 339 CURVE",
"6 355 OFFCURVE",
"-2 375 OFFCURVE",
"-2 398 CURVE",
"-1 428 OFFCURVE",
"6 455 OFFCURVE",
"20 481 CURVE",
"22 486 OFFCURVE",
"25 491 OFFCURVE",
"27 496 CURVE",
"28 497 OFFCURVE",
"28 499 OFFCURVE",
"28 500 CURVE",
"18 511 OFFCURVE",
"31 519 OFFCURVE",
"33 527 CURVE",
"36 536 OFFCURVE",
"41 543 OFFCURVE",
"46 551 CURVE",
"49 554 OFFCURVE",
"54 555 OFFCURVE",
"56 557 CURVE",
"70 576 OFFCURVE",
"90 587 OFFCURVE",
"109 599 CURVE",
"117 604 OFFCURVE",
"127 605 OFFCURVE",
"136 608 CURVE",
"140 609 OFFCURVE",
"144 611 OFFCURVE",
"148 611 CURVE",
"155 610 OFFCURVE",
"163 609 OFFCURVE",
"171 607 CURVE",
"181 605 OFFCURVE",
"191 601 OFFCURVE",
"201 597 CURVE",
"206 595 OFFCURVE",
"210 592 OFFCURVE",
"214 588 CURVE",
"227 573 OFFCURVE",
"240 558 OFFCURVE",
"239 535 CURVE",
"238 525 OFFCURVE",
"241 515 OFFCURVE",
"242 505 CURVE",
"242 493 OFFCURVE",
"242 482 OFFCURVE",
"241 471 CURVE",
"241 467 OFFCURVE",
"239 463 OFFCURVE",
"237 459 CURVE"
);
},
{
closed = 1;
nodes = (
"100 472 OFFCURVE",
"99 474 OFFCURVE",
"97 475 CURVE SMOOTH",
"91 479 OFFCURVE",
"85 480 OFFCURVE",
"81 473 CURVE SMOOTH",
"76 465 OFFCURVE",
"72 457 OFFCURVE",
"68 448 CURVE SMOOTH",
"64 439 OFFCURVE",
"60 430 OFFCURVE",
"58 420 CURVE SMOOTH",
"56 410 OFFCURVE",
"55 400 OFFCURVE",
"54 390 CURVE SMOOTH",
"54 389 OFFCURVE",
"54 388 OFFCURVE",
"54 388 CURVE SMOOTH",
"55 384 OFFCURVE",
"56 379 OFFCURVE",
"57 375 CURVE SMOOTH",
"58 370 OFFCURVE",
"59 363 OFFCURVE",
"61 359 CURVE SMOOTH",
"64 354 OFFCURVE",
"69 348 OFFCURVE",
"74 347 CURVE SMOOTH",
"85 344 OFFCURVE",
"95 346 OFFCURVE",
"105 353 CURVE SMOOTH",
"117 362 OFFCURVE",
"130 371 OFFCURVE",
"140 383 CURVE SMOOTH",
"146 390 OFFCURVE",
"153 396 OFFCURVE",
"157 405 CURVE SMOOTH",
"166 421 OFFCURVE",
"176 435 OFFCURVE",
"182 453 CURVE SMOOTH",
"188 472 OFFCURVE",
"192 491 OFFCURVE",
"194 511 CURVE SMOOTH",
"196 523 OFFCURVE",
"194 535 OFFCURVE",
"191 546 CURVE SMOOTH",
"188 561 OFFCURVE",
"187 561 OFFCURVE",
"171 560 CURVE SMOOTH",
"164 560 OFFCURVE",
"157 559 OFFCURVE",
"149 557 CURVE SMOOTH",
"141 555 OFFCURVE",
"133 553 OFFCURVE",
"126 549 CURVE SMOOTH",
"121 547 OFFCURVE",
"114 544 OFFCURVE",
"122 537 CURVE SMOOTH",
"123 536 OFFCURVE",
"124 533 OFFCURVE",
"125 531 CURVE SMOOTH",
"132 523 OFFCURVE",
"131 512 OFFCURVE",
"123 504 CURVE SMOOTH",
"118 500 OFFCURVE",
"115 494 OFFCURVE",
"112 488 CURVE SMOOTH",
"109 482 OFFCURVE",
"106 476 OFFCURVE",
"103 469 CURVE"
);
}
);
width = 300;
}
);
unicode = 004F;
},
{
glyphname = P;
lastChange = "2020-11-29 17:04:34 +0000";
layers = (
{
layerId = "BC2BDE5E-3D40-4D25-8676-E4E66850FFEB";
paths = (
{
closed = 1;
nodes = (
"73 410 OFFCURVE",
"76 406 OFFCURVE",
"76 401 CURVE",
"76 390 OFFCURVE",
"74 380 OFFCURVE",
"74 369 CURVE",
"74 366 OFFCURVE",
"76 362 OFFCURVE",
"76 359 CURVE",
"77 341 OFFCURVE",
"76 323 OFFCURVE",
"77 305 CURVE",
"77 291 OFFCURVE",
"79 277 OFFCURVE",
"80 263 CURVE",
"80 260 OFFCURVE",
"80 258 OFFCURVE",
"80 257 CURVE",
"75 253 OFFCURVE",
"71 250 OFFCURVE",
"67 246 CURVE",
"62 242 OFFCURVE",
"58 240 OFFCURVE",
"51 243 CURVE",
"35 250 OFFCURVE",
"18 274 OFFCURVE",
"19 288 CURVE",
"19 294 OFFCURVE",
"21 301 OFFCURVE",
"22 307 CURVE",
"22 311 OFFCURVE",
"20 314 OFFCURVE",
"20 318 CURVE",
"20 325 OFFCURVE",
"20 333 OFFCURVE",
"20 340 CURVE",
"21 344 OFFCURVE",
"22 347 OFFCURVE",
"22 351 CURVE",
"21 364 OFFCURVE",
"20 378 OFFCURVE",
"18 392 CURVE",
"18 397 OFFCURVE",
"16 402 OFFCURVE",
"15 408 CURVE",
"15 408 OFFCURVE",
"15 408 OFFCURVE",
"15 409 CURVE",
"25 425 OFFCURVE",
"7 437 OFFCURVE",
"10 452 CURVE",
"10 456 OFFCURVE",
"14 460 OFFCURVE",
"15 464 CURVE",
"17 469 OFFCURVE",
"20 474 OFFCURVE",
"18 477 CURVE",
"14 484 OFFCURVE",
"19 491 OFFCURVE",
"18 498 CURVE",
"17 506 OFFCURVE",
"18 515 OFFCURVE",
"19 523 CURVE",
"19 529 OFFCURVE",
"22 534 OFFCURVE",
"21 539 CURVE",
"21 547 OFFCURVE",
"19 554 OFFCURVE",
"16 561 CURVE",
"12 571 OFFCURVE",
"15 579 OFFCURVE",
"24 584 CURVE",
"25 585 OFFCURVE",
"26 588 OFFCURVE",
"26 588 CURVE",
"32 590 OFFCURVE",
"37 590 OFFCURVE",
"42 592 CURVE",
"54 598 OFFCURVE",
"66 605 OFFCURVE",
"78 609 CURVE",
"89 612 OFFCURVE",
"101 617 OFFCURVE",
"113 611 CURVE",
"116 610 OFFCURVE",
"120 611 OFFCURVE",
"123 610 CURVE",
"133 608 OFFCURVE",
"144 606 OFFCURVE",
"153 602 CURVE",
"160 598 OFFCURVE",
"166 592 OFFCURVE",
"170 585 CURVE",
"176 577 OFFCURVE",
"181 567 OFFCURVE",
"184 558 CURVE",
"186 551 OFFCURVE",
"185 544 OFFCURVE",
"185 536 CURVE",
"186 518 OFFCURVE",
"180 501 OFFCURVE",
"169 486 CURVE",
"165 480 OFFCURVE",
"162 474 OFFCURVE",
"157 468 CURVE",
"151 457 OFFCURVE",
"141 451 OFFCURVE",
"131 444 CURVE",
"123 438 OFFCURVE",
"114 432 OFFCURVE",
"106 427 CURVE",
"101 424 OFFCURVE",
"95 423 OFFCURVE",
"89 421 CURVE",
"84 419 OFFCURVE",
"78 418 OFFCURVE",
"72 416 CURVE"
);
},
{
closed = 1;
nodes = (
"74 478 OFFCURVE",
"74 477 OFFCURVE",
"75 476 CURVE",
"84 482 OFFCURVE",
"92 487 OFFCURVE",
"100 494 CURVE SMOOTH",
"106 499 OFFCURVE",
"110 506 OFFCURVE",
"115 512 CURVE SMOOTH",
"117 514 OFFCURVE",
"119 516 OFFCURVE",
"120 519 CURVE SMOOTH",
"123 528 OFFCURVE",
"124 539 OFFCURVE",
"128 547 CURVE SMOOTH",
"132 554 OFFCURVE",
"128 556 OFFCURVE",
"124 559 CURVE SMOOTH",
"119 564 OFFCURVE",
"113 563 OFFCURVE",
"107 558 CURVE SMOOTH",
"105 557 OFFCURVE",
"103 555 OFFCURVE",
"101 555 CURVE SMOOTH",
"90 554 OFFCURVE",
"84 548 OFFCURVE",
"83 537 CURVE SMOOTH",
"83 535 OFFCURVE",
"82 533 OFFCURVE",
"82 532 CURVE SMOOTH",
"80 518 OFFCURVE",
"73 506 OFFCURVE",
"76 492 CURVE SMOOTH",
"77 490 OFFCURVE",
"75 488 OFFCURVE",
"74 486 CURVE SMOOTH",
"74 484 OFFCURVE",
"73 481 OFFCURVE",
"73 479 CURVE"
);
}
);
width = 230;
}
);
unicode = 0050;
},
{
glyphname = Q;
lastChange = "2020-11-29 17:04:43 +0000";
layers = (
{
layerId = "BC2BDE5E-3D40-4D25-8676-E4E66850FFEB";
paths = (
{
closed = 1;
nodes = (
"109 320 OFFCURVE",
"103 318 OFFCURVE",
"96 316 CURVE",
"89 315 OFFCURVE",
"82 315 OFFCURVE",
"76 316 CURVE",
"59 319 OFFCURVE",
"42 322 OFFCURVE",
"33 339 CURVE",
"29 346 OFFCURVE",
"23 352 OFFCURVE",
"18 359 CURVE",
"16 360 OFFCURVE",
"14 360 OFFCURVE",
"13 360 CURVE",
"11 365 OFFCURVE",
"9 369 OFFCURVE",
"8 373 CURVE",
"3 385 OFFCURVE",
"0 397 OFFCURVE",
"0 411 CURVE",
"1 417 OFFCURVE",
"1 423 OFFCURVE",
"1 430 CURVE",
"0 444 OFFCURVE",
"5 457 OFFCURVE",
"7 471 CURVE",
"12 495 OFFCURVE",
"21 516 OFFCURVE",
"33 537 CURVE",
"42 551 OFFCURVE",
"49 565 OFFCURVE",
"64 575 CURVE",
"73 580 OFFCURVE",
"76 592 OFFCURVE",
"72 605 CURVE",
"71 608 OFFCURVE",
"70 611 OFFCURVE",
"70 614 CURVE",
"68 632 OFFCURVE",
"67 650 OFFCURVE",
"64 668 CURVE",
"63 680 OFFCURVE",
"59 691 OFFCURVE",
"56 703 CURVE",
"54 711 OFFCURVE",
"53 720 OFFCURVE",
"51 728 CURVE",
"50 733 OFFCURVE",
"48 739 OFFCURVE",
"45 745 CURVE",
"39 754 OFFCURVE",
"40 769 OFFCURVE",
"46 777 CURVE",
"51 783 OFFCURVE",
"63 785 OFFCURVE",
"70 782 CURVE",
"75 780 OFFCURVE",
"80 777 OFFCURVE",
"84 777 CURVE",
"101 776 OFFCURVE",
"113 758 OFFCURVE",
"113 744 CURVE",
"113 731 OFFCURVE",
"112 717 OFFCURVE",
"113 704 CURVE",
"114 695 OFFCURVE",
"116 685 OFFCURVE",
"117 675 CURVE",
"118 667 OFFCURVE",
"119 659 OFFCURVE",
"120 651 CURVE",
"121 648 OFFCURVE",
"122 644 OFFCURVE",
"123 640 CURVE",
"123 639 OFFCURVE",
"124 637 OFFCURVE",
"124 635 CURVE",
"120 626 OFFCURVE",
"126 619 OFFCURVE",
"127 611 CURVE",
"128 603 OFFCURVE",
"127 594 OFFCURVE",
"127 585 CURVE",
"148 586 OFFCURVE",
"164 578 OFFCURVE",
"181 569 CURVE",
"194 562 OFFCURVE",
"203 550 OFFCURVE",
"211 538 CURVE",
"214 533 OFFCURVE",
"217 528 OFFCURVE",
"219 523 CURVE",
"222 516 OFFCURVE",
"225 508 OFFCURVE",
"225 501 CURVE",
"226 484 OFFCURVE",
"226 467 OFFCURVE",
"225 451 CURVE",
"225 444 OFFCURVE",
"223 437 OFFCURVE",
"221 430 CURVE",
"220 425 OFFCURVE",
"219 419 OFFCURVE",
"216 415 CURVE",
"213 408 OFFCURVE",
"208 401 OFFCURVE",
"204 395 CURVE",
"202 393 OFFCURVE",
"198 393 OFFCURVE",
"193 392 CURVE",
"193 393 OFFCURVE",
"193 391 OFFCURVE",
"193 390 CURVE",
"199 385 OFFCURVE",
"196 382 OFFCURVE",
"190 380 CURVE",
"188 379 OFFCURVE",
"186 376 OFFCURVE",
"186 375 CURVE",
"187 365 OFFCURVE",
"178 362 OFFCURVE",
"174 357 CURVE",
"168 351 OFFCURVE",
"165 342 OFFCURVE",
"169 335 CURVE",
"169 334 OFFCURVE",
"171 333 OFFCURVE",
"170 333 CURVE",
"167 323 OFFCURVE",
"174 316 OFFCURVE",
"175 308 CURVE",
"176 298 OFFCURVE",
"179 288 OFFCURVE",
"181 279 CURVE",
"183 272 OFFCURVE",
"184 265 OFFCURVE",
"186 258 CURVE",
"188 246 OFFCURVE",
"191 233 OFFCURVE",
"194 220 CURVE",
"195 216 OFFCURVE",
"195 212 OFFCURVE",
"196 207 CURVE",
"198 200 OFFCURVE",
"200 193 OFFCURVE",
"202 185 CURVE",
"204 178 OFFCURVE",
"205 170 OFFCURVE",
"207 163 CURVE",
"210 153 OFFCURVE",
"213 143 OFFCURVE",
"215 133 CURVE",
"221 116 OFFCURVE",
"227 99 OFFCURVE",
"230 81 CURVE",
"232 67 OFFCURVE",
"238 53 OFFCURVE",
"243 39 CURVE",
"246 28 OFFCURVE",
"248 17 OFFCURVE",
"251 6 CURVE",
"254 -4 OFFCURVE",
"259 -14 OFFCURVE",
"262 -24 CURVE",
"266 -33 OFFCURVE",
"269 -42 OFFCURVE",
"273 -50 CURVE",
"277 -61 OFFCURVE",
"281 -72 OFFCURVE",
"285 -83 CURVE",
"287 -88 OFFCURVE",
"289 -93 OFFCURVE",
"290 -99 CURVE",
"296 -119 OFFCURVE",
"300 -140 OFFCURVE",
"306 -160 CURVE",
"308 -169 OFFCURVE",
"312 -178 OFFCURVE",
"317 -187 CURVE",
"324 -201 OFFCURVE",
"320 -213 OFFCURVE",
"305 -217 CURVE",
"301 -219 OFFCURVE",
"297 -221 OFFCURVE",
"293 -223 CURVE",
"286 -226 OFFCURVE",
"277 -223 OFFCURVE",
"273 -217 CURVE",
"272 -216 OFFCURVE",
"271 -214 OFFCURVE",
"271 -214 CURVE",
"256 -213 OFFCURVE",
"255 -199 OFFCURVE",
"248 -191 CURVE",
"246 -188 OFFCURVE",
"248 -182 OFFCURVE",
"249 -178 CURVE",
"249 -175 OFFCURVE",
"251 -173 OFFCURVE",
"251 -171 CURVE",
"247 -156 OFFCURVE",
"242 -141 OFFCURVE",
"238 -126 CURVE",
"236 -119 OFFCURVE",
"235 -113 OFFCURVE",
"233 -106 CURVE",
"229 -94 OFFCURVE",
"226 -82 OFFCURVE",
"222 -70 CURVE",
"215 -49 OFFCURVE",
"207 -29 OFFCURVE",
"201 -8 CURVE",
"197 4 OFFCURVE",
"196 17 OFFCURVE",
"192 29 CURVE",
"189 43 OFFCURVE",
"183 57 OFFCURVE",
"179 71 CURVE",
"177 76 OFFCURVE",
"176 83 OFFCURVE",
"175 88 CURVE",
"171 102 OFFCURVE",
"168 115 OFFCURVE",
"164 129 CURVE",
"160 143 OFFCURVE",
"157 157 OFFCURVE",
"153 171 CURVE",
"149 184 OFFCURVE",
"145 197 OFFCURVE",
"142 210 CURVE",
"140 218 OFFCURVE",
"140 226 OFFCURVE",
"138 234 CURVE",
"137 239 OFFCURVE",
"136 243 OFFCURVE",
"135 248 CURVE",
"130 270 OFFCURVE",
"125 291 OFFCURVE",
"120 313 CURVE",
"119 316 OFFCURVE",
"117 319 OFFCURVE",
"116 323 CURVE"
);
},
{
closed = 1;
nodes = (
"79 500 OFFCURVE",
"72 492 OFFCURVE",
"69 482 CURVE",
"67 472 OFFCURVE",
"62 463 OFFCURVE",
"59 453 CURVE",
"56 443 OFFCURVE",
"53 433 OFFCURVE",
"53 422 CURVE",
"52 411 OFFCURVE",
"54 399 OFFCURVE",
"55 387 CURVE",
"55 378 OFFCURVE",
"58 371 OFFCURVE",
"65 366 CURVE",
"67 364 OFFCURVE",
"71 363 OFFCURVE",
"73 364 CURVE",
"82 366 OFFCURVE",
"90 371 OFFCURVE",
"99 373 CURVE",
"108 375 OFFCURVE",
"106 381 OFFCURVE",
"105 387 CURVE",
"103 402 OFFCURVE",
"101 417 OFFCURVE",
"98 432 CURVE",
"97 438 OFFCURVE",
"97 444 OFFCURVE",
"95 450 CURVE",
"94 456 OFFCURVE",
"92 461 OFFCURVE",
"91 466 CURVE",
"90 478 OFFCURVE",
"89 489 OFFCURVE",
"87 501 CURVE"
);
},
{
closed = 1;
nodes = (
"156 424 OFFCURVE",
"156 427 OFFCURVE",
"158 428 CURVE SMOOTH",
"169 438 OFFCURVE",
"172 451 OFFCURVE",
"174 464 CURVE SMOOTH",
"177 480 OFFCURVE",
"179 496 OFFCURVE",
"174 512 CURVE SMOOTH",
"172 519 OFFCURVE",
"168 525 OFFCURVE",
"164 531 CURVE SMOOTH",
"162 533 OFFCURVE",
"156 532 OFFCURVE",
"154 534 CURVE SMOOTH",
"149 540 OFFCURVE",
"146 536 OFFCURVE",
"143 533 CURVE SMOOTH",
"138 525 OFFCURVE",
"137 516 OFFCURVE",
"140 506 CURVE SMOOTH",
"142 497 OFFCURVE",
"144 487 OFFCURVE",
"146 478 CURVE SMOOTH",
"147 466 OFFCURVE",
"148 454 OFFCURVE",
"150 443 CURVE SMOOTH",
"151 436 OFFCURVE",
"153 429 OFFCURVE",
"155 421 CURVE"
);
}
);
width = 270;
}
);
unicode = 0051;
},
{
glyphname = R;
lastChange = "2020-11-29 17:04:50 +0000";
layers = (
{
layerId = "BC2BDE5E-3D40-4D25-8676-E4E66850FFEB";
paths = (
{
closed = 1;
nodes = (
"394 -93 OFFCURVE",
"390 -95 OFFCURVE",
"386 -98 CURVE",
"378 -105 OFFCURVE",
"374 -106 OFFCURVE",
"365 -101 CURVE",
"357 -97 OFFCURVE",
"350 -92 OFFCURVE",
"343 -86 CURVE",
"341 -85 OFFCURVE",
"340 -81 OFFCURVE",
"340 -79 CURVE",
"339 -75 OFFCURVE",
"339 -72 OFFCURVE",
"334 -70 CURVE",
"331 -68 OFFCURVE",
"331 -62 OFFCURVE",
"329 -58 CURVE",
"321 -45 OFFCURVE",
"313 -32 OFFCURVE",
"305 -19 CURVE",
"292 2 OFFCURVE",
"280 24 OFFCURVE",
"267 45 CURVE",
"261 56 OFFCURVE",
"254 66 OFFCURVE",
"249 76 CURVE",
"239 95 OFFCURVE",
"229 113 OFFCURVE",
"220 132 CURVE",
"212 148 OFFCURVE",
"203 164 OFFCURVE",
"196 181 CURVE",
"185 203 OFFCURVE",
"175 226 OFFCURVE",
"165 249 CURVE",
"159 264 OFFCURVE",
"154 279 OFFCURVE",
"146 294 CURVE",
"135 316 OFFCURVE",
"123 338 OFFCURVE",
"110 359 CURVE",
"104 369 OFFCURVE",
"96 378 OFFCURVE",
"89 388 CURVE",
"83 397 OFFCURVE",
"76 406 OFFCURVE",
"68 416 CURVE",
"68 413 OFFCURVE",
"67 411 OFFCURVE",
"67 409 CURVE",
"67 392 OFFCURVE",
"67 375 OFFCURVE",
"67 358 CURVE",
"68 349 OFFCURVE",
"70 339 OFFCURVE",
"71 330 CURVE",
"72 324 OFFCURVE",
"73 318 OFFCURVE",
"75 313 CURVE",
"76 308 OFFCURVE",
"76 302 OFFCURVE",
"79 298 CURVE",
"86 283 OFFCURVE",
"83 278 OFFCURVE",
"69 271 CURVE",
"64 269 OFFCURVE",
"61 264 OFFCURVE",
"57 262 CURVE",
"54 261 OFFCURVE",
"51 260 OFFCURVE",
"48 260 CURVE",
"28 266 OFFCURVE",
"13 287 OFFCURVE",
"13 308 CURVE",
"12 333 OFFCURVE",
"11 358 OFFCURVE",
"9 382 CURVE",
"7 391 OFFCURVE",
"10 401 OFFCURVE",
"9 410 CURVE",
"2 454 OFFCURVE",
"7 499 OFFCURVE",
"6 543 CURVE",
"6 547 OFFCURVE",
"8 550 OFFCURVE",
"8 554 CURVE",
"8 559 OFFCURVE",
"7 564 OFFCURVE",
"6 569 CURVE",
"5 576 OFFCURVE",
"4 583 OFFCURVE",
"2 591 CURVE",
"2 592 OFFCURVE",
"2 593 OFFCURVE",
"2 594 CURVE",
"9 605 OFFCURVE",
"6 616 OFFCURVE",
"3 627 CURVE",
"2 632 OFFCURVE",
"6 639 OFFCURVE",
"10 642 CURVE",
"14 644 OFFCURVE",
"21 643 OFFCURVE",
"27 643 CURVE",
"29 643 OFFCURVE",
"32 641 OFFCURVE",
"35 641 CURVE",
"48 642 OFFCURVE",
"56 634 OFFCURVE",
"63 625 CURVE",
"66 621 OFFCURVE",
"70 619 OFFCURVE",
"75 619 CURVE",
"84 619 OFFCURVE",
"94 619 OFFCURVE",
"104 618 CURVE",
"122 616 OFFCURVE",
"139 611 OFFCURVE",
"152 600 CURVE",
"166 588 OFFCURVE",
"170 567 OFFCURVE",
"161 551 CURVE",
"160 549 OFFCURVE",
"158 548 OFFCURVE",
"158 546 CURVE",
"160 533 OFFCURVE",
"151 524 OFFCURVE",
"148 512 CURVE",
"146 499 OFFCURVE",
"136 492 OFFCURVE",
"129 483 CURVE",
"122 474 OFFCURVE",
"115 467 OFFCURVE",
"108 459 CURVE",
"107 457 OFFCURVE",
"107 454 OFFCURVE",
"108 452 CURVE",
"116 438 OFFCURVE",
"125 425 OFFCURVE",
"133 411 CURVE",
"135 408 OFFCURVE",
"138 405 OFFCURVE",
"141 402 CURVE",
"158 380 OFFCURVE",
"172 355 OFFCURVE",
"184 330 CURVE",
"195 308 OFFCURVE",
"205 285 OFFCURVE",
"216 263 CURVE",
"224 246 OFFCURVE",
"233 228 OFFCURVE",
"241 211 CURVE",
"249 194 OFFCURVE",
"258 178 OFFCURVE",
"266 161 CURVE",
"272 149 OFFCURVE",
"276 136 OFFCURVE",
"282 124 CURVE",
"285 117 OFFCURVE",
"290 110 OFFCURVE",
"294 103 CURVE",
"302 90 OFFCURVE",
"310 77 OFFCURVE",
"317 63 CURVE",
"330 34 OFFCURVE",
"350 9 OFFCURVE",
"366 -17 CURVE",
"375 -32 OFFCURVE",
"389 -44 OFFCURVE",
"401 -57 CURVE",
"405 -61 OFFCURVE",
"407 -76 OFFCURVE",
"404 -84 CURVE",
"402 -86 OFFCURVE",
"401 -88 OFFCURVE",
"400 -91 CURVE",
"400 -90 OFFCURVE",
"399 -90 OFFCURVE",
"399 -90 CURVE"
);
},
{
closed = 1;
nodes = (
"65 507 OFFCURVE",
"65 507 OFFCURVE",
"66 507 CURVE",
"81 525 OFFCURVE",
"100 541 OFFCURVE",
"104 568 CURVE",
"97 568 OFFCURVE",
"91 568 OFFCURVE",
"86 568 CURVE SMOOTH",
"76 567 OFFCURVE",
"64 556 OFFCURVE",
"64 547 CURVE SMOOTH",
"63 534 OFFCURVE",
"64 521 OFFCURVE",
"64 508 CURVE"
);
}
);
width = 230;
}
);
unicode = 0052;
},
{
glyphname = S;
lastChange = "2020-11-29 17:04:59 +0000";
layers = (
{
layerId = "BC2BDE5E-3D40-4D25-8676-E4E66850FFEB";
paths = (
{
closed = 1;
nodes = (
"118 693 OFFCURVE",
"113 686 OFFCURVE",
"108 679 CURVE SMOOTH",
"106 675 OFFCURVE",
"105 670 OFFCURVE",
"104 666 CURVE SMOOTH",
"100 649 OFFCURVE",
"93 632 OFFCURVE",
"96 614 CURVE SMOOTH",
"98 598 OFFCURVE",
"101 583 OFFCURVE",
"103 568 CURVE SMOOTH",
"104 559 OFFCURVE",
"104 551 OFFCURVE",
"105 542 CURVE SMOOTH",
"106 535 OFFCURVE",
"106 528 OFFCURVE",
"107 521 CURVE SMOOTH",
"108 518 OFFCURVE",
"111 516 OFFCURVE",
"112 516 CURVE",
"112 511 OFFCURVE",
"112 508 OFFCURVE",
"113 505 CURVE SMOOTH",
"114 499 OFFCURVE",
"116 494 OFFCURVE",
"117 488 CURVE SMOOTH",
"120 476 OFFCURVE",
"123 464 OFFCURVE",
"125 452 CURVE SMOOTH",
"125 451 OFFCURVE",
"125 449 OFFCURVE",
"126 449 CURVE SMOOTH",
"135 438 OFFCURVE",
"135 423 OFFCURVE",
"140 411 CURVE SMOOTH",
"145 396 OFFCURVE",
"151 381 OFFCURVE",
"157 367 CURVE SMOOTH",
"159 361 OFFCURVE",
"160 354 OFFCURVE",
"161 348 CURVE SMOOTH",
"162 344 OFFCURVE",
"164 340 OFFCURVE",
"165 336 CURVE SMOOTH",
"167 321 OFFCURVE",
"169 307 OFFCURVE",
"172 292 CURVE SMOOTH",
"175 280 OFFCURVE",
"179 267 OFFCURVE",
"181 255 CURVE SMOOTH",
"182 246 OFFCURVE",
"181 237 OFFCURVE",
"182 228 CURVE SMOOTH",
"182 225 OFFCURVE",
"182 222 OFFCURVE",
"182 220 CURVE SMOOTH",
"181 216 OFFCURVE",
"181 212 OFFCURVE",
"181 208 CURVE SMOOTH",
"180 206 OFFCURVE",
"179 204 OFFCURVE",
"180 202 CURVE SMOOTH",
"186 192 OFFCURVE",
"179 185 OFFCURVE",
"175 177 CURVE SMOOTH",
"169 162 OFFCURVE",
"162 148 OFFCURVE",
"155 133 CURVE",
"150 130 OFFCURVE",
"145 124 OFFCURVE",
"138 122 CURVE SMOOTH",
"125 118 OFFCURVE",
"116 103 OFFCURVE",
"100 106 CURVE SMOOTH",
"99 106 OFFCURVE",
"98 106 OFFCURVE",
"97 106 CURVE SMOOTH",
"80 93 OFFCURVE",
"61 99 OFFCURVE",
"42 100 CURVE SMOOTH",
"32 101 OFFCURVE",
"22 107 OFFCURVE",
"14 116 CURVE SMOOTH",
"4 128 OFFCURVE",
"-6 139 OFFCURVE",
"-11 153 CURVE SMOOTH",
"-15 166 OFFCURVE",
"-18 177 OFFCURVE",
"-14 191 CURVE SMOOTH",
"-11 201 OFFCURVE",
"-11 212 OFFCURVE",
"-6 222 CURVE SMOOTH",
"0 232 OFFCURVE",
"7 241 OFFCURVE",
"14 251 CURVE SMOOTH",
"17 256 OFFCURVE",
"21 257 OFFCURVE",
"25 250 CURVE SMOOTH",
"27 247 OFFCURVE",
"30 241 OFFCURVE",
"36 247 CURVE SMOOTH",
"37 248 OFFCURVE",
"41 246 OFFCURVE",
"43 244 CURVE SMOOTH",
"47 241 OFFCURVE",
"51 238 OFFCURVE",
"58 235 CURVE",
"56 229 OFFCURVE",
"53 224 OFFCURVE",
"51 219 CURVE SMOOTH",
"50 216 OFFCURVE",
"51 211 OFFCURVE",
"53 209 CURVE SMOOTH",
"56 205 OFFCURVE",
"56 203 OFFCURVE",
"53 199 CURVE SMOOTH",
"51 196 OFFCURVE",
"50 191 OFFCURVE",
"49 187 CURVE SMOOTH",
"47 179 OFFCURVE",
"46 170 OFFCURVE",
"46 162 CURVE SMOOTH",
"45 154 OFFCURVE",
"53 150 OFFCURVE",
"61 153 CURVE SMOOTH",
"67 156 OFFCURVE",
"74 157 OFFCURVE",
"79 161 CURVE SMOOTH",
"85 166 OFFCURVE",
"90 173 OFFCURVE",
"96 179 CURVE SMOOTH",
"107 187 OFFCURVE",
"108 201 OFFCURVE",
"112 212 CURVE SMOOTH",
"115 221 OFFCURVE",
"121 231 OFFCURVE",
"115 242 CURVE SMOOTH",
"113 246 OFFCURVE",
"114 251 OFFCURVE",
"114 256 CURVE SMOOTH",
"115 273 OFFCURVE",
"113 289 OFFCURVE",
"107 305 CURVE SMOOTH",
"104 316 OFFCURVE",
"103 329 OFFCURVE",
"100 340 CURVE SMOOTH",
"94 362 OFFCURVE",
"88 384 OFFCURVE",
"81 405 CURVE SMOOTH",
"75 424 OFFCURVE",
"67 443 OFFCURVE",
"60 462 CURVE SMOOTH",
"57 473 OFFCURVE",
"54 485 OFFCURVE",
"53 497 CURVE SMOOTH",
"50 514 OFFCURVE",
"48 533 OFFCURVE",
"45 550 CURVE SMOOTH",
"42 567 OFFCURVE",
"37 584 OFFCURVE",
"35 601 CURVE SMOOTH",
"33 612 OFFCURVE",
"35 624 OFFCURVE",
"34 635 CURVE SMOOTH",
"34 640 OFFCURVE",
"32 644 OFFCURVE",
"32 649 CURVE SMOOTH",
"32 653 OFFCURVE",
"34 656 OFFCURVE",
"34 660 CURVE SMOOTH",
"36 677 OFFCURVE",
"41 693 OFFCURVE",
"49 708 CURVE SMOOTH",
"53 716 OFFCURVE",
"58 723 OFFCURVE",
"61 730 CURVE SMOOTH",
"70 751 OFFCURVE",
"89 759 OFFCURVE",
"106 770 CURVE SMOOTH",
"124 782 OFFCURVE",
"140 773 OFFCURVE",
"156 766 CURVE SMOOTH",
"164 763 OFFCURVE",
"172 757 OFFCURVE",
"178 751 CURVE SMOOTH",
"183 747 OFFCURVE",
"183 739 OFFCURVE",
"187 735 CURVE SMOOTH",
"193 728 OFFCURVE",
"192 720 OFFCURVE",
"194 712 CURVE SMOOTH",
"194 710 OFFCURVE",
"191 707 OFFCURVE",
"191 705 CURVE SMOOTH",
"188 697 OFFCURVE",
"186 688 OFFCURVE",
"183 681 CURVE SMOOTH",
"182 677 OFFCURVE",
"179 674 OFFCURVE",
"177 672 CURVE SMOOTH",
"171 666 OFFCURVE",
"165 662 OFFCURVE",
"159 657 CURVE SMOOTH",
"150 650 OFFCURVE",
"143 656 OFFCURVE",
"139 666 CURVE SMOOTH",
"139 668 OFFCURVE",
"138 671 OFFCURVE",
"136 672 CURVE SMOOTH",
"127 678 OFFCURVE",
"124 686 OFFCURVE",
"125 696 CURVE SMOOTH",
"125 697 OFFCURVE",
"124 699 OFFCURVE",
"124 700 CURVE"
);
}
);
width = 200;
}
);
unicode = 0053;
},
{
glyphname = T;
lastChange = "2020-11-29 17:05:18 +0000";
layers = (
{
layerId = "BC2BDE5E-3D40-4D25-8676-E4E66850FFEB";
paths = (
{
closed = 1;
nodes = (
"165 658 OFFCURVE",
"165 648 OFFCURVE",
"165 637 CURVE",
"164 627 OFFCURVE",
"162 618 OFFCURVE",
"162 608 CURVE",
"162 602 OFFCURVE",
"164 596 OFFCURVE",
"164 589 CURVE",
"164 527 OFFCURVE",
"165 464 OFFCURVE",
"165 402 CURVE",
"165 390 OFFCURVE",
"165 378 OFFCURVE",
"165 367 CURVE",
"166 337 OFFCURVE",
"167 307 OFFCURVE",
"169 278 CURVE",
"169 257 OFFCURVE",
"171 236 OFFCURVE",
"172 216 CURVE",
"173 201 OFFCURVE",
"174 186 OFFCURVE",
"176 171 CURVE",
"178 154 OFFCURVE",
"180 138 OFFCURVE",
"183 121 CURVE",
"183 117 OFFCURVE",
"182 113 OFFCURVE",
"183 108 CURVE",
"185 92 OFFCURVE",
"188 75 OFFCURVE",
"190 59 CURVE",
"190 58 OFFCURVE",
"190 58 OFFCURVE",
"190 57 CURVE",
"191 37 OFFCURVE",
"192 18 OFFCURVE",
"194 -2 CURVE",
"195 -20 OFFCURVE",
"194 -38 OFFCURVE",
"198 -54 CURVE",
"203 -74 OFFCURVE",
"199 -93 OFFCURVE",
"201 -113 CURVE",
"202 -123 OFFCURVE",
"205 -133 OFFCURVE",
"207 -143 CURVE",
"209 -150 OFFCURVE",
"204 -158 OFFCURVE",
"196 -160 CURVE",
"188 -161 OFFCURVE",
"181 -162 OFFCURVE",
"174 -163 CURVE",
"167 -165 OFFCURVE",
"154 -159 OFFCURVE",
"150 -152 CURVE",
"149 -151 OFFCURVE",
"148 -149 OFFCURVE",
"147 -148 CURVE",
"138 -138 OFFCURVE",
"133 -128 OFFCURVE",
"139 -113 CURVE",
"142 -103 OFFCURVE",
"140 -91 OFFCURVE",
"141 -81 CURVE",
"143 -80 OFFCURVE",
"145 -78 OFFCURVE",
"147 -77 CURVE",
"145 -75 OFFCURVE",
"143 -73 OFFCURVE",
"141 -72 CURVE",
"141 -72 OFFCURVE",
"140 -73 OFFCURVE",
"139 -73 CURVE",
"139 -62 OFFCURVE",
"140 -51 OFFCURVE",
"139 -40 CURVE",
"137 -17 OFFCURVE",
"135 6 OFFCURVE",
"133 29 CURVE",
"132 34 OFFCURVE",
"133 39 OFFCURVE",
"132 44 CURVE",
"131 58 OFFCURVE",
"130 72 OFFCURVE",
"128 86 CURVE",
"126 103 OFFCURVE",
"122 119 OFFCURVE",
"122 136 CURVE",
"122 144 OFFCURVE",
"121 153 OFFCURVE",
"121 161 CURVE",
"120 187 OFFCURVE",
"121 213 OFFCURVE",
"117 238 CURVE",
"113 262 OFFCURVE",
"115 285 OFFCURVE",
"114 309 CURVE",
"113 341 OFFCURVE",
"112 372 OFFCURVE",
"110 404 CURVE",
"110 412 OFFCURVE",
"110 420 OFFCURVE",
"112 429 CURVE",
"114 434 OFFCURVE",
"111 440 OFFCURVE",
"110 445 CURVE",
"109 452 OFFCURVE",
"109 459 OFFCURVE",
"110 466 CURVE",
"112 483 OFFCURVE",
"110 500 OFFCURVE",
"110 516 CURVE",
"109 530 OFFCURVE",
"107 544 OFFCURVE",
"107 559 CURVE",
"107 565 OFFCURVE",
"109 572 OFFCURVE",
"110 579 CURVE",
"110 583 OFFCURVE",
"111 586 OFFCURVE",
"110 589 CURVE",
"105 602 OFFCURVE",
"109 614 OFFCURVE",
"110 627 CURVE",
"111 637 OFFCURVE",
"110 648 OFFCURVE",
"110 661 CURVE",
"103 660 OFFCURVE",
"96 658 OFFCURVE",
"90 657 CURVE",
"79 654 OFFCURVE",
"68 652 OFFCURVE",
"58 649 CURVE",
"43 644 OFFCURVE",
"27 647 OFFCURVE",
"13 639 CURVE",
"10 637 OFFCURVE",
"4 639 OFFCURVE",
"0 638 CURVE",
"-6 636 OFFCURVE",
"-11 631 OFFCURVE",
"-17 630 CURVE",
"-30 628 OFFCURVE",
"-42 619 OFFCURVE",
"-56 627 CURVE",
"-60 629 OFFCURVE",
"-66 627 OFFCURVE",
"-71 628 CURVE",
"-73 629 OFFCURVE",
"-74 633 OFFCURVE",
"-75 635 CURVE",
"-76 637 OFFCURVE",
"-76 639 OFFCURVE",
"-78 639 CURVE",
"-90 649 OFFCURVE",
"-90 662 OFFCURVE",
"-84 675 CURVE",
"-80 687 OFFCURVE",
"-79 687 OFFCURVE",
"-65 686 CURVE",
"-54 685 OFFCURVE",
"-42 685 OFFCURVE",
"-31 686 CURVE",
"-18 688 OFFCURVE",
"-6 693 OFFCURVE",
"7 696 CURVE",
"14 698 OFFCURVE",
"21 699 OFFCURVE",
"29 700 CURVE",
"44 702 OFFCURVE",
"59 704 OFFCURVE",
"75 707 CURVE",
"86 710 OFFCURVE",
"98 713 OFFCURVE",
"110 716 CURVE",
"110 729 OFFCURVE",
"110 743 OFFCURVE",
"110 757 CURVE",
"111 772 OFFCURVE",
"113 788 OFFCURVE",
"114 804 CURVE",
"114 824 OFFCURVE",
"114 844 OFFCURVE",
"114 864 CURVE",
"114 884 OFFCURVE",
"114 903 OFFCURVE",
"114 922 CURVE",
"114 928 OFFCURVE",
"117 934 OFFCURVE",
"117 940 CURVE",
"117 972 OFFCURVE",
"117 1005 OFFCURVE",
"117 1037 CURVE",
"117 1044 OFFCURVE",
"115 1050 OFFCURVE",
"115 1057 CURVE",
"114 1062 OFFCURVE",
"116 1068 OFFCURVE",
"116 1073 CURVE",
"116 1080 OFFCURVE",
"115 1088 OFFCURVE",
"115 1095 CURVE",
"114 1103 OFFCURVE",
"113 1110 OFFCURVE",
"114 1118 CURVE",
"116 1124 OFFCURVE",
"119 1131 OFFCURVE",
"124 1135 CURVE",
"129 1139 OFFCURVE",
"136 1138 OFFCURVE",
"143 1134 CURVE",
"146 1131 OFFCURVE",
"151 1131 OFFCURVE",
"155 1129 CURVE",
"160 1125 OFFCURVE",
"164 1120 OFFCURVE",
"169 1115 CURVE",
"177 1105 OFFCURVE",
"180 1098 OFFCURVE",
"179 1088 CURVE",
"177 1073 OFFCURVE",
"174 1058 OFFCURVE",
"173 1043 CURVE",
"172 1038 OFFCURVE",
"174 1032 OFFCURVE",
"174 1026 CURVE",
"174 1018 OFFCURVE",
"175 1008 OFFCURVE",
"171 1003 CURVE",
"166 997 OFFCURVE",
"171 993 OFFCURVE",
"171 988 CURVE",
"171 960 OFFCURVE",
"174 932 OFFCURVE",
"171 905 CURVE",
"167 864 OFFCURVE",
"170 823 OFFCURVE",
"168 782 CURVE",
"168 773 OFFCURVE",
"165 765 OFFCURVE",
"168 756 CURVE",
"169 754 OFFCURVE",
"167 750 OFFCURVE",
"166 747 CURVE",
"166 741 OFFCURVE",
"165 736 OFFCURVE",
"166 730 CURVE",
"166 728 OFFCURVE",
"170 725 OFFCURVE",
"172 725 CURVE",
"180 726 OFFCURVE",
"187 728 OFFCURVE",
"195 728 CURVE",
"200 729 OFFCURVE",
"206 728 OFFCURVE",
"211 729 CURVE",
"217 730 OFFCURVE",
"224 731 OFFCURVE",
"230 733 CURVE",
"234 734 OFFCURVE",
"237 735 OFFCURVE",
"241 733 CURVE",
"248 729 OFFCURVE",
"257 727 OFFCURVE",
"263 722 CURVE",
"270 716 OFFCURVE",
"276 708 OFFCURVE",
"281 700 CURVE",
"288 689 OFFCURVE",
"283 685 OFFCURVE",
"274 677 CURVE",
"265 670 OFFCURVE",
"254 674 OFFCURVE",
"246 668 CURVE",
"245 667 OFFCURVE",
"239 668 OFFCURVE",
"237 669 CURVE",
"232 674 OFFCURVE",
"227 677 OFFCURVE",
"218 675 CURVE",
"210 673 OFFCURVE",
"202 675 OFFCURVE",
"194 674 CURVE",
"184 673 OFFCURVE",
"175 672 OFFCURVE",
"165 671 CURVE"
);
},
{
closed = 1;
nodes = (
"147 518 OFFCURVE",
"150 520 OFFCURVE",
"150 521 CURVE SMOOTH",
"149 525 OFFCURVE",
"147 529 OFFCURVE",
"146 533 CURVE",
"145 533 OFFCURVE",
"144 532 OFFCURVE",
"143 532 CURVE",
"143 528 OFFCURVE",
"143 523 OFFCURVE",
"143 516 CURVE"
);
}
);
width = 250;
}
);
unicode = 0054;
},
{
glyphname = U;
lastChange = "2020-11-29 17:05:25 +0000";
layers = (
{
layerId = "BC2BDE5E-3D40-4D25-8676-E4E66850FFEB";
paths = (
{
closed = 1;
nodes = (
"277 377 OFFCURVE",
"274 375 OFFCURVE",
"270 372 CURVE",
"275 370 OFFCURVE",
"278 370 OFFCURVE",
"278 369 CURVE",
"278 361 OFFCURVE",
"277 353 OFFCURVE",
"277 345 CURVE SMOOTH",
"277 340 OFFCURVE",
"275 335 OFFCURVE",
"282 332 CURVE SMOOTH",
"284 331 OFFCURVE",
"282 321 OFFCURVE",
"282 316 CURVE SMOOTH",
"282 313 OFFCURVE",
"281 309 OFFCURVE",
"282 306 CURVE SMOOTH",
"286 296 OFFCURVE",
"284 281 OFFCURVE",
"275 274 CURVE SMOOTH",
"273 272 OFFCURVE",
"270 272 OFFCURVE",
"267 272 CURVE SMOOTH",
"262 272 OFFCURVE",
"257 273 OFFCURVE",
"252 271 CURVE SMOOTH",
"245 269 OFFCURVE",
"234 271 OFFCURVE",
"230 277 CURVE SMOOTH",
"224 288 OFFCURVE",
"218 298 OFFCURVE",
"212 309 CURVE SMOOTH",
"211 312 OFFCURVE",
"211 316 OFFCURVE",
"212 318 CURVE SMOOTH",
"217 327 OFFCURVE",
"215 335 OFFCURVE",
"213 344 CURVE SMOOTH",
"213 346 OFFCURVE",
"213 347 OFFCURVE",
"213 349 CURVE SMOOTH",
"214 352 OFFCURVE",
"215 356 OFFCURVE",
"215 360 CURVE SMOOTH",
"214 369 OFFCURVE",
"212 378 OFFCURVE",
"211 388 CURVE SMOOTH",
"210 405 OFFCURVE",
"208 423 OFFCURVE",
"207 442 CURVE",
"204 440 OFFCURVE",
"201 438 OFFCURVE",
"201 437 CURVE SMOOTH",
"201 427 OFFCURVE",
"194 420 OFFCURVE",
"189 413 CURVE SMOOTH",
"176 398 OFFCURVE",
"163 382 OFFCURVE",
"149 368 CURVE SMOOTH",
"141 359 OFFCURVE",
"129 353 OFFCURVE",
"119 346 CURVE SMOOTH",
"118 344 OFFCURVE",
"115 345 OFFCURVE",
"112 345 CURVE SMOOTH",
"100 344 OFFCURVE",
"88 342 OFFCURVE",
"76 344 CURVE SMOOTH",
"68 345 OFFCURVE",
"60 352 OFFCURVE",
"53 357 CURVE SMOOTH",
"49 360 OFFCURVE",
"46 363 OFFCURVE",
"43 367 CURVE SMOOTH",
"40 370 OFFCURVE",
"36 372 OFFCURVE",
"34 376 CURVE SMOOTH",
"29 384 OFFCURVE",
"24 392 OFFCURVE",
"20 400 CURVE SMOOTH",
"16 408 OFFCURVE",
"14 417 OFFCURVE",
"12 426 CURVE SMOOTH",
"10 436 OFFCURVE",
"9 446 OFFCURVE",
"8 456 CURVE SMOOTH",
"8 463 OFFCURVE",
"10 470 OFFCURVE",
"11 477 CURVE SMOOTH",
"13 483 OFFCURVE",
"9 487 OFFCURVE",
"11 493 CURVE SMOOTH",
"14 506 OFFCURVE",
"14 519 OFFCURVE",
"15 532 CURVE SMOOTH",
"17 542 OFFCURVE",
"20 553 OFFCURVE",
"22 563 CURVE SMOOTH",
"23 568 OFFCURVE",
"22 574 OFFCURVE",
"22 580 CURVE SMOOTH",
"22 588 OFFCURVE",
"27 595 OFFCURVE",
"35 598 CURVE SMOOTH",
"41 600 OFFCURVE",
"47 599 OFFCURVE",
"53 594 CURVE SMOOTH",
"60 589 OFFCURVE",
"68 585 OFFCURVE",
"76 580 CURVE SMOOTH",
"81 576 OFFCURVE",
"86 559 OFFCURVE",
"84 552 CURVE SMOOTH",
"81 545 OFFCURVE",
"79 538 OFFCURVE",
"77 531 CURVE SMOOTH",
"75 524 OFFCURVE",
"75 518 OFFCURVE",
"73 511 CURVE SMOOTH",
"68 493 OFFCURVE",
"66 474 OFFCURVE",
"66 455 CURVE SMOOTH",
"66 447 OFFCURVE",
"66 438 OFFCURVE",
"66 430 CURVE SMOOTH",
"67 417 OFFCURVE",
"72 406 OFFCURVE",
"78 395 CURVE SMOOTH",
"79 394 OFFCURVE",
"82 393 OFFCURVE",
"84 394 CURVE SMOOTH",
"93 400 OFFCURVE",
"103 406 OFFCURVE",
"111 413 CURVE SMOOTH",
"121 421 OFFCURVE",
"130 430 OFFCURVE",
"138 440 CURVE SMOOTH",
"146 450 OFFCURVE",
"151 461 OFFCURVE",
"157 472 CURVE SMOOTH",
"162 480 OFFCURVE",
"166 489 OFFCURVE",
"170 498 CURVE SMOOTH",
"173 505 OFFCURVE",
"175 513 OFFCURVE",
"177 521 CURVE SMOOTH",
"180 531 OFFCURVE",
"184 542 OFFCURVE",
"187 552 CURVE SMOOTH",
"189 558 OFFCURVE",
"191 565 OFFCURVE",
"193 571 CURVE SMOOTH",
"195 579 OFFCURVE",
"198 588 OFFCURVE",
"200 597 CURVE SMOOTH",
"201 599 OFFCURVE",
"200 602 OFFCURVE",
"200 604 CURVE SMOOTH",
"201 612 OFFCURVE",
"203 619 OFFCURVE",
"203 627 CURVE SMOOTH",
"204 628 OFFCURVE",
"203 630 OFFCURVE",
"203 631 CURVE SMOOTH",
"202 640 OFFCURVE",
"200 649 OFFCURVE",
"200 657 CURVE SMOOTH",
"200 669 OFFCURVE",
"205 673 OFFCURVE",
"216 675 CURVE SMOOTH",
"232 679 OFFCURVE",
"246 673 OFFCURVE",
"259 664 CURVE SMOOTH",
"270 656 OFFCURVE",
"273 643 OFFCURVE",
"270 630 CURVE SMOOTH",
"268 620 OFFCURVE",
"267 609 OFFCURVE",
"266 599 CURVE SMOOTH",
"265 592 OFFCURVE",
"263 586 OFFCURVE",
"263 579 CURVE SMOOTH",
"262 577 OFFCURVE",
"264 576 OFFCURVE",
"264 574 CURVE SMOOTH",
"265 571 OFFCURVE",
"266 568 OFFCURVE",
"265 565 CURVE SMOOTH",
"263 548 OFFCURVE",
"261 532 OFFCURVE",
"264 514 CURVE SMOOTH",
"264 511 OFFCURVE",
"262 507 OFFCURVE",
"262 504 CURVE SMOOTH",
"262 493 OFFCURVE",
"262 482 OFFCURVE",
"262 471 CURVE SMOOTH",
"263 449 OFFCURVE",
"265 427 OFFCURVE",
"266 405 CURVE SMOOTH",
"266 404 OFFCURVE",
"266 401 OFFCURVE",
"267 401 CURVE SMOOTH",
"276 397 OFFCURVE",
"275 386 OFFCURVE",
"280 379 CURVE"
);
}
);
width = 350;
}
);
unicode = 0055;
},
{
glyphname = V;
lastChange = "2020-11-29 17:05:33 +0000";
layers = (
{
layerId = "BC2BDE5E-3D40-4D25-8676-E4E66850FFEB";
paths = (
{
closed = 1;
nodes = (
"165 607 OFFCURVE",
"164 604 OFFCURVE",
"163 601 CURVE",
"160 591 OFFCURVE",
"158 580 OFFCURVE",
"155 570 CURVE",
"155 567 OFFCURVE",
"152 565 OFFCURVE",
"151 564 CURVE",
"152 555 OFFCURVE",
"152 546 OFFCURVE",
"153 536 CURVE",
"141 529 OFFCURVE",
"142 515 OFFCURVE",
"145 504 CURVE",
"148 493 OFFCURVE",
"147 483 OFFCURVE",
"145 473 CURVE",
"143 462 OFFCURVE",
"142 451 OFFCURVE",
"141 440 CURVE",
"139 422 OFFCURVE",
"136 404 OFFCURVE",
"134 386 CURVE",
"134 384 OFFCURVE",
"134 381 OFFCURVE",
"134 378 CURVE",
"131 367 OFFCURVE",
"129 355 OFFCURVE",
"127 343 CURVE",
"126 341 OFFCURVE",
"126 338 OFFCURVE",
"126 335 CURVE",
"125 333 OFFCURVE",
"124 331 OFFCURVE",
"124 329 CURVE",
"122 325 OFFCURVE",
"119 322 OFFCURVE",
"120 318 CURVE",
"120 308 OFFCURVE",
"121 298 OFFCURVE",
"123 287 CURVE",
"124 279 OFFCURVE",
"126 269 OFFCURVE",
"129 261 CURVE",
"132 250 OFFCURVE",
"127 240 OFFCURVE",
"116 238 CURVE",
"109 237 OFFCURVE",
"102 234 OFFCURVE",
"96 231 CURVE",
"87 225 OFFCURVE",
"80 232 OFFCURVE",
"73 236 CURVE",
"69 239 OFFCURVE",
"64 243 OFFCURVE",
"62 248 CURVE",
"58 256 OFFCURVE",
"55 265 OFFCURVE",
"54 274 CURVE",
"53 283 OFFCURVE",
"55 291 OFFCURVE",
"54 300 CURVE",
"52 312 OFFCURVE",
"49 325 OFFCURVE",
"47 338 CURVE",
"46 347 OFFCURVE",
"44 356 OFFCURVE",
"43 364 CURVE",
"41 377 OFFCURVE",
"39 390 OFFCURVE",
"37 403 CURVE",
"33 423 OFFCURVE",
"30 443 OFFCURVE",
"26 464 CURVE",
"23 480 OFFCURVE",
"21 497 OFFCURVE",
"17 513 CURVE",
"15 526 OFFCURVE",
"10 539 OFFCURVE",
"7 552 CURVE",
"4 563 OFFCURVE",
"2 574 OFFCURVE",
"-1 585 CURVE",
"-3 593 OFFCURVE",
"-7 600 OFFCURVE",
"-9 608 CURVE",
"-13 619 OFFCURVE",
"-16 631 OFFCURVE",
"-19 642 CURVE",
"-19 643 OFFCURVE",
"-19 645 OFFCURVE",
"-19 646 CURVE",
"-25 659 OFFCURVE",
"-31 672 OFFCURVE",
"-36 685 CURVE",
"-38 693 OFFCURVE",
"-44 701 OFFCURVE",
"-37 711 CURVE",
"-30 719 OFFCURVE",
"-16 724 OFFCURVE",
"-4 720 CURVE",
"-1 719 OFFCURVE",
"3 718 OFFCURVE",
"6 717 CURVE",
"9 715 OFFCURVE",
"11 713 OFFCURVE",
"13 710 CURVE",
"15 709 OFFCURVE",
"15 705 OFFCURVE",
"17 704 CURVE",
"30 697 OFFCURVE",
"31 684 OFFCURVE",
"32 671 CURVE",
"33 661 OFFCURVE",
"36 651 OFFCURVE",
"39 641 CURVE",
"41 630 OFFCURVE",
"44 619 OFFCURVE",
"47 608 CURVE",
"49 599 OFFCURVE",
"54 591 OFFCURVE",
"57 582 CURVE",
"60 571 OFFCURVE",
"62 559 OFFCURVE",
"65 548 CURVE",
"68 535 OFFCURVE",
"72 522 OFFCURVE",
"75 508 CURVE",
"76 507 OFFCURVE",
"75 506 OFFCURVE",
"76 505 CURVE",
"78 490 OFFCURVE",
"80 476 OFFCURVE",
"83 461 CURVE",
"84 461 OFFCURVE",
"84 461 OFFCURVE",
"85 461 CURVE",
"86 463 OFFCURVE",
"86 465 OFFCURVE",
"86 467 CURVE",
"88 473 OFFCURVE",
"89 479 OFFCURVE",
"90 484 CURVE",
"91 488 OFFCURVE",
"90 492 OFFCURVE",
"90 496 CURVE",
"91 503 OFFCURVE",
"93 509 OFFCURVE",
"94 516 CURVE",
"95 524 OFFCURVE",
"96 532 OFFCURVE",
"97 540 CURVE",
"98 551 OFFCURVE",
"101 561 OFFCURVE",
"101 572 CURVE",
"101 578 OFFCURVE",
"112 574 OFFCURVE",
"107 583 CURVE",
"105 586 OFFCURVE",
"105 592 OFFCURVE",
"104 598 CURVE",
"107 596 OFFCURVE",
"109 595 OFFCURVE",
"111 594 CURVE",
"111 597 OFFCURVE",
"112 599 OFFCURVE",
"112 600 CURVE",
"104 614 OFFCURVE",
"114 625 OFFCURVE",
"116 636 CURVE",
"117 639 OFFCURVE",
"119 642 OFFCURVE",
"119 645 CURVE",
"119 659 OFFCURVE",
"124 672 OFFCURVE",
"128 685 CURVE",
"130 695 OFFCURVE",
"135 705 OFFCURVE",
"131 716 CURVE",
"128 722 OFFCURVE",
"130 730 OFFCURVE",
"131 737 CURVE",
"131 740 OFFCURVE",
"132 744 OFFCURVE",
"133 747 CURVE",
"138 757 OFFCURVE",
"149 760 OFFCURVE",
"157 753 CURVE",
"160 752 OFFCURVE",
"164 753 OFFCURVE",
"166 751 CURVE",
"173 746 OFFCURVE",
"180 741 OFFCURVE",
"187 735 CURVE",
"189 734 OFFCURVE",
"192 733 OFFCURVE",
"193 731 CURVE",
"195 728 OFFCURVE",
"197 725 OFFCURVE",
"199 721 CURVE",
"204 709 OFFCURVE",
"198 700 OFFCURVE",
"190 691 CURVE",
"186 687 OFFCURVE",
"186 680 OFFCURVE",
"185 674 CURVE",
"182 661 OFFCURVE",
"180 649 OFFCURVE",
"177 636 CURVE",
"175 627 OFFCURVE",
"171 619 OFFCURVE",
"168 610 CURVE",
"167 610 OFFCURVE",
"167 610 OFFCURVE",
"167 609 CURVE"
);
},
{
closed = 1;
nodes = (
"108 356 OFFCURVE",
"107 350 OFFCURVE",
"106 345 CURVE",
"106 344 OFFCURVE",
"107 344 OFFCURVE",
"108 343 CURVE",
"111 349 OFFCURVE",
"115 355 OFFCURVE",
"119 361 CURVE",
"116 361 OFFCURVE",
"113 361 OFFCURVE",
"110 361 CURVE"
);
}
);
width = 250;
}
);
unicode = 0056;
},
{
glyphname = W;
lastChange = "2020-11-29 17:05:47 +0000";
layers = (
{
layerId = "BC2BDE5E-3D40-4D25-8676-E4E66850FFEB";
paths = (
{
closed = 1;
nodes = (
"282 251 OFFCURVE",
"281 245 OFFCURVE",
"281 238 CURVE",
"280 228 OFFCURVE",
"278 218 OFFCURVE",
"277 208 CURVE",
"276 198 OFFCURVE",
"274 189 OFFCURVE",
"274 179 CURVE",
"274 173 OFFCURVE",
"277 167 OFFCURVE",
"277 161 CURVE",
"277 151 OFFCURVE",
"271 145 OFFCURVE",
"261 144 CURVE",
"259 144 OFFCURVE",
"257 144 OFFCURVE",
"256 143 CURVE",
"243 133 OFFCURVE",
"231 136 OFFCURVE",
"222 150 CURVE",
"220 153 OFFCURVE",
"216 155 OFFCURVE",
"215 158 CURVE",
"209 169 OFFCURVE",
"204 180 OFFCURVE",
"199 191 CURVE",
"196 198 OFFCURVE",
"193 206 OFFCURVE",
"190 213 CURVE",
"187 222 OFFCURVE",
"184 230 OFFCURVE",
"181 239 CURVE",
"177 250 OFFCURVE",
"175 260 OFFCURVE",
"172 270 CURVE",
"167 286 OFFCURVE",
"163 302 OFFCURVE",
"158 318 CURVE",
"156 326 OFFCURVE",
"155 335 OFFCURVE",
"154 343 CURVE",
"152 352 OFFCURVE",
"150 362 OFFCURVE",
"148 371 CURVE",
"147 373 OFFCURVE",
"147 375 OFFCURVE",
"147 377 CURVE",
"145 385 OFFCURVE",
"144 393 OFFCURVE",
"142 401 CURVE",
"141 407 OFFCURVE",
"140 412 OFFCURVE",
"139 418 CURVE",
"138 429 OFFCURVE",
"136 440 OFFCURVE",
"135 453 CURVE",
"132 451 OFFCURVE",
"129 449 OFFCURVE",
"129 447 CURVE",
"127 438 OFFCURVE",
"120 431 OFFCURVE",
"115 424 CURVE",
"108 414 OFFCURVE",
"99 406 OFFCURVE",
"91 397 CURVE",
"86 391 OFFCURVE",
"82 385 OFFCURVE",
"77 379 CURVE",
"76 377 OFFCURVE",
"73 376 OFFCURVE",
"70 375 CURVE",
"52 368 OFFCURVE",
"33 364 OFFCURVE",
"16 373 CURVE",
"7 378 OFFCURVE",
"0 389 OFFCURVE",
"-6 398 CURVE",
"-18 419 OFFCURVE",
"-22 443 OFFCURVE",
"-20 468 CURVE",
"-20 476 OFFCURVE",
"-20 485 OFFCURVE",
"-20 493 CURVE",
"-21 506 OFFCURVE",
"-18 519 OFFCURVE",
"-14 531 CURVE",
"-11 538 OFFCURVE",
"-11 546 OFFCURVE",
"-9 553 CURVE",
"-8 560 OFFCURVE",
"-5 567 OFFCURVE",
"-4 574 CURVE",
"-3 580 OFFCURVE",
"-2 587 OFFCURVE",
"-2 593 CURVE",
"-3 600 OFFCURVE",
"-1 604 OFFCURVE",
"5 608 CURVE",
"11 611 OFFCURVE",
"15 618 OFFCURVE",
"23 616 CURVE",
"31 613 OFFCURVE",
"39 608 OFFCURVE",
"47 604 CURVE",
"50 603 OFFCURVE",
"54 600 OFFCURVE",
"56 597 CURVE",
"59 594 OFFCURVE",
"60 590 OFFCURVE",
"61 587 CURVE",
"63 581 OFFCURVE",
"67 576 OFFCURVE",
"66 571 CURVE",
"66 565 OFFCURVE",
"61 561 OFFCURVE",
"59 555 CURVE",
"55 546 OFFCURVE",
"51 536 OFFCURVE",
"49 525 CURVE",
"45 510 OFFCURVE",
"40 494 OFFCURVE",
"38 478 CURVE",
"37 464 OFFCURVE",
"38 450 OFFCURVE",
"38 434 CURVE",
"51 444 OFFCURVE",
"62 453 OFFCURVE",
"67 468 CURVE",
"70 477 OFFCURVE",
"78 485 OFFCURVE",
"83 493 CURVE",
"86 498 OFFCURVE",
"89 502 OFFCURVE",
"91 507 CURVE",
"97 523 OFFCURVE",
"104 539 OFFCURVE",
"110 556 CURVE",
"111 561 OFFCURVE",
"109 567 OFFCURVE",
"108 572 CURVE",
"108 577 OFFCURVE",
"106 581 OFFCURVE",
"107 585 CURVE",
"108 591 OFFCURVE",
"109 597 OFFCURVE",
"111 603 CURVE",
"112 608 OFFCURVE",
"131 617 OFFCURVE",
"137 616 CURVE",
"144 615 OFFCURVE",
"151 614 OFFCURVE",
"158 612 CURVE",
"162 610 OFFCURVE",
"166 606 OFFCURVE",
"168 602 CURVE",
"176 591 OFFCURVE",
"186 581 OFFCURVE",
"183 565 CURVE",
"182 562 OFFCURVE",
"181 560 OFFCURVE",
"181 557 CURVE",
"180 548 OFFCURVE",
"180 538 OFFCURVE",
"181 529 CURVE",
"181 527 OFFCURVE",
"183 524 OFFCURVE",
"183 522 CURVE",
"182 505 OFFCURVE",
"183 488 OFFCURVE",
"190 471 CURVE",
"190 471 OFFCURVE",
"190 470 OFFCURVE",
"190 470 CURVE",
"191 452 OFFCURVE",
"192 435 OFFCURVE",
"194 417 CURVE",
"196 405 OFFCURVE",
"200 393 OFFCURVE",
"203 381 CURVE",
"203 378 OFFCURVE",
"204 375 OFFCURVE",
"205 372 CURVE",
"207 362 OFFCURVE",
"209 352 OFFCURVE",
"211 342 CURVE",
"213 335 OFFCURVE",
"214 328 OFFCURVE",
"215 320 CURVE",
"217 314 OFFCURVE",
"218 308 OFFCURVE",
"219 301 CURVE",
"220 295 OFFCURVE",
"221 289 OFFCURVE",
"223 283 CURVE",
"223 281 OFFCURVE",
"224 280 OFFCURVE",
"226 276 CURVE",
"226 280 OFFCURVE",
"227 282 OFFCURVE",
"227 283 CURVE",
"229 293 OFFCURVE",
"231 302 OFFCURVE",
"232 312 CURVE",
"233 313 OFFCURVE",
"233 314 OFFCURVE",
"233 314 CURVE",
"229 332 OFFCURVE",
"239 348 OFFCURVE",
"237 365 CURVE",
"237 367 OFFCURVE",
"239 369 OFFCURVE",
"240 371 CURVE",
"241 375 OFFCURVE",
"243 378 OFFCURVE",
"241 383 CURVE",
"240 387 OFFCURVE",
"243 391 OFFCURVE",
"243 395 CURVE",
"244 402 OFFCURVE",
"244 410 OFFCURVE",
"245 417 CURVE",
"245 420 OFFCURVE",
"247 422 OFFCURVE",
"249 425 CURVE",
"250 428 OFFCURVE",
"250 431 OFFCURVE",
"250 434 CURVE",
"250 445 OFFCURVE",
"259 454 OFFCURVE",
"252 465 CURVE",
"252 466 OFFCURVE",
"252 468 OFFCURVE",
"253 469 CURVE",
"253 474 OFFCURVE",
"254 480 OFFCURVE",
"255 485 CURVE",
"256 490 OFFCURVE",
"258 494 OFFCURVE",
"259 498 CURVE",
"260 500 OFFCURVE",
"260 502 OFFCURVE",
"260 504 CURVE",
"260 512 OFFCURVE",
"259 520 OFFCURVE",
"264 527 CURVE",
"265 529 OFFCURVE",
"266 532 OFFCURVE",
"265 533 CURVE",
"259 541 OFFCURVE",
"263 547 OFFCURVE",
"270 552 CURVE",
"263 556 OFFCURVE",
"261 559 OFFCURVE",
"265 567 CURVE",
"268 572 OFFCURVE",
"267 580 OFFCURVE",
"267 586 CURVE",
"267 598 OFFCURVE",
"264 609 OFFCURVE",
"271 620 CURVE",
"273 623 OFFCURVE",
"273 629 OFFCURVE",
"272 633 CURVE",
"270 641 OFFCURVE",
"268 647 OFFCURVE",
"273 653 CURVE",
"274 655 OFFCURVE",
"273 658 OFFCURVE",
"273 661 CURVE",
"273 670 OFFCURVE",
"273 680 OFFCURVE",
"274 690 CURVE",
"274 695 OFFCURVE",
"275 701 OFFCURVE",
"277 705 CURVE",
"279 710 OFFCURVE",
"277 714 OFFCURVE",
"277 719 CURVE",
"277 738 OFFCURVE",
"280 758 OFFCURVE",
"284 777 CURVE",
"286 791 OFFCURVE",
"288 808 OFFCURVE",
"280 821 CURVE",
"271 833 OFFCURVE",
"272 842 OFFCURVE",
"277 853 CURVE",
"281 862 OFFCURVE",
"289 865 OFFCURVE",
"298 863 CURVE",
"304 862 OFFCURVE",
"309 860 OFFCURVE",
"315 860 CURVE",
"325 859 OFFCURVE",
"329 852 OFFCURVE",
"334 844 CURVE",
"337 838 OFFCURVE",
"340 832 OFFCURVE",
"344 826 CURVE",
"347 821 OFFCURVE",
"346 816 OFFCURVE",
"343 810 CURVE",
"340 804 OFFCURVE",
"340 796 OFFCURVE",
"340 789 CURVE",
"339 783 OFFCURVE",
"340 778 OFFCURVE",
"340 772 CURVE",
"338 772 OFFCURVE",
"337 772 OFFCURVE",
"336 772 CURVE",
"335 776 OFFCURVE",
"335 779 OFFCURVE",
"335 783 CURVE",
"331 781 OFFCURVE",
"328 779 OFFCURVE",
"327 778 CURVE",
"329 774 OFFCURVE",
"331 770 OFFCURVE",
"334 766 CURVE",
"334 766 OFFCURVE",
"336 767 OFFCURVE",
"339 769 CURVE",
"337 754 OFFCURVE",
"336 742 OFFCURVE",
"334 729 CURVE",
"333 729 OFFCURVE",
"333 729 OFFCURVE",
"332 729 CURVE",
"332 732 OFFCURVE",
"331 735 OFFCURVE",
"331 738 CURVE",
"330 739 OFFCURVE",
"329 739 OFFCURVE",
"328 739 CURVE",
"327 736 OFFCURVE",
"326 732 OFFCURVE",
"325 728 CURVE",
"322 718 OFFCURVE",
"328 706 OFFCURVE",
"321 696 CURVE",
"320 695 OFFCURVE",
"321 691 OFFCURVE",
"321 688 CURVE",
"322 688 OFFCURVE",
"324 688 OFFCURVE",
"325 688 CURVE",
"326 697 OFFCURVE",
"328 706 OFFCURVE",
"329 716 CURVE",
"330 704 OFFCURVE",
"334 692 OFFCURVE",
"329 680 CURVE",
"326 673 OFFCURVE",
"328 665 OFFCURVE",
"328 657 CURVE",
"326 639 OFFCURVE",
"325 621 OFFCURVE",
"323 603 CURVE",
"320 602 OFFCURVE",
"317 601 OFFCURVE",
"315 601 CURVE",
"318 597 OFFCURVE",
"322 595 OFFCURVE",
"324 591 CURVE",
"324 590 OFFCURVE",
"320 587 OFFCURVE",
"318 584 CURVE",
"322 583 OFFCURVE",
"328 582 OFFCURVE",
"321 575 CURVE",
"319 572 OFFCURVE",
"320 566 OFFCURVE",
"320 562 CURVE",
"318 542 OFFCURVE",
"316 523 OFFCURVE",
"314 503 CURVE",
"313 498 OFFCURVE",
"313 492 OFFCURVE",
"313 486 CURVE",
"306 484 OFFCURVE",
"299 482 OFFCURVE",
"291 480 CURVE",
"294 477 OFFCURVE",
"297 475 OFFCURVE",
"301 472 CURVE",
"301 471 OFFCURVE",
"301 468 OFFCURVE",
"301 464 CURVE",
"300 464 OFFCURVE",
"299 463 OFFCURVE",
"299 463 CURVE",
"299 455 OFFCURVE",
"298 447 OFFCURVE",
"298 439 CURVE",
"299 439 OFFCURVE",
"302 438 OFFCURVE",
"307 437 CURVE",
"306 432 OFFCURVE",
"305 428 OFFCURVE",
"304 424 CURVE",
"302 411 OFFCURVE",
"301 398 OFFCURVE",
"298 385 CURVE",
"297 379 OFFCURVE",
"295 377 OFFCURVE",
"289 380 CURVE",
"289 372 OFFCURVE",
"289 366 OFFCURVE",
"289 359 CURVE",
"289 359 OFFCURVE",
"290 359 OFFCURVE",
"291 358 CURVE",
"291 363 OFFCURVE",
"292 368 OFFCURVE",
"292 372 CURVE",
"293 372 OFFCURVE",
"294 373 OFFCURVE",
"295 373 CURVE",
"295 367 OFFCURVE",
"296 362 OFFCURVE",
"297 356 CURVE",
"290 354 OFFCURVE",
"285 354 OFFCURVE",
"279 353 CURVE",
"285 351 OFFCURVE",
"289 350 OFFCURVE",
"295 349 CURVE",
"294 344 OFFCURVE",
"293 337 OFFCURVE",
"292 331 CURVE",
"291 325 OFFCURVE",
"293 319 OFFCURVE",
"291 314 CURVE",
"287 295 OFFCURVE",
"291 275 OFFCURVE",
"282 258 CURVE",
"280 259 OFFCURVE",
"277 260 OFFCURVE",
"274 262 CURVE",
"274 255 OFFCURVE",
"274 250 OFFCURVE",
"274 243 CURVE",
"280 247 OFFCURVE",
"272 257 OFFCURVE",
"282 258 CURVE"
);
},
{
closed = 1;
nodes = (
"315 703 OFFCURVE",
"315 703 OFFCURVE",
"314 704 CURVE",
"312 697 OFFCURVE",
"309 691 OFFCURVE",
"307 684 CURVE",
"310 685 OFFCURVE",
"313 685 OFFCURVE",
"317 685 CURVE",
"317 691 OFFCURVE",
"317 696 OFFCURVE",
"317 700 CURVE",
"317 701 OFFCURVE",
"316 702 OFFCURVE",
"316 703 CURVE"
);
},
{
closed = 1;
nodes = (
"313 681 OFFCURVE",
"310 681 OFFCURVE",
"305 680 CURVE",
"309 678 OFFCURVE",
"310 677 OFFCURVE",
"311 677 CURVE",
"309 674 OFFCURVE",
"308 672 OFFCURVE",
"307 669 CURVE",
"308 669 OFFCURVE",
"310 667 OFFCURVE",
"311 668 CURVE",
"317 670 OFFCURVE",
"319 674 OFFCURVE",
"316 681 CURVE"
);
},
{
closed = 1;
nodes = (
"279 271 OFFCURVE",
"279 272 OFFCURVE",
"279 273 CURVE",
"274 271 OFFCURVE",
"269 270 OFFCURVE",
"265 268 CURVE",
"264 267 OFFCURVE",
"263 264 OFFCURVE",
"263 262 CURVE",
"264 262 OFFCURVE",
"267 260 OFFCURVE",
"268 261 CURVE",
"272 264 OFFCURVE",
"276 267 OFFCURVE",
"280 270 CURVE"
);
},
{
closed = 1;
nodes = (
"311 607 OFFCURVE",
"312 615 OFFCURVE",
"308 625 CURVE",
"306 618 OFFCURVE",
"305 610 OFFCURVE",
"303 600 CURVE"
);
},
{
closed = 1;
nodes = (
"308 507 OFFCURVE",
"309 507 OFFCURVE",
"310 507 CURVE",
"311 512 OFFCURVE",
"312 517 OFFCURVE",
"313 524 CURVE",
"302 520 OFFCURVE",
"307 513 OFFCURVE",
"307 508 CURVE"
);
},
{
closed = 1;
nodes = (
"323 756 OFFCURVE",
"323 761 OFFCURVE",
"323 767 CURVE",
"318 760 OFFCURVE",
"314 755 OFFCURVE",
"323 751 CURVE"
);
},
{
closed = 1;
nodes = (
"312 474 OFFCURVE",
"310 468 OFFCURVE",
"309 461 CURVE",
"305 468 OFFCURVE",
"305 468 OFFCURVE",
"313 481 CURVE"
);
}
);
width = 350;
}
);
unicode = 0057;
},
{
glyphname = X;
lastChange = "2020-11-29 17:05:53 +0000";
layers = (
{
layerId = "BC2BDE5E-3D40-4D25-8676-E4E66850FFEB";
paths = (
{
closed = 1;
nodes = (
"-4 612 OFFCURVE",
"-2 614 OFFCURVE",
"-1 617 CURVE SMOOTH",
"1 626 OFFCURVE",
"11 632 OFFCURVE",
"19 629 CURVE SMOOTH",
"29 624 OFFCURVE",
"41 623 OFFCURVE",
"47 613 CURVE SMOOTH",
"50 609 OFFCURVE",
"54 606 OFFCURVE",
"56 602 CURVE SMOOTH",
"62 590 OFFCURVE",
"67 577 OFFCURVE",
"73 565 CURVE SMOOTH",
"81 550 OFFCURVE",
"90 536 OFFCURVE",
"100 520 CURVE",
"103 531 OFFCURVE",
"105 541 OFFCURVE",
"108 550 CURVE SMOOTH",
"111 558 OFFCURVE",
"116 566 OFFCURVE",
"120 574 CURVE SMOOTH",
"123 583 OFFCURVE",
"126 591 OFFCURVE",
"130 599 CURVE SMOOTH",
"134 611 OFFCURVE",
"139 622 OFFCURVE",
"143 633 CURVE SMOOTH",
"147 643 OFFCURVE",
"150 653 OFFCURVE",
"152 663 CURVE SMOOTH",
"154 674 OFFCURVE",
"155 686 OFFCURVE",
"156 697 CURVE SMOOTH",
"156 699 OFFCURVE",
"156 701 OFFCURVE",
"157 702 CURVE SMOOTH",
"161 706 OFFCURVE",
"165 709 OFFCURVE",
"169 712 CURVE SMOOTH",
"173 715 OFFCURVE",
"177 718 OFFCURVE",
"183 713 CURVE SMOOTH",
"188 709 OFFCURVE",
"195 708 OFFCURVE",
"201 705 CURVE SMOOTH",
"211 701 OFFCURVE",
"216 693 OFFCURVE",
"221 684 CURVE SMOOTH",
"227 670 OFFCURVE",
"224 659 OFFCURVE",
"216 648 CURVE SMOOTH",
"211 639 OFFCURVE",
"206 630 OFFCURVE",
"206 619 CURVE SMOOTH",
"206 619 OFFCURVE",
"206 618 OFFCURVE",
"206 617 CURVE SMOOTH",
"195 611 OFFCURVE",
"198 599 OFFCURVE",
"194 591 CURVE SMOOTH",
"190 584 OFFCURVE",
"190 576 OFFCURVE",
"188 569 CURVE SMOOTH",
"187 567 OFFCURVE",
"186 564 OFFCURVE",
"184 562 CURVE SMOOTH",
"183 560 OFFCURVE",
"181 559 OFFCURVE",
"181 557 CURVE SMOOTH",
"177 546 OFFCURVE",
"173 535 OFFCURVE",
"169 524 CURVE SMOOTH",
"164 512 OFFCURVE",
"160 499 OFFCURVE",
"155 487 CURVE SMOOTH",
"153 481 OFFCURVE",
"149 475 OFFCURVE",
"146 469 CURVE SMOOTH",
"144 463 OFFCURVE",
"142 456 OFFCURVE",
"142 449 CURVE SMOOTH",
"142 444 OFFCURVE",
"146 440 OFFCURVE",
"149 435 CURVE SMOOTH",
"155 423 OFFCURVE",
"160 410 OFFCURVE",
"167 398 CURVE SMOOTH",
"172 388 OFFCURVE",
"180 378 OFFCURVE",
"186 368 CURVE SMOOTH",
"191 359 OFFCURVE",
"194 349 OFFCURVE",
"199 340 CURVE SMOOTH",
"202 334 OFFCURVE",
"206 329 OFFCURVE",
"209 323 CURVE SMOOTH",
"214 310 OFFCURVE",
"219 297 OFFCURVE",
"225 284 CURVE SMOOTH",
"226 280 OFFCURVE",
"231 277 OFFCURVE",
"234 273 CURVE SMOOTH",
"239 265 OFFCURVE",
"245 258 OFFCURVE",
"249 249 CURVE SMOOTH",
"251 244 OFFCURVE",
"250 238 OFFCURVE",
"245 234 CURVE SMOOTH",
"234 225 OFFCURVE",
"222 218 OFFCURVE",
"208 218 CURVE SMOOTH",
"202 217 OFFCURVE",
"194 226 OFFCURVE",
"188 231 CURVE SMOOTH",
"178 242 OFFCURVE",
"175 256 OFFCURVE",
"173 270 CURVE SMOOTH",
"170 286 OFFCURVE",
"161 299 OFFCURVE",
"154 313 CURVE SMOOTH",
"148 327 OFFCURVE",
"143 340 OFFCURVE",
"137 354 CURVE SMOOTH",
"135 359 OFFCURVE",
"132 364 OFFCURVE",
"129 369 CURVE SMOOTH",
"125 375 OFFCURVE",
"121 380 OFFCURVE",
"116 388 CURVE",
"112 377 OFFCURVE",
"108 369 OFFCURVE",
"104 360 CURVE SMOOTH",
"100 347 OFFCURVE",
"96 334 OFFCURVE",
"92 321 CURVE SMOOTH",
"90 314 OFFCURVE",
"88 306 OFFCURVE",
"86 298 CURVE SMOOTH",
"84 289 OFFCURVE",
"81 281 OFFCURVE",
"80 272 CURVE SMOOTH",
"78 264 OFFCURVE",
"79 256 OFFCURVE",
"79 249 CURVE SMOOTH",
"79 238 OFFCURVE",
"71 233 OFFCURVE",
"61 235 CURVE SMOOTH",
"54 236 OFFCURVE",
"46 238 OFFCURVE",
"38 237 CURVE SMOOTH",
"29 236 OFFCURVE",
"27 242 OFFCURVE",
"24 248 CURVE SMOOTH",
"23 251 OFFCURVE",
"21 253 OFFCURVE",
"19 256 CURVE SMOOTH",
"17 259 OFFCURVE",
"15 262 OFFCURVE",
"14 265 CURVE SMOOTH",
"8 281 OFFCURVE",
"18 294 OFFCURVE",
"22 308 CURVE SMOOTH",
"25 315 OFFCURVE",
"26 323 OFFCURVE",
"28 330 CURVE SMOOTH",
"32 344 OFFCURVE",
"36 358 OFFCURVE",
"40 371 CURVE SMOOTH",
"45 383 OFFCURVE",
"51 393 OFFCURVE",
"56 405 CURVE SMOOTH",
"57 407 OFFCURVE",
"56 410 OFFCURVE",
"56 412 CURVE SMOOTH",
"62 428 OFFCURVE",
"69 444 OFFCURVE",
"75 459 CURVE SMOOTH",
"76 462 OFFCURVE",
"75 467 OFFCURVE",
"73 469 CURVE SMOOTH",
"67 481 OFFCURVE",
"61 493 OFFCURVE",
"53 503 CURVE SMOOTH",
"42 520 OFFCURVE",
"34 538 OFFCURVE",
"24 555 CURVE SMOOTH",
"18 565 OFFCURVE",
"9 573 OFFCURVE",
"3 583 CURVE SMOOTH",
"-1 589 OFFCURVE",
"-2 596 OFFCURVE",
"-4 603 CURVE SMOOTH",
"-5 605 OFFCURVE",
"-6 607 OFFCURVE",
"-6 607 CURVE"
);
}
);
width = 250;
}
);
unicode = 0058;
},
{
glyphname = Y;
lastChange = "2020-11-29 17:06:00 +0000";
layers = (
{
layerId = "BC2BDE5E-3D40-4D25-8676-E4E66850FFEB";
paths = (
{
closed = 1;
nodes = (
"109 52 OFFCURVE",
"96 51 OFFCURVE",
"83 50 CURVE SMOOTH",
"78 50 OFFCURVE",
"63 63 OFFCURVE",
"62 69 CURVE SMOOTH",
"62 71 OFFCURVE",
"62 73 OFFCURVE",
"61 74 CURVE SMOOTH",
"47 87 OFFCURVE",
"57 100 OFFCURVE",
"60 112 CURVE SMOOTH",
"61 114 OFFCURVE",
"62 115 OFFCURVE",
"62 117 CURVE SMOOTH",
"63 149 OFFCURVE",
"64 181 OFFCURVE",
"66 213 CURVE SMOOTH",
"67 228 OFFCURVE",
"70 242 OFFCURVE",
"72 257 CURVE SMOOTH",
"72 257 OFFCURVE",
"73 258 OFFCURVE",
"73 259 CURVE SMOOTH",
"74 280 OFFCURVE",
"75 300 OFFCURVE",
"77 320 CURVE SMOOTH",
"78 333 OFFCURVE",
"81 345 OFFCURVE",
"83 357 CURVE SMOOTH",
"83 358 OFFCURVE",
"83 359 OFFCURVE",
"84 360 CURVE SMOOTH",
"85 376 OFFCURVE",
"86 392 OFFCURVE",
"88 408 CURVE SMOOTH",
"90 421 OFFCURVE",
"94 435 OFFCURVE",
"97 449 CURVE SMOOTH",
"98 453 OFFCURVE",
"98 458 OFFCURVE",
"98 463 CURVE SMOOTH",
"97 474 OFFCURVE",
"99 484 OFFCURVE",
"105 493 CURVE SMOOTH",
"105 494 OFFCURVE",
"105 495 OFFCURVE",
"105 496 CURVE SMOOTH",
"107 510 OFFCURVE",
"108 524 OFFCURVE",
"109 537 CURVE SMOOTH",
"110 541 OFFCURVE",
"112 545 OFFCURVE",
"112 549 CURVE SMOOTH",
"112 554 OFFCURVE",
"112 558 OFFCURVE",
"110 563 CURVE",
"109 560 OFFCURVE",
"107 556 OFFCURVE",
"105 554 CURVE SMOOTH",
"102 548 OFFCURVE",
"98 543 OFFCURVE",
"91 543 CURVE SMOOTH",
"89 543 OFFCURVE",
"85 543 OFFCURVE",
"84 542 CURVE SMOOTH",
"69 526 OFFCURVE",
"50 533 OFFCURVE",
"32 534 CURVE SMOOTH",
"25 534 OFFCURVE",
"15 539 OFFCURVE",
"9 549 CURVE SMOOTH",
"4 559 OFFCURVE",
"-4 566 OFFCURVE",
"-8 577 CURVE SMOOTH",
"-14 593 OFFCURVE",
"-14 608 OFFCURVE",
"-15 624 CURVE SMOOTH",
"-15 638 OFFCURVE",
"-12 652 OFFCURVE",
"-7 666 CURVE SMOOTH",
"-5 673 OFFCURVE",
"-5 680 OFFCURVE",
"-4 687 CURVE SMOOTH",
"-3 697 OFFCURVE",
"6 700 OFFCURVE",
"15 698 CURVE SMOOTH",
"26 697 OFFCURVE",
"33 689 OFFCURVE",
"41 685 CURVE SMOOTH",
"52 679 OFFCURVE",
"56 656 OFFCURVE",
"51 645 CURVE SMOOTH",
"47 638 OFFCURVE",
"45 630 OFFCURVE",
"44 622 CURVE SMOOTH",
"43 612 OFFCURVE",
"44 602 OFFCURVE",
"44 589 CURVE",
"52 594 OFFCURVE",
"59 597 OFFCURVE",
"65 602 CURVE SMOOTH",
"71 606 OFFCURVE",
"76 611 OFFCURVE",
"81 616 CURVE SMOOTH",
"83 618 OFFCURVE",
"83 621 OFFCURVE",
"85 623 CURVE SMOOTH",
"90 630 OFFCURVE",
"96 636 OFFCURVE",
"101 642 CURVE SMOOTH",
"103 645 OFFCURVE",
"105 649 OFFCURVE",
"107 653 CURVE SMOOTH",
"114 667 OFFCURVE",
"121 680 OFFCURVE",
"126 693 CURVE SMOOTH",
"131 707 OFFCURVE",
"132 721 OFFCURVE",
"136 735 CURVE SMOOTH",
"139 747 OFFCURVE",
"135 762 OFFCURVE",
"145 773 CURVE SMOOTH",
"145 773 OFFCURVE",
"145 775 OFFCURVE",
"145 775 CURVE SMOOTH",
"135 783 OFFCURVE",
"146 795 OFFCURVE",
"139 803 CURVE SMOOTH",
"138 804 OFFCURVE",
"138 805 OFFCURVE",
"138 807 CURVE SMOOTH",
"140 821 OFFCURVE",
"158 832 OFFCURVE",
"172 826 CURVE SMOOTH",
"173 825 OFFCURVE",
"175 823 OFFCURVE",
"176 823 CURVE SMOOTH",
"195 826 OFFCURVE",
"199 812 OFFCURVE",
"203 799 CURVE SMOOTH",
"204 797 OFFCURVE",
"205 796 OFFCURVE",
"206 794 CURVE SMOOTH",
"212 784 OFFCURVE",
"211 771 OFFCURVE",
"206 764 CURVE SMOOTH",
"195 752 OFFCURVE",
"200 737 OFFCURVE",
"196 724 CURVE SMOOTH",
"193 712 OFFCURVE",
"192 700 OFFCURVE",
"189 687 CURVE SMOOTH",
"189 685 OFFCURVE",
"189 684 OFFCURVE",
"189 682 CURVE SMOOTH",
"188 668 OFFCURVE",
"187 653 OFFCURVE",
"185 638 CURVE SMOOTH",
"183 620 OFFCURVE",
"180 601 OFFCURVE",
"177 583 CURVE SMOOTH",
"175 569 OFFCURVE",
"173 555 OFFCURVE",
"171 540 CURVE SMOOTH",
"168 526 OFFCURVE",
"166 511 OFFCURVE",
"163 496 CURVE SMOOTH",
"161 480 OFFCURVE",
"159 463 OFFCURVE",
"156 447 CURVE SMOOTH",
"154 431 OFFCURVE",
"151 415 OFFCURVE",
"149 399 CURVE SMOOTH",
"147 390 OFFCURVE",
"147 381 OFFCURVE",
"145 371 CURVE SMOOTH",
"143 360 OFFCURVE",
"140 349 OFFCURVE",
"138 338 CURVE SMOOTH",
"137 330 OFFCURVE",
"136 322 OFFCURVE",
"135 314 CURVE SMOOTH",
"134 294 OFFCURVE",
"132 274 OFFCURVE",
"131 255 CURVE SMOOTH",
"130 238 OFFCURVE",
"128 221 OFFCURVE",
"127 204 CURVE SMOOTH",
"126 181 OFFCURVE",
"125 158 OFFCURVE",
"123 135 CURVE SMOOTH",
"123 122 OFFCURVE",
"120 110 OFFCURVE",
"120 97 CURVE SMOOTH",
"120 91 OFFCURVE",
"122 83 OFFCURVE",
"125 77 CURVE SMOOTH",
"127 70 OFFCURVE",
"130 65 OFFCURVE",
"122 59 CURVE SMOOTH",
"122 59 OFFCURVE",
"122 56 OFFCURVE",
"122 54 CURVE"
);
}
);
width = 250;
}
);
unicode = 0059;
},
{
glyphname = Z;
lastChange = "2020-11-29 17:06:04 +0000";
layers = (
{
layerId = "BC2BDE5E-3D40-4D25-8676-E4E66850FFEB";
paths = (
{
closed = 1;
nodes = (
"111 584 OFFCURVE",
"103 581 OFFCURVE",
"95 578 CURVE SMOOTH",
"86 574 OFFCURVE",
"76 569 OFFCURVE",
"65 572 CURVE SMOOTH",
"61 573 OFFCURVE",
"58 574 OFFCURVE",
"54 573 CURVE SMOOTH",
"50 573 OFFCURVE",
"44 577 OFFCURVE",
"41 581 CURVE SMOOTH",
"35 588 OFFCURVE",
"29 596 OFFCURVE",
"25 605 CURVE SMOOTH",
"24 608 OFFCURVE",
"26 613 OFFCURVE",
"27 617 CURVE SMOOTH",
"29 621 OFFCURVE",
"30 624 OFFCURVE",
"33 629 CURVE",
"34 629 OFFCURVE",
"37 630 OFFCURVE",
"40 630 CURVE SMOOTH",
"51 628 OFFCURVE",
"62 632 OFFCURVE",
"73 636 CURVE SMOOTH",
"78 638 OFFCURVE",
"85 639 OFFCURVE",
"91 640 CURVE SMOOTH",
"107 643 OFFCURVE",
"124 645 OFFCURVE",
"141 648 CURVE SMOOTH",
"149 649 OFFCURVE",
"157 652 OFFCURVE",
"165 655 CURVE SMOOTH",
"169 656 OFFCURVE",
"173 660 OFFCURVE",
"177 661 CURVE SMOOTH",
"179 662 OFFCURVE",
"182 660 OFFCURVE",
"184 658 CURVE SMOOTH",
"193 654 OFFCURVE",
"201 649 OFFCURVE",
"209 646 CURVE",
"213 642 OFFCURVE",
"217 638 OFFCURVE",
"221 634 CURVE",
"223 625 OFFCURVE",
"225 615 OFFCURVE",
"226 605 CURVE SMOOTH",
"226 604 OFFCURVE",
"225 602 OFFCURVE",
"225 601 CURVE SMOOTH",
"218 594 OFFCURVE",
"213 587 OFFCURVE",
"206 581 CURVE SMOOTH",
"197 573 OFFCURVE",
"191 562 OFFCURVE",
"184 553 CURVE SMOOTH",
"177 544 OFFCURVE",
"169 536 OFFCURVE",
"162 528 CURVE SMOOTH",
"150 512 OFFCURVE",
"137 497 OFFCURVE",
"125 482 CURVE SMOOTH",
"116 472 OFFCURVE",
"106 462 OFFCURVE",
"98 451 CURVE SMOOTH",
"91 442 OFFCURVE",
"84 432 OFFCURVE",
"78 422 CURVE SMOOTH",
"74 416 OFFCURVE",
"70 411 OFFCURVE",
"66 405 CURVE SMOOTH",
"65 403 OFFCURVE",
"64 401 OFFCURVE",
"64 400 CURVE SMOOTH",
"64 399 OFFCURVE",
"67 398 OFFCURVE",
"68 398 CURVE SMOOTH",
"73 397 OFFCURVE",
"77 397 OFFCURVE",
"82 397 CURVE SMOOTH",
"98 396 OFFCURVE",
"115 395 OFFCURVE",
"131 393 CURVE SMOOTH",
"144 392 OFFCURVE",
"157 391 OFFCURVE",
"170 390 CURVE SMOOTH",
"182 388 OFFCURVE",
"194 386 OFFCURVE",
"206 385 CURVE SMOOTH",
"220 384 OFFCURVE",
"233 384 OFFCURVE",
"246 382 CURVE SMOOTH",
"260 381 OFFCURVE",
"273 378 OFFCURVE",
"283 368 CURVE SMOOTH",
"287 363 OFFCURVE",
"290 356 OFFCURVE",
"291 350 CURVE SMOOTH",
"292 344 OFFCURVE",
"290 337 OFFCURVE",
"289 331 CURVE SMOOTH",
"289 329 OFFCURVE",
"289 327 OFFCURVE",
"288 326 CURVE SMOOTH",
"286 320 OFFCURVE",
"284 315 OFFCURVE",
"275 317 CURVE SMOOTH",
"264 319 OFFCURVE",
"251 319 OFFCURVE",
"240 321 CURVE SMOOTH",
"231 322 OFFCURVE",
"223 325 OFFCURVE",
"215 327 CURVE SMOOTH",
"211 328 OFFCURVE",
"206 326 OFFCURVE",
"201 327 CURVE SMOOTH",
"185 330 OFFCURVE",
"168 335 OFFCURVE",
"152 334 CURVE SMOOTH",
"141 334 OFFCURVE",
"129 336 OFFCURVE",
"118 336 CURVE SMOOTH",
"95 336 OFFCURVE",
"72 338 OFFCURVE",
"48 340 CURVE SMOOTH",
"42 341 OFFCURVE",
"37 339 OFFCURVE",
"33 335 CURVE SMOOTH",
"30 333 OFFCURVE",
"27 332 OFFCURVE",
"24 332 CURVE SMOOTH",
"10 332 OFFCURVE",
"-4 333 OFFCURVE",
"-13 344 CURVE SMOOTH",
"-20 351 OFFCURVE",
"-27 358 OFFCURVE",
"-31 369 CURVE SMOOTH",
"-34 378 OFFCURVE",
"-33 385 OFFCURVE",
"-31 393 CURVE SMOOTH",
"-30 395 OFFCURVE",
"-29 399 OFFCURVE",
"-27 400 CURVE SMOOTH",
"-5 408 OFFCURVE",
"3 427 OFFCURVE",
"13 445 CURVE SMOOTH",
"16 451 OFFCURVE",
"21 457 OFFCURVE",
"26 463 CURVE SMOOTH",
"37 478 OFFCURVE",
"47 493 OFFCURVE",
"58 508 CURVE SMOOTH",
"67 519 OFFCURVE",
"76 529 OFFCURVE",
"85 540 CURVE SMOOTH",
"97 555 OFFCURVE",
"108 569 OFFCURVE",
"120 584 CURVE",
"120 585 OFFCURVE",
"119 586 OFFCURVE",
"119 587 CURVE"
);
}
);
width = 300;
}
);
unicode = 005A;
},
{
glyphname = a;
lastChange = "2020-11-29 17:06:09 +0000";
layers = (
{
layerId = "BC2BDE5E-3D40-4D25-8676-E4E66850FFEB";
paths = (
{
closed = 1;
nodes = (
"71 357 OFFCURVE",
"67 349 OFFCURVE",
"63 341 CURVE",
"62 337 OFFCURVE",
"63 332 OFFCURVE",
"62 327 CURVE",
"61 313 OFFCURVE",
"59 299 OFFCURVE",
"59 284 CURVE",
"59 272 OFFCURVE",
"52 263 OFFCURVE",
"46 254 CURVE",
"44 252 OFFCURVE",
"37 252 OFFCURVE",
"33 253 CURVE",
"27 255 OFFCURVE",
"21 259 OFFCURVE",
"15 262 CURVE",
"13 263 OFFCURVE",
"12 264 OFFCURVE",
"10 265 CURVE",
"-3 276 OFFCURVE",
"-7 293 OFFCURVE",
"0 311 CURVE",
"1 312 OFFCURVE",
"0 313 OFFCURVE",
"1 314 CURVE",
"2 330 OFFCURVE",
"2 346 OFFCURVE",
"5 362 CURVE",
"7 376 OFFCURVE",
"11 390 OFFCURVE",
"15 405 CURVE",
"16 411 OFFCURVE",
"17 417 OFFCURVE",
"19 423 CURVE",
"22 438 OFFCURVE",
"26 452 OFFCURVE",
"29 468 CURVE",
"31 474 OFFCURVE",
"32 480 OFFCURVE",
"33 486 CURVE",
"34 499 OFFCURVE",
"35 511 OFFCURVE",
"37 524 CURVE",
"38 533 OFFCURVE",
"41 542 OFFCURVE",
"43 552 CURVE",
"45 560 OFFCURVE",
"47 570 OFFCURVE",
"47 579 CURVE",
"48 589 OFFCURVE",
"49 600 OFFCURVE",
"54 609 CURVE",
"55 611 OFFCURVE",
"55 612 OFFCURVE",
"55 614 CURVE",
"56 627 OFFCURVE",
"64 632 OFFCURVE",
"76 625 CURVE",
"77 628 OFFCURVE",
"77 631 OFFCURVE",
"78 636 CURVE",
"80 632 OFFCURVE",
"81 629 OFFCURVE",
"82 625 CURVE",
"83 629 OFFCURVE",
"84 633 OFFCURVE",
"85 635 CURVE",
"87 637 OFFCURVE",
"90 639 OFFCURVE",
"93 641 CURVE",
"89 643 OFFCURVE",
"86 645 OFFCURVE",
"81 648 CURVE",
"81 659 OFFCURVE",
"92 651 OFFCURVE",
"99 656 CURVE",
"98 659 OFFCURVE",
"98 663 OFFCURVE",
"97 668 CURVE",
"94 666 OFFCURVE",
"92 664 OFFCURVE",
"87 661 CURVE",
"87 664 OFFCURVE",
"87 667 OFFCURVE",
"88 669 CURVE",
"89 674 OFFCURVE",
"90 679 OFFCURVE",
"91 683 CURVE",
"92 686 OFFCURVE",
"93 688 OFFCURVE",
"93 691 CURVE",
"93 694 OFFCURVE",
"93 698 OFFCURVE",
"92 702 CURVE",
"90 708 OFFCURVE",
"85 715 OFFCURVE",
"85 721 CURVE",
"85 726 OFFCURVE",
"89 733 OFFCURVE",
"94 736 CURVE",
"99 740 OFFCURVE",
"106 743 OFFCURVE",
"114 738 CURVE",
"124 733 OFFCURVE",
"135 730 OFFCURVE",
"145 726 CURVE",
"150 724 OFFCURVE",
"160 711 OFFCURVE",
"160 703 CURVE",
"162 682 OFFCURVE",
"168 662 OFFCURVE",
"176 642 CURVE",
"180 631 OFFCURVE",
"182 620 OFFCURVE",
"186 608 CURVE",
"188 601 OFFCURVE",
"190 594 OFFCURVE",
"192 586 CURVE",
"193 584 OFFCURVE",
"192 582 OFFCURVE",
"193 579 CURVE",
"195 570 OFFCURVE",
"197 560 OFFCURVE",
"199 550 CURVE",
"200 544 OFFCURVE",
"203 539 OFFCURVE",
"202 533 CURVE",
"202 519 OFFCURVE",
"210 508 OFFCURVE",
"211 496 CURVE",
"213 482 OFFCURVE",
"216 468 OFFCURVE",
"221 454 CURVE",
"221 454 OFFCURVE",
"222 453 OFFCURVE",
"222 453 CURVE",
"223 440 OFFCURVE",
"224 428 OFFCURVE",
"226 413 CURVE",
"222 417 OFFCURVE",
"219 419 OFFCURVE",
"217 422 CURVE",
"216 421 OFFCURVE",
"216 421 OFFCURVE",
"215 421 CURVE",
"217 413 OFFCURVE",
"218 405 OFFCURVE",
"220 397 CURVE",
"223 399 OFFCURVE",
"225 401 OFFCURVE",
"227 404 CURVE",
"228 403 OFFCURVE",
"229 403 OFFCURVE",
"230 402 CURVE",
"228 400 OFFCURVE",
"226 398 OFFCURVE",
"225 395 CURVE",
"224 392 OFFCURVE",
"223 388 OFFCURVE",
"223 384 CURVE",
"226 384 OFFCURVE",
"228 383 OFFCURVE",
"233 383 CURVE",
"232 381 OFFCURVE",
"230 379 OFFCURVE",
"228 378 CURVE",
"226 376 OFFCURVE",
"224 375 OFFCURVE",
"223 372 CURVE",
"227 373 OFFCURVE",
"231 374 OFFCURVE",
"236 375 CURVE",
"239 361 OFFCURVE",
"242 347 OFFCURVE",
"245 334 CURVE",
"247 324 OFFCURVE",
"249 315 OFFCURVE",
"254 306 CURVE",
"258 298 OFFCURVE",
"257 288 OFFCURVE",
"258 278 CURVE",
"259 270 OFFCURVE",
"261 262 OFFCURVE",
"262 254 CURVE",
"262 253 OFFCURVE",
"263 251 OFFCURVE",
"264 251 CURVE",
"270 247 OFFCURVE",
"269 243 OFFCURVE",
"266 236 CURVE",
"263 228 OFFCURVE",
"257 223 OFFCURVE",
"250 219 CURVE",
"249 219 OFFCURVE",
"247 218 OFFCURVE",
"246 218 CURVE",
"235 224 OFFCURVE",
"220 223 OFFCURVE",
"211 235 CURVE",
"210 236 OFFCURVE",
"209 237 OFFCURVE",
"207 237 CURVE",
"196 242 OFFCURVE",
"197 254 OFFCURVE",
"193 263 CURVE",
"192 267 OFFCURVE",
"190 270 OFFCURVE",
"190 274 CURVE",
"190 278 OFFCURVE",
"192 283 OFFCURVE",
"193 288 CURVE",
"193 291 OFFCURVE",
"193 293 OFFCURVE",
"193 296 CURVE",
"192 306 OFFCURVE",
"191 317 OFFCURVE",
"189 328 CURVE",
"188 337 OFFCURVE",
"185 346 OFFCURVE",
"183 355 CURVE",
"182 364 OFFCURVE",
"179 372 OFFCURVE",
"179 381 CURVE",
"178 391 OFFCURVE",
"175 393 OFFCURVE",
"166 390 CURVE",
"153 385 OFFCURVE",
"140 381 OFFCURVE",
"128 378 CURVE",
"110 373 OFFCURVE",
"92 369 OFFCURVE",
"74 364 CURVE"
);
},
{
closed = 1;
nodes = (
"126 599 OFFCURVE",
"123 586 OFFCURVE",
"120 573 CURVE",
"118 562 OFFCURVE",
"116 550 OFFCURVE",
"113 539 CURVE",
"111 527 OFFCURVE",
"108 516 OFFCURVE",
"106 504 CURVE",
"105 498 OFFCURVE",
"103 491 OFFCURVE",
"102 484 CURVE",
"101 481 OFFCURVE",
"100 477 OFFCURVE",
"99 474 CURVE",
"97 470 OFFCURVE",
"95 466 OFFCURVE",
"94 462 CURVE",
"93 458 OFFCURVE",
"93 455 OFFCURVE",
"93 451 CURVE",
"92 447 OFFCURVE",
"93 443 OFFCURVE",
"92 439 CURVE",
"91 435 OFFCURVE",
"89 431 OFFCURVE",
"86 426 CURVE",
"96 428 OFFCURVE",
"103 430 OFFCURVE",
"109 432 CURVE",
"126 438 OFFCURVE",
"143 445 OFFCURVE",
"159 451 CURVE",
"161 452 OFFCURVE",
"162 455 OFFCURVE",
"162 457 CURVE",
"162 462 OFFCURVE",
"161 468 OFFCURVE",
"160 473 CURVE",
"160 476 OFFCURVE",
"159 479 OFFCURVE",
"159 482 CURVE",
"157 489 OFFCURVE",
"155 496 OFFCURVE",
"153 504 CURVE",
"150 517 OFFCURVE",
"148 530 OFFCURVE",
"145 543 CURVE",
"142 559 OFFCURVE",
"138 574 OFFCURVE",
"135 590 CURVE",
"133 597 OFFCURVE",
"131 605 OFFCURVE",
"129 614 CURVE"
);
},
{
closed = 1;
nodes = (
"190 534 OFFCURVE",
"192 525 OFFCURVE",
"194 516 CURVE",
"199 526 OFFCURVE",
"196 538 OFFCURVE",
"188 544 CURVE"
);
},
{
closed = 1;
nodes = (
"176 574 OFFCURVE",
"184 568 OFFCURVE",
"189 561 CURVE",
"188 569 OFFCURVE",
"187 576 OFFCURVE",
"185 586 CURVE"
);
}
);
width = 300;
}
);
unicode = 0061;
},
{
glyphname = b;
lastChange = "2020-11-29 17:06:28 +0000";
layers = (
{
layerId = "BC2BDE5E-3D40-4D25-8676-E4E66850FFEB";
paths = (
{
closed = 1;
nodes = (
"114 -102 OFFCURVE",
"110 -104 OFFCURVE",
"106 -107 CURVE",
"99 -113 OFFCURVE",
"88 -114 OFFCURVE",
"81 -108 CURVE",
"74 -102 OFFCURVE",
"67 -96 OFFCURVE",
"60 -90 CURVE",
"53 -85 OFFCURVE",
"52 -79 OFFCURVE",
"52 -71 CURVE",
"52 -66 OFFCURVE",
"52 -62 OFFCURVE",
"52 -57 CURVE",
"50 -42 OFFCURVE",
"47 -28 OFFCURVE",
"45 -13 CURVE",
"43 -3 OFFCURVE",
"42 7 OFFCURVE",
"41 16 CURVE",
"40 32 OFFCURVE",
"39 48 OFFCURVE",
"37 64 CURVE",
"36 79 OFFCURVE",
"33 94 OFFCURVE",
"32 109 CURVE",
"31 118 OFFCURVE",
"31 128 OFFCURVE",
"30 137 CURVE",
"29 162 OFFCURVE",
"28 186 OFFCURVE",
"26 211 CURVE",
"25 229 OFFCURVE",
"26 247 OFFCURVE",
"22 265 CURVE",
"18 284 OFFCURVE",
"21 303 OFFCURVE",
"19 321 CURVE",
"17 336 OFFCURVE",
"14 350 OFFCURVE",
"12 364 CURVE",
"12 370 OFFCURVE",
"11 377 OFFCURVE",
"13 382 CURVE",
"16 390 OFFCURVE",
"17 398 OFFCURVE",
"13 406 CURVE",
"12 407 OFFCURVE",
"12 409 OFFCURVE",
"12 410 CURVE",
"15 423 OFFCURVE",
"11 436 OFFCURVE",
"9 448 CURVE",
"7 455 OFFCURVE",
"9 463 OFFCURVE",
"8 470 CURVE",
"8 478 OFFCURVE",
"6 485 OFFCURVE",
"6 492 CURVE",
"5 498 OFFCURVE",
"5 504 OFFCURVE",
"5 510 CURVE",
"3 531 OFFCURVE",
"3 553 OFFCURVE",
"1 574 CURVE",
"0 582 OFFCURVE",
"0 590 OFFCURVE",
"0 598 CURVE",
"1 612 OFFCURVE",
"1 627 OFFCURVE",
"-3 641 CURVE",
"-7 654 OFFCURVE",
"-5 666 OFFCURVE",
"-6 679 CURVE",
"-8 701 OFFCURVE",
"-7 724 OFFCURVE",
"-10 746 CURVE",
"-14 766 OFFCURVE",
"-12 785 OFFCURVE",
"-13 804 CURVE",
"-15 827 OFFCURVE",
"-16 850 OFFCURVE",
"-17 872 CURVE",
"-18 885 OFFCURVE",
"-19 897 OFFCURVE",
"-21 909 CURVE",
"-22 917 OFFCURVE",
"-24 924 OFFCURVE",
"-27 931 CURVE",
"-30 939 OFFCURVE",
"-27 946 OFFCURVE",
"-23 952 CURVE",
"-21 955 OFFCURVE",
"-14 957 OFFCURVE",
"-7 954 CURVE",
"2 949 OFFCURVE",
"12 946 OFFCURVE",
"22 942 CURVE",
"24 940 OFFCURVE",
"26 937 OFFCURVE",
"28 935 CURVE",
"33 928 OFFCURVE",
"38 921 OFFCURVE",
"43 915 CURVE",
"42 912 OFFCURVE",
"42 908 OFFCURVE",
"41 904 CURVE",
"40 895 OFFCURVE",
"37 886 OFFCURVE",
"38 878 CURVE",
"38 868 OFFCURVE",
"41 858 OFFCURVE",
"43 848 CURVE",
"43 846 OFFCURVE",
"44 843 OFFCURVE",
"45 840 CURVE",
"46 826 OFFCURVE",
"47 811 OFFCURVE",
"48 797 CURVE",
"48 793 OFFCURVE",
"45 789 OFFCURVE",
"45 785 CURVE",
"46 774 OFFCURVE",
"47 764 OFFCURVE",
"48 752 CURVE",
"57 756 OFFCURVE",
"64 759 OFFCURVE",
"72 761 CURVE",
"79 764 OFFCURVE",
"86 766 OFFCURVE",
"93 768 CURVE",
"101 771 OFFCURVE",
"110 773 OFFCURVE",
"118 775 CURVE",
"119 775 OFFCURVE",
"120 775 OFFCURVE",
"121 775 CURVE",
"135 773 OFFCURVE",
"150 772 OFFCURVE",
"164 769 CURVE",
"172 768 OFFCURVE",
"179 760 OFFCURVE",
"187 759 CURVE",
"199 756 OFFCURVE",
"204 747 OFFCURVE",
"211 741 CURVE",
"213 739 OFFCURVE",
"214 735 OFFCURVE",
"215 732 CURVE",
"216 728 OFFCURVE",
"217 724 OFFCURVE",
"218 720 CURVE",
"218 718 OFFCURVE",
"219 716 OFFCURVE",
"219 713 CURVE",
"217 705 OFFCURVE",
"216 696 OFFCURVE",
"215 688 CURVE",
"214 683 OFFCURVE",
"213 679 OFFCURVE",
"211 674 CURVE",
"207 654 OFFCURVE",
"202 634 OFFCURVE",
"197 615 CURVE",
"194 607 OFFCURVE",
"189 600 OFFCURVE",
"186 592 CURVE",
"183 584 OFFCURVE",
"182 577 OFFCURVE",
"179 569 CURVE",
"174 556 OFFCURVE",
"168 542 OFFCURVE",
"162 529 CURVE",
"153 508 OFFCURVE",
"144 487 OFFCURVE",
"135 466 CURVE",
"128 449 OFFCURVE",
"121 432 OFFCURVE",
"114 416 CURVE",
"113 414 OFFCURVE",
"113 412 OFFCURVE",
"113 409 CURVE",
"119 410 OFFCURVE",
"125 412 OFFCURVE",
"131 413 CURVE",
"148 414 OFFCURVE",
"166 415 OFFCURVE",
"184 417 CURVE",
"188 417 OFFCURVE",
"192 419 OFFCURVE",
"197 420 CURVE",
"205 421 OFFCURVE",
"213 422 OFFCURVE",
"221 423 CURVE",
"226 424 OFFCURVE",
"232 425 OFFCURVE",
"236 426 CURVE",
"241 424 OFFCURVE",
"246 422 OFFCURVE",
"250 419 CURVE",
"254 416 OFFCURVE",
"258 413 OFFCURVE",
"262 409 CURVE",
"263 408 OFFCURVE",
"263 407 OFFCURVE",
"264 406 CURVE",
"277 398 OFFCURVE",
"271 389 OFFCURVE",
"267 379 CURVE",
"260 365 OFFCURVE",
"252 350 OFFCURVE",
"245 335 CURVE",
"235 313 OFFCURVE",
"225 291 OFFCURVE",
"215 268 CURVE",
"201 236 OFFCURVE",
"185 205 OFFCURVE",
"173 171 CURVE",
"166 150 OFFCURVE",
"154 131 OFFCURVE",
"146 111 CURVE",
"145 108 OFFCURVE",
"143 107 OFFCURVE",
"142 105 CURVE",
"138 100 OFFCURVE",
"136 94 OFFCURVE",
"136 87 CURVE",
"135 74 OFFCURVE",
"134 60 OFFCURVE",
"132 47 CURVE",
"130 40 OFFCURVE",
"126 33 OFFCURVE",
"123 27 CURVE",
"122 25 OFFCURVE",
"118 25 OFFCURVE",
"116 25 CURVE",
"104 24 OFFCURVE",
"99 16 OFFCURVE",
"103 4 CURVE",
"106 -4 OFFCURVE",
"108 -13 OFFCURVE",
"110 -21 CURVE",
"113 -37 OFFCURVE",
"114 -52 OFFCURVE",
"117 -67 CURVE",
"118 -72 OFFCURVE",
"124 -77 OFFCURVE",
"124 -81 CURVE",
"124 -88 OFFCURVE",
"122 -95 OFFCURVE",
"120 -102 CURVE",
"120 -101 OFFCURVE",
"119 -101 OFFCURVE",
"118 -100 CURVE"
);
},
{
closed = 1;
nodes = (
"74 490 OFFCURVE",
"80 505 OFFCURVE",
"86 519 CURVE",
"90 530 OFFCURVE",
"95 541 OFFCURVE",
"99 551 CURVE",
"102 558 OFFCURVE",
"108 564 OFFCURVE",
"109 571 CURVE",
"114 589 OFFCURVE",
"127 604 OFFCURVE",
"129 623 CURVE",
"131 640 OFFCURVE",
"138 656 OFFCURVE",
"142 672 CURVE",
"145 682 OFFCURVE",
"146 692 OFFCURVE",
"149 701 CURVE",
"153 715 OFFCURVE",
"149 723 OFFCURVE",
"136 721 CURVE",
"135 721 OFFCURVE",
"133 720 OFFCURVE",
"132 720 CURVE",
"123 717 OFFCURVE",
"113 714 OFFCURVE",
"104 711 CURVE",
"97 708 OFFCURVE",
"91 704 OFFCURVE",
"84 701 CURVE",
"75 696 OFFCURVE",
"67 689 OFFCURVE",
"57 685 CURVE",
"52 683 OFFCURVE",
"51 682 OFFCURVE",
"51 676 CURVE",
"53 660 OFFCURVE",
"54 643 OFFCURVE",
"55 627 CURVE",
"56 618 OFFCURVE",
"55 609 OFFCURVE",
"56 600 CURVE",
"56 593 OFFCURVE",
"59 586 OFFCURVE",
"59 579 CURVE",
"58 564 OFFCURVE",
"58 548 OFFCURVE",
"61 534 CURVE",
"62 524 OFFCURVE",
"63 518 OFFCURVE",
"54 511 CURVE",
"63 510 OFFCURVE",
"63 505 OFFCURVE",
"63 499 CURVE",
"62 494 OFFCURVE",
"62 490 OFFCURVE",
"63 485 CURVE",
"63 482 OFFCURVE",
"65 478 OFFCURVE",
"67 474 CURVE"
);
},
{
closed = 1;
nodes = (
"89 145 OFFCURVE",
"90 145 OFFCURVE",
"91 145 CURVE",
"94 153 OFFCURVE",
"96 161 OFFCURVE",
"100 169 CURVE",
"111 191 OFFCURVE",
"121 213 OFFCURVE",
"129 237 CURVE",
"134 252 OFFCURVE",
"139 266 OFFCURVE",
"148 279 CURVE",
"150 282 OFFCURVE",
"150 287 OFFCURVE",
"151 290 CURVE",
"156 301 OFFCURVE",
"163 311 OFFCURVE",
"168 322 CURVE",
"172 332 OFFCURVE",
"174 344 OFFCURVE",
"180 354 CURVE",
"185 362 OFFCURVE",
"181 363 OFFCURVE",
"175 362 CURVE",
"170 361 OFFCURVE",
"165 359 OFFCURVE",
"160 359 CURVE",
"148 358 OFFCURVE",
"135 358 OFFCURVE",
"124 351 CURVE",
"113 343 OFFCURVE",
"98 345 OFFCURVE",
"87 335 CURVE",
"83 330 OFFCURVE",
"76 329 OFFCURVE",
"77 320 CURVE",
"77 314 OFFCURVE",
"74 308 OFFCURVE",
"75 301 CURVE",
"76 286 OFFCURVE",
"79 270 OFFCURVE",
"81 254 CURVE",
"82 247 OFFCURVE",
"83 239 OFFCURVE",
"84 232 CURVE",
"84 229 OFFCURVE",
"84 227 OFFCURVE",
"83 224 CURVE",
"83 222 OFFCURVE",
"81 220 OFFCURVE",
"81 219 CURVE",
"83 205 OFFCURVE",
"86 192 OFFCURVE",
"88 178 CURVE",
"89 167 OFFCURVE",
"88 156 OFFCURVE",
"88 145 CURVE"
);
},
{
closed = 1;
nodes = (
"46 516 OFFCURVE",
"46 490 OFFCURVE",
"50 479 CURVE",
"52 486 OFFCURVE",
"53 492 OFFCURVE",
"54 496 CURVE",
"53 505 OFFCURVE",
"52 513 OFFCURVE",
"51 522 CURVE"
);
},
{
closed = 1;
nodes = (
"40 611 OFFCURVE",
"41 601 OFFCURVE",
"42 590 CURVE",
"43 591 OFFCURVE",
"44 592 OFFCURVE",
"44 592 CURVE",
"48 598 OFFCURVE",
"42 606 OFFCURVE",
"45 609 CURVE",
"50 618 OFFCURVE",
"44 619 OFFCURVE",
"39 622 CURVE"
);
},
{
closed = 1;
nodes = (
"46 654 OFFCURVE",
"46 658 OFFCURVE",
"38 667 CURVE",
"38 659 OFFCURVE",
"38 652 OFFCURVE",
"38 644 CURVE"
);
}
);
width = 300;
}
);
unicode = 0062;
},
{
glyphname = c;
lastChange = "2020-11-29 17:06:41 +0000";
layers = (
{
layerId = "BC2BDE5E-3D40-4D25-8676-E4E66850FFEB";
paths = (
{
closed = 1;
nodes = (
"229.442 110.159 OFFCURVE",
"226.817 108.524 OFFCURVE",
"224.042 106.796 CURVE",
"234.131 97.049 OFFCURVE",
"234.18 90.07 OFFCURVE",
"226.763 78.721 CURVE",
"222.583 72.325 OFFCURVE",
"219.86 64.927 OFFCURVE",
"216.858 57.82 CURVE",
"212.015 46.354 OFFCURVE",
"207.514 35.199 OFFCURVE",
"193.913 30.587 CURVE",
"188.997 28.919 OFFCURVE",
"185.815 22.705 OFFCURVE",
"181.186 19.518 CURVE",
"167.833 10.326 OFFCURVE",
"153.062 5.502 OFFCURVE",
"137.152 1.316 CURVE",
"121.81 -2.72 OFFCURVE",
"108.841 3.892 OFFCURVE",
"94.755 3.058 CURVE",
"92.472 2.923 OFFCURVE",
"90.13 5.567 OFFCURVE",
"87.652 6.48 CURVE",
"84.969 7.47 OFFCURVE",
"82.033 7.757 OFFCURVE",
"79.318 8.676 CURVE",
"75.644 9.919 OFFCURVE",
"72.174 11.842 OFFCURVE",
"68.445 12.826 CURVE",
"53.188 16.853 OFFCURVE",
"45.047 28.792 OFFCURVE",
"34.965 39.631 CURVE",
"26.641 48.581 OFFCURVE",
"23.776 59.178 OFFCURVE",
"18.241 68.892 CURVE",
"17.818 69.635 OFFCURVE",
"17.749 70.625 OFFCURVE",
"17.674 71.513 CURVE",
"16.428 86.231 OFFCURVE",
"15.14 100.945 OFFCURVE",
"14 115.671 CURVE",
"12.695 132.543 OFFCURVE",
"13.714 149.974 OFFCURVE",
"9.662 166.143 CURVE",
"5.876 181.256 OFFCURVE",
"7.712 195.92 OFFCURVE",
"6.792 210.75 CURVE",
"5.188 236.614 OFFCURVE",
"3.885 262.498 OFFCURVE",
"2.655 288.383 CURVE",
"2.331 295.209 OFFCURVE",
"2.951 302.075 OFFCURVE",
"2.769 308.913 CURVE",
"1.733 347.821 OFFCURVE",
"-0.351 386.732 OFFCURVE",
"-0.136 425.63 CURVE",
"-0.026 445.579 OFFCURVE",
"4.345 465.484 OFFCURVE",
"6.379 485.451 CURVE",
"8.024 501.594 OFFCURVE",
"8.934 517.81 OFFCURVE",
"10.401 533.974 CURVE",
"11.348 544.416 OFFCURVE",
"13.12 554.795 OFFCURVE",
"13.772 565.25 CURVE",
"14.367 574.795 OFFCURVE",
"13.095 584.501 OFFCURVE",
"14.172 593.962 CURVE",
"16.07 610.636 OFFCURVE",
"18.884 627.221 OFFCURVE",
"21.796 643.757 CURVE",
"23.521 653.549 OFFCURVE",
"26.561 663.109 OFFCURVE",
"28.298 672.9 CURVE",
"30.145 683.313 OFFCURVE",
"30.958 693.906 OFFCURVE",
"32.624 704.357 CURVE",
"33.254 708.312 OFFCURVE",
"35.076 712.068 OFFCURVE",
"36.223 715.953 CURVE",
"37.358 719.791 OFFCURVE",
"38.457 723.648 OFFCURVE",
"39.343 727.549 CURVE",
"41.693 737.896 OFFCURVE",
"45.55 748.222 OFFCURVE",
"45.866 758.645 CURVE",
"46.601 782.893 OFFCURVE",
"63.017 799.98 OFFCURVE",
"72.927 819.712 CURVE",
"80.523 834.838 OFFCURVE",
"94.244 846.826 OFFCURVE",
"110.338 854.918 CURVE",
"119.63 859.591 OFFCURVE",
"128.425 865.356 OFFCURVE",
"137.084 871.164 CURVE",
"157.441 884.82 OFFCURVE",
"180.518 886.25 OFFCURVE",
"203.273 883.225 CURVE",
"215.522 881.596 OFFCURVE",
"226.906 873.435 OFFCURVE",
"238.671 868.203 CURVE",
"240.255 867.498 OFFCURVE",
"241.878 866.822 OFFCURVE",
"243.328 865.892 CURVE",
"247.538 863.191 OFFCURVE",
"251.669 860.368 OFFCURVE",
"255.831 857.594 CURVE",
"255.415 856.809 OFFCURVE",
"255 856.025 OFFCURVE",
"254.584 855.241 CURVE",
"257.263 855.042 OFFCURVE",
"259.941 854.844 OFFCURVE",
"265.043 854.466 CURVE",
"267.061 845.293 OFFCURVE",
"270.386 835.635 OFFCURVE",
"270.983 825.812 CURVE",
"271.498 817.327 OFFCURVE",
"269.365 808.558 OFFCURVE",
"267.578 800.088 CURVE",
"265.357 789.561 OFFCURVE",
"252.473 784.855 OFFCURVE",
"245.542 792.909 CURVE",
"234.456 805.79 OFFCURVE",
"216.142 810.746 OFFCURVE",
"208.745 827.413 CURVE",
"208.267 828.492 OFFCURVE",
"205.266 829.566 OFFCURVE",
"204.125 829.069 CURVE",
"182.919 819.821 OFFCURVE",
"160.499 812.485 OFFCURVE",
"145.572 793.01 CURVE",
"137.121 781.984 OFFCURVE",
"127.334 771.749 OFFCURVE",
"120.455 759.827 CURVE",
"114.669 749.8 OFFCURVE",
"112.042 737.908 OFFCURVE",
"108.341 726.734 CURVE",
"104.751 715.897 OFFCURVE",
"101.231 705.013 OFFCURVE",
"98.335 693.978 CURVE",
"96.251 686.036 OFFCURVE",
"95.219 677.815 OFFCURVE",
"93.762 669.711 CURVE",
"92.524 662.823 OFFCURVE",
"91.477 655.898 OFFCURVE",
"90.118 649.034 CURVE",
"88.192 639.309 OFFCURVE",
"86.067 629.623 OFFCURVE",
"83.998 619.928 CURVE",
"83.75 618.769 OFFCURVE",
"83.094 617.667 OFFCURVE",
"83.007 616.51 CURVE",
"81.722 599.471 OFFCURVE",
"80.672 582.411 OFFCURVE",
"79.2 565.388 CURVE",
"78.382 555.931 OFFCURVE",
"76.242 546.558 OFFCURVE",
"75.847 537.1 CURVE",
"75.251 522.812 OFFCURVE",
"76.502 508.415 OFFCURVE",
"75.385 494.189 CURVE",
"74.415 481.844 OFFCURVE",
"71.243 469.672 OFFCURVE",
"69.051 457.423 CURVE",
"68.839 456.241 OFFCURVE",
"68.315 454.983 OFFCURVE",
"68.531 453.877 CURVE",
"71.582 438.304 OFFCURVE",
"67.254 422.811 OFFCURVE",
"68.177 407.199 CURVE",
"69.121 391.241 OFFCURVE",
"67.509 375.123 OFFCURVE",
"68.601 359.184 CURVE",
"70.081 337.587 OFFCURVE",
"67.616 316.108 OFFCURVE",
"68.248 294.551 CURVE",
"68.885 272.83 OFFCURVE",
"67.93 251.063 OFFCURVE",
"68.542 229.341 CURVE",
"69.151 207.761 OFFCURVE",
"70.671 186.199 OFFCURVE",
"72.124 164.651 CURVE",
"72.959 152.254 OFFCURVE",
"74.445 139.901 OFFCURVE",
"75.654 127.53 CURVE",
"76.854 115.247 OFFCURVE",
"77.693 102.911 OFFCURVE",
"79.456 90.708 CURVE",
"80.259 85.152 OFFCURVE",
"83.154 79.929 OFFCURVE",
"84.635 74.43 CURVE",
"85.737 70.338 OFFCURVE",
"84.896 65.278 OFFCURVE",
"87.008 61.991 CURVE",
"92.546 53.369 OFFCURVE",
"109.851 50.214 OFFCURVE",
"119.251 55.229 CURVE",
"120.01 55.634 OFFCURVE",
"120.647 56.748 OFFCURVE",
"121.333 56.741 CURVE",
"138.73 56.56 OFFCURVE",
"146.721 68.736 OFFCURVE",
"156.658 80.598 CURVE",
"168.525 94.763 OFFCURVE",
"176.811 110.598 OFFCURVE",
"184.678 126.701 CURVE",
"193.623 145.011 OFFCURVE",
"200.604 164.281 OFFCURVE",
"208.922 184.298 CURVE",
"209.738 177.733 OFFCURVE",
"210.477 171.783 OFFCURVE",
"211.214 165.85 CURVE",
"214.076 165.85 OFFCURVE",
"216.728 165.85 OFFCURVE",
"219.951 165.85 CURVE",
"220.515 169.476 OFFCURVE",
"221.053 172.932 OFFCURVE",
"221.749 177.406 CURVE",
"227.183 171.542 OFFCURVE",
"227.941 177.7 OFFCURVE",
"229.965 181.565 CURVE",
"232.257 173.71 OFFCURVE",
"228.358 162.742 OFFCURVE",
"241.373 166.704 CURVE",
"241.373 159.836 OFFCURVE",
"241.373 154.021 OFFCURVE",
"241.373 147.163 CURVE",
"239.656 149.656 OFFCURVE",
"238.272 151.668 OFFCURVE",
"235.961 155.025 CURVE",
"234.495 139.449 OFFCURVE",
"233.183 125.513 OFFCURVE",
"231.871 111.577 CURVE",
"232.067 111.793 LINE"
);
},
{
closed = 1;
nodes = (
"229.968 141.199 OFFCURVE",
"231.163 142.205 OFFCURVE",
"232.359 143.212 CURVE",
"229.951 145.648 OFFCURVE",
"227.667 148.242 OFFCURVE",
"225.003 150.355 CURVE",
"224.592 150.682 OFFCURVE",
"222.434 148.806 OFFCURVE",
"221.083 147.949 CURVE",
"223.646 145.363 OFFCURVE",
"226.209 142.778 OFFCURVE",
"228.772 140.192 CURVE"
);
},
{
closed = 1;
nodes = (
"234.246 118.879 OFFCURVE",
"236.625 126.18 OFFCURVE",
"238.991 133.484 CURVE SMOOTH",
"239.309 134.463 OFFCURVE",
"239.566 135.462 OFFCURVE",
"240.01 137.002 CURVE",
"246.283 127.428 OFFCURVE",
"246.283 127.428 OFFCURVE",
"232.065 104.263 CURVE",
"232.065 106.773 OFFCURVE",
"232.065 109.284 OFFCURVE",
"232.066 111.794 CURVE",
"232.067 111.793 OFFCURVE",
"231.871 111.577 OFFCURVE",
"231.871 111.577 CURVE"
);
}
);
width = 250;
}
);
unicode = 0063;
},
{
glyphname = d;
lastChange = "2020-11-29 17:06:50 +0000";
layers = (
{
layerId = "BC2BDE5E-3D40-4D25-8676-E4E66850FFEB";
paths = (
{
closed = 1;
nodes = (
"205 518 OFFCURVE",
"203 518 OFFCURVE",
"204 518 CURVE",
"205 510 OFFCURVE",
"207 504 OFFCURVE",
"208 497 CURVE",
"209 488 OFFCURVE",
"209 479 OFFCURVE",
"208 470 CURVE",
"206 456 OFFCURVE",
"203 443 OFFCURVE",
"200 429 CURVE",
"200 426 OFFCURVE",
"196 424 OFFCURVE",
"197 421 CURVE",
"196 417 OFFCURVE",
"196 413 OFFCURVE",
"195 409 CURVE",
"193 404 OFFCURVE",
"192 398 OFFCURVE",
"190 394 CURVE",
"186 385 OFFCURVE",
"182 377 OFFCURVE",
"178 370 CURVE",
"172 360 OFFCURVE",
"167 351 OFFCURVE",
"161 341 CURVE",
"158 336 OFFCURVE",
"155 331 OFFCURVE",
"152 326 CURVE",
"149 322 OFFCURVE",
"147 318 OFFCURVE",
"144 313 CURVE",
"133 316 OFFCURVE",
"134 304 OFFCURVE",
"129 298 CURVE",
"121 290 OFFCURVE",
"114 282 OFFCURVE",
"107 274 CURVE",
"106 273 OFFCURVE",
"104 271 OFFCURVE",
"103 270 CURVE",
"96 260 OFFCURVE",
"90 251 OFFCURVE",
"82 242 CURVE",
"77 237 OFFCURVE",
"70 235 OFFCURVE",
"64 231 CURVE",
"53 226 OFFCURVE",
"48 229 OFFCURVE",
"41 239 CURVE",
"38 243 OFFCURVE",
"33 247 OFFCURVE",
"28 249 CURVE",
"19 254 OFFCURVE",
"17 263 OFFCURVE",
"16 271 CURVE",
"14 293 OFFCURVE",
"13 316 OFFCURVE",
"12 338 CURVE",
"11 371 OFFCURVE",
"10 404 OFFCURVE",
"9 437 CURVE",
"8 449 OFFCURVE",
"9 461 OFFCURVE",
"9 473 CURVE",
"8 496 OFFCURVE",
"7 519 OFFCURVE",
"7 541 CURVE",
"7 555 OFFCURVE",
"6 569 OFFCURVE",
"9 581 CURVE",
"12 592 OFFCURVE",
"11 599 OFFCURVE",
"5 607 CURVE",
"5 608 OFFCURVE",
"5 610 OFFCURVE",
"5 611 CURVE",
"4 618 OFFCURVE",
"9 625 OFFCURVE",
"6 632 CURVE",
"5 634 OFFCURVE",
"10 640 OFFCURVE",
"13 641 CURVE",
"29 649 OFFCURVE",
"47 645 OFFCURVE",
"59 636 CURVE",
"70 629 OFFCURVE",
"81 627 OFFCURVE",
"91 623 CURVE",
"108 617 OFFCURVE",
"125 611 OFFCURVE",
"141 604 CURVE",
"148 601 OFFCURVE",
"154 595 OFFCURVE",
"160 590 CURVE",
"172 577 OFFCURVE",
"188 568 OFFCURVE",
"195 551 CURVE",
"197 545 OFFCURVE",
"199 539 OFFCURVE",
"201 533 CURVE",
"202 529 OFFCURVE",
"204 524 OFFCURVE",
"206 519 CURVE"
);
},
{
closed = 1;
nodes = (
"78 337 OFFCURVE",
"80 340 OFFCURVE",
"83 344 CURVE SMOOTH",
"92 358 OFFCURVE",
"102 371 OFFCURVE",
"110 385 CURVE SMOOTH",
"117 396 OFFCURVE",
"121 408 OFFCURVE",
"126 420 CURVE SMOOTH",
"132 434 OFFCURVE",
"138 448 OFFCURVE",
"142 463 CURVE SMOOTH",
"146 474 OFFCURVE",
"145 486 OFFCURVE",
"147 498 CURVE SMOOTH",
"148 502 OFFCURVE",
"150 507 OFFCURVE",
"150 511 CURVE SMOOTH",
"148 522 OFFCURVE",
"147 533 OFFCURVE",
"142 543 CURVE SMOOTH",
"139 550 OFFCURVE",
"132 558 OFFCURVE",
"125 561 CURVE SMOOTH",
"109 567 OFFCURVE",
"92 570 OFFCURVE",
"73 575 CURVE",
"72 559 OFFCURVE",
"71 542 OFFCURVE",
"70 526 CURVE SMOOTH",
"70 521 OFFCURVE",
"68 516 OFFCURVE",
"67 510 CURVE SMOOTH",
"67 510 OFFCURVE",
"67 509 OFFCURVE",
"67 508 CURVE SMOOTH",
"68 501 OFFCURVE",
"69 495 OFFCURVE",
"70 489 CURVE SMOOTH",
"72 475 OFFCURVE",
"69 462 OFFCURVE",
"69 448 CURVE SMOOTH",
"70 438 OFFCURVE",
"70 427 OFFCURVE",
"70 416 CURVE SMOOTH",
"70 398 OFFCURVE",
"70 379 OFFCURVE",
"70 361 CURVE SMOOTH",
"71 351 OFFCURVE",
"73 342 OFFCURVE",
"74 332 CURVE"
);
}
);
width = 250;
}
);
unicode = 0064;
},
{
glyphname = e;
lastChange = "2020-11-29 17:07:23 +0000";
layers = (
{
layerId = "BC2BDE5E-3D40-4D25-8676-E4E66850FFEB";
paths = (
{
closed = 1;
nodes = (
"74 498 OFFCURVE",
"75 493 OFFCURVE",
"74 488 CURVE SMOOTH",
"73 477 OFFCURVE",
"72 467 OFFCURVE",
"71 456 CURVE SMOOTH",
"70 453 OFFCURVE",
"71 450 OFFCURVE",
"71 446 CURVE",
"77 447 OFFCURVE",
"82 448 OFFCURVE",
"87 450 CURVE SMOOTH",
"105 458 OFFCURVE",
"122 465 OFFCURVE",
"139 473 CURVE SMOOTH",
"143 474 OFFCURVE",
"146 477 OFFCURVE",
"151 478 CURVE SMOOTH",
"159 480 OFFCURVE",
"168 483 OFFCURVE",
"177 482 CURVE SMOOTH",
"190 482 OFFCURVE",
"201 477 OFFCURVE",
"212 470 CURVE SMOOTH",
"214 469 OFFCURVE",
"216 467 OFFCURVE",
"216 465 CURVE SMOOTH",
"215 458 OFFCURVE",
"220 455 OFFCURVE",
"226 453 CURVE",
"223 448 OFFCURVE",
"221 443 OFFCURVE",
"217 440 CURVE SMOOTH",
"211 435 OFFCURVE",
"204 432 OFFCURVE",
"197 429 CURVE SMOOTH",
"188 425 OFFCURVE",
"178 420 OFFCURVE",
"169 416 CURVE SMOOTH",
"161 413 OFFCURVE",
"152 410 OFFCURVE",
"143 406 CURVE SMOOTH",
"141 406 OFFCURVE",
"139 404 OFFCURVE",
"138 404 CURVE SMOOTH",
"135 402 OFFCURVE",
"132 401 OFFCURVE",
"129 399 CURVE SMOOTH",
"126 398 OFFCURVE",
"123 397 OFFCURVE",
"120 395 CURVE",
"120 395 OFFCURVE",
"120 394 OFFCURVE",
"120 393 CURVE",
"118 393 OFFCURVE",
"116 394 OFFCURVE",
"114 393 CURVE SMOOTH",
"102 389 OFFCURVE",
"90 384 OFFCURVE",
"78 382 CURVE SMOOTH",
"71 380 OFFCURVE",
"67 378 OFFCURVE",
"67 370 CURVE SMOOTH",
"67 356 OFFCURVE",
"67 342 OFFCURVE",
"67 327 CURVE",
"89 338 OFFCURVE",
"111 348 OFFCURVE",
"133 358 CURVE SMOOTH",
"145 364 OFFCURVE",
"157 371 OFFCURVE",
"170 377 CURVE SMOOTH",
"179 381 OFFCURVE",
"188 378 OFFCURVE",
"197 375 CURVE SMOOTH",
"205 373 OFFCURVE",
"212 369 OFFCURVE",
"219 366 CURVE",
"219 365 OFFCURVE",
"218 365 OFFCURVE",
"217 364 CURVE",
"220 361 OFFCURVE",
"223 358 OFFCURVE",
"224 355 CURVE SMOOTH",
"226 351 OFFCURVE",
"226 344 OFFCURVE",
"224 342 CURVE SMOOTH",
"218 336 OFFCURVE",
"211 332 OFFCURVE",
"204 327 CURVE SMOOTH",
"197 323 OFFCURVE",
"190 319 OFFCURVE",
"183 314 CURVE SMOOTH",
"171 305 OFFCURVE",
"160 298 OFFCURVE",
"146 293 CURVE SMOOTH",
"135 290 OFFCURVE",
"126 284 OFFCURVE",
"116 279 CURVE SMOOTH",
"107 276 OFFCURVE",
"99 273 OFFCURVE",
"90 269 CURVE SMOOTH",
"82 265 OFFCURVE",
"74 261 OFFCURVE",
"65 257 CURVE SMOOTH",
"53 252 OFFCURVE",
"42 247 OFFCURVE",
"29 258 CURVE SMOOTH",
"15 270 OFFCURVE",
"0 283 OFFCURVE",
"3 303 CURVE SMOOTH",
"6 328 OFFCURVE",
"2 353 OFFCURVE",
"6 377 CURVE SMOOTH",
"10 399 OFFCURVE",
"8 420 OFFCURVE",
"9 442 CURVE SMOOTH",
"9 447 OFFCURVE",
"11 452 OFFCURVE",
"12 456 CURVE SMOOTH",
"12 458 OFFCURVE",
"13 459 OFFCURVE",
"13 460 CURVE SMOOTH",
"10 478 OFFCURVE",
"13 496 OFFCURVE",
"13 514 CURVE SMOOTH",
"13 534 OFFCURVE",
"15 554 OFFCURVE",
"16 574 CURVE SMOOTH",
"17 585 OFFCURVE",
"21 590 OFFCURVE",
"32 592 CURVE SMOOTH",
"44 594 OFFCURVE",
"55 590 OFFCURVE",
"64 584 CURVE SMOOTH",
"68 582 OFFCURVE",
"71 578 OFFCURVE",
"74 576 CURVE SMOOTH",
"76 575 OFFCURVE",
"79 575 OFFCURVE",
"81 576 CURVE SMOOTH",
"102 588 OFFCURVE",
"123 600 OFFCURVE",
"147 606 CURVE SMOOTH",
"158 609 OFFCURVE",
"169 613 OFFCURVE",
"179 613 CURVE SMOOTH",
"189 612 OFFCURVE",
"200 613 OFFCURVE",
"206 600 CURVE SMOOTH",
"209 594 OFFCURVE",
"218 591 OFFCURVE",
"224 586 CURVE SMOOTH",
"229 580 OFFCURVE",
"231 574 OFFCURVE",
"221 570 CURVE SMOOTH",
"221 569 OFFCURVE",
"220 569 OFFCURVE",
"220 569 CURVE SMOOTH",
"220 557 OFFCURVE",
"212 555 OFFCURVE",
"203 554 CURVE SMOOTH",
"199 553 OFFCURVE",
"196 550 OFFCURVE",
"192 555 CURVE SMOOTH",
"191 556 OFFCURVE",
"186 557 OFFCURVE",
"183 556 CURVE SMOOTH",
"173 552 OFFCURVE",
"162 548 OFFCURVE",
"152 544 CURVE SMOOTH",
"141 538 OFFCURVE",
"129 532 OFFCURVE",
"118 525 CURVE SMOOTH",
"113 522 OFFCURVE",
"108 519 OFFCURVE",
"104 514 CURVE SMOOTH",
"96 506 OFFCURVE",
"87 502 OFFCURVE",
"74 505 CURVE"
);
}
);
width = 300;
}
);
unicode = 0065;
},
{
glyphname = f;
lastChange = "2020-11-29 17:07:32 +0000";
layers = (
{
layerId = "BC2BDE5E-3D40-4D25-8676-E4E66850FFEB";
paths = (
{
closed = 1;
nodes = (
"84 673 OFFCURVE",
"93 674 OFFCURVE",
"102 677 CURVE",
"123 684 OFFCURVE",
"144 691 OFFCURVE",
"165 698 CURVE",
"180 704 OFFCURVE",
"195 711 OFFCURVE",
"210 716 CURVE",
"230 723 OFFCURVE",
"252 728 OFFCURVE",
"272 734 CURVE",
"280 736 OFFCURVE",
"287 740 OFFCURVE",
"295 743 CURVE",
"302 742 OFFCURVE",
"311 740 OFFCURVE",
"319 738 CURVE",
"324 737 OFFCURVE",
"328 733 OFFCURVE",
"331 730 CURVE",
"337 726 OFFCURVE",
"342 720 OFFCURVE",
"348 716 CURVE",
"354 712 OFFCURVE",
"356 703 OFFCURVE",
"350 697 CURVE",
"346 692 OFFCURVE",
"342 687 OFFCURVE",
"339 682 CURVE",
"335 676 OFFCURVE",
"328 677 OFFCURVE",
"322 676 CURVE",
"319 675 OFFCURVE",
"316 673 OFFCURVE",
"313 671 CURVE",
"311 671 OFFCURVE",
"308 670 OFFCURVE",
"308 670 CURVE",
"303 685 OFFCURVE",
"293 678 OFFCURVE",
"284 676 CURVE",
"270 672 OFFCURVE",
"256 667 OFFCURVE",
"242 662 CURVE",
"227 656 OFFCURVE",
"212 649 OFFCURVE",
"196 644 CURVE",
"175 638 OFFCURVE",
"155 627 OFFCURVE",
"134 619 CURVE",
"120 615 OFFCURVE",
"108 608 OFFCURVE",
"94 604 CURVE",
"90 603 OFFCURVE",
"85 604 OFFCURVE",
"81 606 CURVE",
"76 608 OFFCURVE",
"74 606 OFFCURVE",
"74 602 CURVE",
"75 583 OFFCURVE",
"76 564 OFFCURVE",
"77 545 CURVE",
"77 537 OFFCURVE",
"77 528 OFFCURVE",
"77 519 CURVE",
"77 511 OFFCURVE",
"77 503 OFFCURVE",
"76 495 CURVE",
"76 491 OFFCURVE",
"75 486 OFFCURVE",
"75 481 CURVE",
"74 476 OFFCURVE",
"73 470 OFFCURVE",
"75 465 CURVE",
"78 456 OFFCURVE",
"78 449 OFFCURVE",
"75 440 CURVE",
"73 433 OFFCURVE",
"73 425 OFFCURVE",
"74 418 CURVE",
"75 402 OFFCURVE",
"76 386 OFFCURVE",
"77 370 CURVE",
"78 362 OFFCURVE",
"77 354 OFFCURVE",
"77 345 CURVE",
"81 347 OFFCURVE",
"83 348 OFFCURVE",
"85 349 CURVE",
"109 361 OFFCURVE",
"131 374 OFFCURVE",
"156 384 CURVE",
"171 391 OFFCURVE",
"186 401 OFFCURVE",
"205 401 CURVE",
"228 402 OFFCURVE",
"246 392 OFFCURVE",
"255 369 CURVE",
"258 361 OFFCURVE",
"249 350 OFFCURVE",
"241 347 CURVE",
"225 341 OFFCURVE",
"209 337 OFFCURVE",
"193 331 CURVE",
"185 328 OFFCURVE",
"176 325 OFFCURVE",
"170 320 CURVE",
"161 312 OFFCURVE",
"150 311 OFFCURVE",
"140 306 CURVE",
"130 301 OFFCURVE",
"119 294 OFFCURVE",
"109 288 CURVE",
"105 286 OFFCURVE",
"101 283 OFFCURVE",
"97 282 CURVE",
"91 280 OFFCURVE",
"84 279 OFFCURVE",
"78 277 CURVE",
"78 269 OFFCURVE",
"79 261 OFFCURVE",
"79 254 CURVE",
"80 254 OFFCURVE",
"80 254 OFFCURVE",
"81 254 CURVE",
"79 251 OFFCURVE",
"77 249 OFFCURVE",
"77 248 CURVE",
"79 243 OFFCURVE",
"81 240 OFFCURVE",
"81 236 CURVE",
"82 226 OFFCURVE",
"81 217 OFFCURVE",
"81 208 CURVE",
"82 197 OFFCURVE",
"83 187 OFFCURVE",
"84 176 CURVE",
"85 172 OFFCURVE",
"84 167 OFFCURVE",
"84 163 CURVE",
"86 146 OFFCURVE",
"87 130 OFFCURVE",
"88 113 CURVE",
"90 94 OFFCURVE",
"89 75 OFFCURVE",
"93 57 CURVE",
"96 43 OFFCURVE",
"94 29 OFFCURVE",
"96 15 CURVE",
"98 -1 OFFCURVE",
"100 -17 OFFCURVE",
"103 -34 CURVE",
"104 -45 OFFCURVE",
"105 -56 OFFCURVE",
"107 -67 CURVE",
"107 -70 OFFCURVE",
"108 -73 OFFCURVE",
"109 -75 CURVE",
"114 -86 OFFCURVE",
"109 -98 OFFCURVE",
"97 -102 CURVE",
"92 -103 OFFCURVE",
"87 -107 OFFCURVE",
"81 -109 CURVE",
"79 -110 OFFCURVE",
"76 -110 OFFCURVE",
"74 -109 CURVE",
"67 -105 OFFCURVE",
"62 -101 OFFCURVE",
"55 -97 CURVE",
"44 -90 OFFCURVE",
"37 -74 OFFCURVE",
"40 -61 CURVE",
"41 -57 OFFCURVE",
"40 -52 OFFCURVE",
"40 -47 CURVE",
"39 -38 OFFCURVE",
"39 -29 OFFCURVE",
"37 -20 CURVE",
"33 6 OFFCURVE",
"35 32 OFFCURVE",
"34 57 CURVE",
"34 64 OFFCURVE",
"31 71 OFFCURVE",
"30 78 CURVE",
"30 88 OFFCURVE",
"31 98 OFFCURVE",
"30 107 CURVE",
"29 120 OFFCURVE",
"27 133 OFFCURVE",
"26 146 CURVE",
"26 150 OFFCURVE",
"27 154 OFFCURVE",
"27 158 CURVE",
"20 197 OFFCURVE",
"26 237 OFFCURVE",
"23 275 CURVE",
"18 334 OFFCURVE",
"20 392 OFFCURVE",
"19 450 CURVE",
"19 524 OFFCURVE",
"20 598 OFFCURVE",
"19 672 CURVE",
"19 687 OFFCURVE",
"17 701 OFFCURVE",
"16 716 CURVE",
"16 723 OFFCURVE",
"19 731 OFFCURVE",
"19 739 CURVE",
"20 763 OFFCURVE",
"20 787 OFFCURVE",
"19 811 CURVE",
"19 827 OFFCURVE",
"19 843 OFFCURVE",
"15 857 CURVE",
"13 867 OFFCURVE",
"12 874 OFFCURVE",
"19 880 CURVE",
"20 881 OFFCURVE",
"21 883 OFFCURVE",
"22 883 CURVE",
"27 885 OFFCURVE",
"45 879 OFFCURVE",
"49 876 CURVE",
"55 871 OFFCURVE",
"62 867 OFFCURVE",
"68 862 CURVE",
"80 854 OFFCURVE",
"83 839 OFFCURVE",
"79 826 CURVE",
"77 820 OFFCURVE",
"78 814 OFFCURVE",
"78 808 CURVE",
"77 792 OFFCURVE",
"78 777 OFFCURVE",
"77 761 CURVE",
"77 759 OFFCURVE",
"78 756 OFFCURVE",
"77 755 CURVE",
"69 747 OFFCURVE",
"79 739 OFFCURVE",
"76 730 CURVE",
"75 727 OFFCURVE",
"75 722 OFFCURVE",
"75 718 CURVE",
"75 709 OFFCURVE",
"74 701 OFFCURVE",
"74 693 CURVE",
"74 686 OFFCURVE",
"74 680 OFFCURVE",
"74 671 CURVE"
);
},
{
closed = 1;
nodes = (
"57 574 OFFCURVE",
"58 573 OFFCURVE",
"59 572 CURVE",
"61 576 OFFCURVE",
"62 580 OFFCURVE",
"64 584 CURVE",
"63 585 OFFCURVE",
"62 585 OFFCURVE",
"60 586 CURVE",
"54 585 OFFCURVE",
"56 579 OFFCURVE",
"56 574 CURVE"
);
}
);
width = 300;
}
);
unicode = 0066;
},
{
glyphname = g;
lastChange = "2020-11-29 17:07:36 +0000";
layers = (
{
layerId = "BC2BDE5E-3D40-4D25-8676-E4E66850FFEB";
paths = (
{
closed = 1;
nodes = (
"221 715 OFFCURVE",
"217 711 OFFCURVE",
"216 706 CURVE SMOOTH",
"215 701 OFFCURVE",
"215 695 OFFCURVE",
"208 695 CURVE SMOOTH",
"200 694 OFFCURVE",
"198 701 OFFCURVE",
"194 705 CURVE SMOOTH",
"184 715 OFFCURVE",
"178 729 OFFCURVE",
"163 734 CURVE SMOOTH",
"162 734 OFFCURVE",
"161 734 OFFCURVE",
"159 734 CURVE SMOOTH",
"147 732 OFFCURVE",
"133 731 OFFCURVE",
"123 722 CURVE SMOOTH",
"108 709 OFFCURVE",
"91 696 OFFCURVE",
"84 675 CURVE SMOOTH",
"80 664 OFFCURVE",
"77 654 OFFCURVE",
"74 643 CURVE SMOOTH",
"71 630 OFFCURVE",
"67 617 OFFCURVE",
"64 603 CURVE SMOOTH",
"64 603 OFFCURVE",
"64 602 OFFCURVE",
"64 602 CURVE SMOOTH",
"62 591 OFFCURVE",
"60 580 OFFCURVE",
"60 569 CURVE SMOOTH",
"58 542 OFFCURVE",
"57 515 OFFCURVE",
"56 488 CURVE SMOOTH",
"56 475 OFFCURVE",
"56 462 OFFCURVE",
"56 449 CURVE SMOOTH",
"57 422 OFFCURVE",
"57 395 OFFCURVE",
"60 368 CURVE SMOOTH",
"63 346 OFFCURVE",
"66 323 OFFCURVE",
"68 301 CURVE SMOOTH",
"68 285 OFFCURVE",
"74 270 OFFCURVE",
"76 255 CURVE SMOOTH",
"78 241 OFFCURVE",
"79 228 OFFCURVE",
"82 214 CURVE SMOOTH",
"84 203 OFFCURVE",
"84 190 OFFCURVE",
"90 179 CURVE SMOOTH",
"94 172 OFFCURVE",
"92 163 OFFCURVE",
"93 154 CURVE SMOOTH",
"94 146 OFFCURVE",
"95 137 OFFCURVE",
"97 129 CURVE SMOOTH",
"100 120 OFFCURVE",
"102 111 OFFCURVE",
"110 104 CURVE SMOOTH",
"115 100 OFFCURVE",
"118 94 OFFCURVE",
"126 99 CURVE SMOOTH",
"127 100 OFFCURVE",
"130 99 OFFCURVE",
"133 99 CURVE SMOOTH",
"145 100 OFFCURVE",
"146 112 OFFCURVE",
"153 119 CURVE SMOOTH",
"159 126 OFFCURVE",
"164 134 OFFCURVE",
"166 143 CURVE SMOOTH",
"168 149 OFFCURVE",
"170 156 OFFCURVE",
"172 162 CURVE SMOOTH",
"179 184 OFFCURVE",
"177 208 OFFCURVE",
"181 231 CURVE SMOOTH",
"183 246 OFFCURVE",
"177 259 OFFCURVE",
"180 274 CURVE SMOOTH",
"181 278 OFFCURVE",
"183 283 OFFCURVE",
"183 287 CURVE SMOOTH",
"183 294 OFFCURVE",
"182 302 OFFCURVE",
"182 309 CURVE SMOOTH",
"182 322 OFFCURVE",
"184 335 OFFCURVE",
"182 347 CURVE SMOOTH",
"179 364 OFFCURVE",
"186 380 OFFCURVE",
"182 396 CURVE SMOOTH",
"179 405 OFFCURVE",
"180 415 OFFCURVE",
"180 425 CURVE SMOOTH",
"180 433 OFFCURVE",
"182 442 OFFCURVE",
"183 451 CURVE SMOOTH",
"183 462 OFFCURVE",
"183 472 OFFCURVE",
"183 484 CURVE",
"180 484 OFFCURVE",
"178 483 OFFCURVE",
"176 483 CURVE SMOOTH",
"168 480 OFFCURVE",
"159 477 OFFCURVE",
"151 474 CURVE SMOOTH",
"148 473 OFFCURVE",
"145 472 OFFCURVE",
"143 471 CURVE SMOOTH",
"132 466 OFFCURVE",
"119 466 OFFCURVE",
"108 459 CURVE SMOOTH",
"107 458 OFFCURVE",
"106 458 OFFCURVE",
"105 459 CURVE SMOOTH",
"92 469 OFFCURVE",
"77 476 OFFCURVE",
"71 492 CURVE SMOOTH",
"69 499 OFFCURVE",
"70 514 OFFCURVE",
"75 516 CURVE SMOOTH",
"80 518 OFFCURVE",
"86 521 OFFCURVE",
"92 520 CURVE SMOOTH",
"115 518 OFFCURVE",
"134 528 OFFCURVE",
"153 540 CURVE SMOOTH",
"163 545 OFFCURVE",
"172 550 OFFCURVE",
"178 560 CURVE SMOOTH",
"179 562 OFFCURVE",
"185 561 OFFCURVE",
"188 562 CURVE SMOOTH",
"200 565 OFFCURVE",
"210 563 OFFCURVE",
"221 558 CURVE SMOOTH",
"224 556 OFFCURVE",
"229 558 OFFCURVE",
"232 556 CURVE SMOOTH",
"236 555 OFFCURVE",
"238 551 OFFCURVE",
"241 548 CURVE SMOOTH",
"249 540 OFFCURVE",
"249 531 OFFCURVE",
"245 521 CURVE SMOOTH",
"243 516 OFFCURVE",
"242 510 OFFCURVE",
"241 505 CURVE SMOOTH",
"241 497 OFFCURVE",
"241 490 OFFCURVE",
"241 482 CURVE SMOOTH",
"241 477 OFFCURVE",
"243 471 OFFCURVE",
"232 473 CURVE",
"247 448 OFFCURVE",
"239 423 OFFCURVE",
"241 397 CURVE",
"238 398 OFFCURVE",
"237 399 OFFCURVE",
"234 399 CURVE",
"235 397 OFFCURVE",
"235 396 OFFCURVE",
"235 394 CURVE SMOOTH",
"238 389 OFFCURVE",
"244 383 OFFCURVE",
"237 376 CURVE SMOOTH",
"236 375 OFFCURVE",
"238 372 OFFCURVE",
"237 369 CURVE SMOOTH",
"234 354 OFFCURVE",
"236 340 OFFCURVE",
"240 325 CURVE SMOOTH",
"242 318 OFFCURVE",
"239 309 OFFCURVE",
"238 302 CURVE SMOOTH",
"238 299 OFFCURVE",
"238 296 OFFCURVE",
"238 293 CURVE SMOOTH",
"237 288 OFFCURVE",
"237 284 OFFCURVE",
"236 278 CURVE",
"241 277 OFFCURVE",
"244 273 OFFCURVE",
"239 266 CURVE SMOOTH",
"238 266 OFFCURVE",
"240 264 OFFCURVE",
"240 262 CURVE SMOOTH",
"242 258 OFFCURVE",
"244 254 OFFCURVE",
"236 252 CURVE SMOOTH",
"232 251 OFFCURVE",
"233 245 OFFCURVE",
"237 242 CURVE SMOOTH",
"241 240 OFFCURVE",
"245 226 OFFCURVE",
"244 223 CURVE SMOOTH",
"243 220 OFFCURVE",
"242 218 OFFCURVE",
"241 216 CURVE SMOOTH",
"241 214 OFFCURVE",
"241 212 OFFCURVE",
"241 210 CURVE",
"234 208 OFFCURVE",
"232 207 OFFCURVE",
"238 200 CURVE SMOOTH",
"242 195 OFFCURVE",
"238 184 OFFCURVE",
"237 175 CURVE SMOOTH",
"237 173 OFFCURVE",
"237 170 OFFCURVE",
"237 167 CURVE SMOOTH",
"236 158 OFFCURVE",
"235 149 OFFCURVE",
"232 140 CURVE SMOOTH",
"230 130 OFFCURVE",
"228 120 OFFCURVE",
"223 111 CURVE SMOOTH",
"213 95 OFFCURVE",
"214 75 OFFCURVE",
"199 62 CURVE SMOOTH",
"193 57 OFFCURVE",
"184 54 OFFCURVE",
"176 50 CURVE SMOOTH",
"165 44 OFFCURVE",
"154 47 OFFCURVE",
"143 45 CURVE SMOOTH",
"133 43 OFFCURVE",
"122 44 OFFCURVE",
"112 46 CURVE SMOOTH",
"104 48 OFFCURVE",
"96 51 OFFCURVE",
"88 55 CURVE SMOOTH",
"76 61 OFFCURVE",
"65 68 OFFCURVE",
"57 79 CURVE SMOOTH",
"47 92 OFFCURVE",
"37 105 OFFCURVE",
"34 122 CURVE SMOOTH",
"32 136 OFFCURVE",
"29 151 OFFCURVE",
"26 166 CURVE SMOOTH",
"24 182 OFFCURVE",
"22 199 OFFCURVE",
"20 215 CURVE SMOOTH",
"17 232 OFFCURVE",
"15 248 OFFCURVE",
"12 265 CURVE SMOOTH",
"10 281 OFFCURVE",
"9 297 OFFCURVE",
"5 312 CURVE SMOOTH",
"-1 334 OFFCURVE",
"-2 357 OFFCURVE",
"-2 379 CURVE SMOOTH",
"-2 394 OFFCURVE",
"-2 409 OFFCURVE",
"-6 423 CURVE SMOOTH",
"-12 443 OFFCURVE",
"-8 462 OFFCURVE",
"-8 482 CURVE SMOOTH",
"-9 501 OFFCURVE",
"-10 520 OFFCURVE",
"-9 539 CURVE SMOOTH",
"-9 554 OFFCURVE",
"-8 570 OFFCURVE",
"-5 586 CURVE SMOOTH",
"-3 600 OFFCURVE",
"2 614 OFFCURVE",
"5 628 CURVE SMOOTH",
"7 636 OFFCURVE",
"7 644 OFFCURVE",
"9 651 CURVE SMOOTH",
"13 668 OFFCURVE",
"16 685 OFFCURVE",
"21 702 CURVE SMOOTH",
"23 709 OFFCURVE",
"28 716 OFFCURVE",
"33 724 CURVE SMOOTH",
"37 731 OFFCURVE",
"41 740 OFFCURVE",
"46 746 CURVE SMOOTH",
"51 753 OFFCURVE",
"57 758 OFFCURVE",
"64 762 CURVE SMOOTH",
"77 770 OFFCURVE",
"91 777 OFFCURVE",
"105 784 CURVE SMOOTH",
"109 786 OFFCURVE",
"115 785 OFFCURVE",
"119 786 CURVE SMOOTH",
"126 787 OFFCURVE",
"133 789 OFFCURVE",
"139 788 CURVE SMOOTH",
"150 787 OFFCURVE",
"160 784 OFFCURVE",
"171 782 CURVE SMOOTH",
"183 778 OFFCURVE",
"193 769 OFFCURVE",
"204 762 CURVE SMOOTH",
"211 756 OFFCURVE",
"215 744 OFFCURVE",
"219 735 CURVE SMOOTH",
"222 730 OFFCURVE",
"223 724 OFFCURVE",
"224 720 CURVE"
);
}
);
width = 300;
}
);
unicode = 0067;
},
{
glyphname = h;
lastChange = "2020-11-29 17:02:43 +0000";
layers = (
{
layerId = "BC2BDE5E-3D40-4D25-8676-E4E66850FFEB";
paths = (
{
closed = 1;
nodes = (
"67 285 OFFCURVE",
"60 282 OFFCURVE",
"52 280 CURVE SMOOTH",
"48 280 OFFCURVE",
"43 282 OFFCURVE",
"39 283 CURVE SMOOTH",
"28 287 OFFCURVE",
"19 295 OFFCURVE",
"12 304 CURVE SMOOTH",
"4 315 OFFCURVE",
"6 326 OFFCURVE",
"6 337 CURVE SMOOTH",
"7 355 OFFCURVE",
"9 372 OFFCURVE",
"9 390 CURVE SMOOTH",
"10 412 OFFCURVE",
"10 435 OFFCURVE",
"9 457 CURVE SMOOTH",
"9 482 OFFCURVE",
"9 507 OFFCURVE",
"5 531 CURVE SMOOTH",
"2 549 OFFCURVE",
"4 566 OFFCURVE",
"2 584 CURVE SMOOTH",
"1 593 OFFCURVE",
"-1 603 OFFCURVE",
"-1 613 CURVE SMOOTH",
"-2 622 OFFCURVE",
"4 626 OFFCURVE",
"13 625 CURVE SMOOTH",
"26 624 OFFCURVE",
"39 623 OFFCURVE",
"52 620 CURVE SMOOTH",
"56 620 OFFCURVE",
"60 615 OFFCURVE",
"63 612 CURVE SMOOTH",
"67 607 OFFCURVE",
"70 602 OFFCURVE",
"74 597 CURVE",
"73 596 OFFCURVE",
"72 594 OFFCURVE",
"71 592 CURVE SMOOTH",
"70 570 OFFCURVE",
"68 548 OFFCURVE",
"68 525 CURVE SMOOTH",
"68 507 OFFCURVE",
"71 488 OFFCURVE",
"73 467 CURVE",
"88 470 OFFCURVE",
"104 473 OFFCURVE",
"120 475 CURVE SMOOTH",
"130 476 OFFCURVE",
"139 477 OFFCURVE",
"149 477 CURVE SMOOTH",
"153 478 OFFCURVE",
"156 478 OFFCURVE",
"161 478 CURVE",
"161 482 OFFCURVE",
"162 488 OFFCURVE",
"161 494 CURVE SMOOTH",
"161 502 OFFCURVE",
"159 509 OFFCURVE",
"158 517 CURVE SMOOTH",
"157 526 OFFCURVE",
"155 535 OFFCURVE",
"155 544 CURVE SMOOTH",
"156 559 OFFCURVE",
"154 574 OFFCURVE",
"154 590 CURVE SMOOTH",
"154 604 OFFCURVE",
"150 619 OFFCURVE",
"148 634 CURVE SMOOTH",
"148 637 OFFCURVE",
"148 640 OFFCURVE",
"148 643 CURVE SMOOTH",
"147 660 OFFCURVE",
"145 678 OFFCURVE",
"144 695 CURVE SMOOTH",
"143 699 OFFCURVE",
"141 703 OFFCURVE",
"140 708 CURVE SMOOTH",
"138 714 OFFCURVE",
"138 721 OFFCURVE",
"137 727 CURVE SMOOTH",
"136 729 OFFCURVE",
"137 730 OFFCURVE",
"136 732 CURVE SMOOTH",
"132 738 OFFCURVE",
"128 744 OFFCURVE",
"125 751 CURVE SMOOTH",
"123 754 OFFCURVE",
"123 758 OFFCURVE",
"122 761 CURVE SMOOTH",
"121 765 OFFCURVE",
"120 768 OFFCURVE",
"120 771 CURVE",
"122 775 OFFCURVE",
"124 779 OFFCURVE",
"126 783 CURVE SMOOTH",
"130 790 OFFCURVE",
"142 794 OFFCURVE",
"151 791 CURVE SMOOTH",
"160 789 OFFCURVE",
"169 785 OFFCURVE",
"179 785 CURVE SMOOTH",
"188 786 OFFCURVE",
"201 769 OFFCURVE",
"202 759 CURVE SMOOTH",
"202 753 OFFCURVE",
"203 746 OFFCURVE",
"202 740 CURVE SMOOTH",
"198 723 OFFCURVE",
"201 707 OFFCURVE",
"203 691 CURVE SMOOTH",
"206 666 OFFCURVE",
"209 640 OFFCURVE",
"209 614 CURVE SMOOTH",
"209 598 OFFCURVE",
"212 582 OFFCURVE",
"213 566 CURVE SMOOTH",
"214 559 OFFCURVE",
"215 552 OFFCURVE",
"216 545 CURVE SMOOTH",
"216 543 OFFCURVE",
"217 541 OFFCURVE",
"216 540 CURVE SMOOTH",
"213 535 OFFCURVE",
"215 531 OFFCURVE",
"216 526 CURVE SMOOTH",
"218 503 OFFCURVE",
"217 480 OFFCURVE",
"220 458 CURVE SMOOTH",
"224 435 OFFCURVE",
"223 411 OFFCURVE",
"224 388 CURVE SMOOTH",
"225 366 OFFCURVE",
"226 343 OFFCURVE",
"228 321 CURVE SMOOTH",
"229 304 OFFCURVE",
"228 286 OFFCURVE",
"231 270 CURVE SMOOTH",
"235 252 OFFCURVE",
"234 234 OFFCURVE",
"235 216 CURVE SMOOTH",
"235 200 OFFCURVE",
"237 184 OFFCURVE",
"238 167 CURVE SMOOTH",
"239 156 OFFCURVE",
"240 146 OFFCURVE",
"242 135 CURVE SMOOTH",
"244 120 OFFCURVE",
"248 105 OFFCURVE",
"248 91 CURVE SMOOTH",
"248 75 OFFCURVE",
"258 63 OFFCURVE",
"259 48 CURVE SMOOTH",
"260 38 OFFCURVE",
"252 29 OFFCURVE",
"242 29 CURVE SMOOTH",
"237 29 OFFCURVE",
"231 33 OFFCURVE",
"230 24 CURVE SMOOTH",
"230 23 OFFCURVE",
"228 22 OFFCURVE",
"226 22 CURVE SMOOTH",
"219 23 OFFCURVE",
"212 23 OFFCURVE",
"208 31 CURVE SMOOTH",
"207 34 OFFCURVE",
"204 35 OFFCURVE",
"201 37 CURVE SMOOTH",
"192 41 OFFCURVE",
"188 49 OFFCURVE",
"187 59 CURVE SMOOTH",
"186 81 OFFCURVE",
"187 103 OFFCURVE",
"183 125 CURVE SMOOTH",
"180 142 OFFCURVE",
"182 159 OFFCURVE",
"180 176 CURVE SMOOTH",
"178 193 OFFCURVE",
"175 209 OFFCURVE",
"173 226 CURVE SMOOTH",
"172 236 OFFCURVE",
"173 246 OFFCURVE",
"173 255 CURVE SMOOTH",
"172 291 OFFCURVE",
"170 326 OFFCURVE",
"169 362 CURVE SMOOTH",
"168 376 OFFCURVE",
"167 391 OFFCURVE",
"165 405 CURVE SMOOTH",
"165 408 OFFCURVE",
"159 411 OFFCURVE",
"156 413 CURVE SMOOTH",
"154 414 OFFCURVE",
"150 413 OFFCURVE",
"148 414 CURVE SMOOTH",
"141 421 OFFCURVE",
"133 415 OFFCURVE",
"126 415 CURVE SMOOTH",
"115 415 OFFCURVE",
"103 412 OFFCURVE",
"92 410 CURVE SMOOTH",
"87 410 OFFCURVE",
"82 411 OFFCURVE",
"78 410 CURVE SMOOTH",
"75 409 OFFCURVE",
"72 405 OFFCURVE",
"72 403 CURVE SMOOTH",
"71 381 OFFCURVE",
"71 359 OFFCURVE",
"72 336 CURVE SMOOTH",
"72 328 OFFCURVE",
"76 319 OFFCURVE",
"78 311 CURVE SMOOTH",
"79 307 OFFCURVE",
"78 303 OFFCURVE",
"78 299 CURVE SMOOTH",
"77 296 OFFCURVE",
"75 292 OFFCURVE",
"73 287 CURVE"
);
}
);
width = 300;
}
);
unicode = 0068;
},
{
glyphname = i;
lastChange = "2020-11-29 17:07:46 +0000";
layers = (
{
layerId = "BC2BDE5E-3D40-4D25-8676-E4E66850FFEB";
paths = (
{
closed = 1;
nodes = (
"14 270 OFFCURVE",
"11 278 OFFCURVE",
"8 286 CURVE SMOOTH",
"7 289 OFFCURVE",
"6 293 OFFCURVE",
"5 297 CURVE SMOOTH",
"4 313 OFFCURVE",
"3 329 OFFCURVE",
"2 345 CURVE SMOOTH",
"2 351 OFFCURVE",
"2 356 OFFCURVE",
"1 361 CURVE SMOOTH",
"0 389 OFFCURVE",
"-1 417 OFFCURVE",
"-3 445 CURVE SMOOTH",
"-4 465 OFFCURVE",
"-5 486 OFFCURVE",
"-6 506 CURVE SMOOTH",
"-7 523 OFFCURVE",
"-8 539 OFFCURVE",
"-10 556 CURVE SMOOTH",
"-11 569 OFFCURVE",
"-12 581 OFFCURVE",
"-13 594 CURVE SMOOTH",
"-15 608 OFFCURVE",
"-19 623 OFFCURVE",
"-20 638 CURVE SMOOTH",
"-20 648 OFFCURVE",
"-22 657 OFFCURVE",
"-27 666 CURVE SMOOTH",
"-30 672 OFFCURVE",
"-20 688 OFFCURVE",
"-15 689 CURVE SMOOTH",
"-11 690 OFFCURVE",
"-6 686 OFFCURVE",
"-2 686 CURVE SMOOTH",
"23 690 OFFCURVE",
"34 671 OFFCURVE",
"46 655 CURVE SMOOTH",
"49 653 OFFCURVE",
"50 646 OFFCURVE",
"48 643 CURVE SMOOTH",
"45 635 OFFCURVE",
"51 627 OFFCURVE",
"48 620 CURVE SMOOTH",
"44 609 OFFCURVE",
"50 599 OFFCURVE",
"49 589 CURVE SMOOTH",
"48 578 OFFCURVE",
"48 566 OFFCURVE",
"49 555 CURVE SMOOTH",
"50 536 OFFCURVE",
"51 517 OFFCURVE",
"52 498 CURVE SMOOTH",
"53 491 OFFCURVE",
"55 484 OFFCURVE",
"56 477 CURVE SMOOTH",
"56 473 OFFCURVE",
"52 468 OFFCURVE",
"53 464 CURVE SMOOTH",
"54 452 OFFCURVE",
"59 439 OFFCURVE",
"58 427 CURVE SMOOTH",
"57 413 OFFCURVE",
"60 399 OFFCURVE",
"60 384 CURVE SMOOTH",
"60 372 OFFCURVE",
"64 359 OFFCURVE",
"66 346 CURVE SMOOTH",
"67 339 OFFCURVE",
"66 333 OFFCURVE",
"67 326 CURVE SMOOTH",
"68 313 OFFCURVE",
"69 300 OFFCURVE",
"71 287 CURVE SMOOTH",
"71 284 OFFCURVE",
"74 281 OFFCURVE",
"77 279 CURVE SMOOTH",
"81 274 OFFCURVE",
"81 271 OFFCURVE",
"77 265 CURVE SMOOTH",
"70 256 OFFCURVE",
"60 253 OFFCURVE",
"51 248 CURVE SMOOTH",
"45 244 OFFCURVE",
"33 250 OFFCURVE",
"28 255 CURVE SMOOTH",
"25 258 OFFCURVE",
"21 261 OFFCURVE",
"18 263 CURVE",
"18 263 OFFCURVE",
"17 262 OFFCURVE",
"16 262 CURVE"
);
}
);
width = 150;
}
);
unicode = 0069;
},
{
glyphname = j;
lastChange = "2020-11-29 17:07:54 +0000";
layers = (
{
layerId = "BC2BDE5E-3D40-4D25-8676-E4E66850FFEB";
paths = (
{
closed = 1;
nodes = (
"106 550 OFFCURVE",
"99 550 OFFCURVE",
"92 549 CURVE SMOOTH",
"89 548 OFFCURVE",
"86 547 OFFCURVE",
"83 546 CURVE SMOOTH",
"66 537 OFFCURVE",
"47 539 OFFCURVE",
"28 539 CURVE SMOOTH",
"25 540 OFFCURVE",
"21 542 OFFCURVE",
"21 543 CURVE SMOOTH",
"18 556 OFFCURVE",
"3 561 OFFCURVE",
"1 574 CURVE SMOOTH",
"0 579 OFFCURVE",
"0 583 OFFCURVE",
"0 587 CURVE SMOOTH",
"1 590 OFFCURVE",
"1 593 OFFCURVE",
"2 596 CURVE",
"7 598 OFFCURVE",
"12 601 OFFCURVE",
"18 603 CURVE SMOOTH",
"20 604 OFFCURVE",
"23 604 OFFCURVE",
"24 603 CURVE SMOOTH",
"33 599 OFFCURVE",
"41 600 OFFCURVE",
"50 603 CURVE SMOOTH",
"54 604 OFFCURVE",
"59 605 OFFCURVE",
"64 604 CURVE SMOOTH",
"79 603 OFFCURVE",
"91 612 OFFCURVE",
"105 616 CURVE SMOOTH",
"108 617 OFFCURVE",
"111 622 OFFCURVE",
"114 623 CURVE SMOOTH",
"119 624 OFFCURVE",
"123 627 OFFCURVE",
"129 623 CURVE SMOOTH",
"130 622 OFFCURVE",
"134 622 OFFCURVE",
"136 623 CURVE SMOOTH",
"146 631 OFFCURVE",
"152 619 OFFCURVE",
"161 617 CURVE SMOOTH",
"161 617 OFFCURVE",
"161 614 OFFCURVE",
"162 613 CURVE",
"162 613 OFFCURVE",
"163 614 OFFCURVE",
"164 615 CURVE",
"169 611 OFFCURVE",
"174 607 OFFCURVE",
"178 603 CURVE",
"180 600 OFFCURVE",
"182 597 OFFCURVE",
"184 594 CURVE",
"184 594 OFFCURVE",
"183 594 OFFCURVE",
"183 594 CURVE",
"184 588 OFFCURVE",
"186 583 OFFCURVE",
"186 577 CURVE SMOOTH",
"186 575 OFFCURVE",
"184 573 OFFCURVE",
"184 571 CURVE SMOOTH",
"183 555 OFFCURVE",
"181 539 OFFCURVE",
"184 523 CURVE SMOOTH",
"186 507 OFFCURVE",
"193 491 OFFCURVE",
"197 475 CURVE SMOOTH",
"198 468 OFFCURVE",
"197 460 OFFCURVE",
"197 453 CURVE SMOOTH",
"198 436 OFFCURVE",
"199 418 OFFCURVE",
"201 401 CURVE SMOOTH",
"202 390 OFFCURVE",
"199 381 OFFCURVE",
"195 371 CURVE SMOOTH",
"192 364 OFFCURVE",
"192 355 OFFCURVE",
"190 347 CURVE SMOOTH",
"188 341 OFFCURVE",
"185 336 OFFCURVE",
"182 331 CURVE SMOOTH",
"179 324 OFFCURVE",
"175 318 OFFCURVE",
"172 312 CURVE SMOOTH",
"168 301 OFFCURVE",
"157 297 OFFCURVE",
"148 292 CURVE SMOOTH",
"142 289 OFFCURVE",
"135 287 OFFCURVE",
"129 284 CURVE SMOOTH",
"118 280 OFFCURVE",
"108 275 OFFCURVE",
"97 271 CURVE SMOOTH",
"89 268 OFFCURVE",
"71 275 OFFCURVE",
"67 283 CURVE SMOOTH",
"66 284 OFFCURVE",
"65 284 OFFCURVE",
"63 285 CURVE SMOOTH",
"58 289 OFFCURVE",
"52 292 OFFCURVE",
"48 296 CURVE SMOOTH",
"42 301 OFFCURVE",
"38 305 OFFCURVE",
"31 309 CURVE SMOOTH",
"25 313 OFFCURVE",
"21 322 OFFCURVE",
"17 329 CURVE SMOOTH",
"10 341 OFFCURVE",
"3 354 OFFCURVE",
"5 369 CURVE SMOOTH",
"7 376 OFFCURVE",
"9 384 OFFCURVE",
"11 391 CURVE SMOOTH",
"14 400 OFFCURVE",
"16 409 OFFCURVE",
"20 417 CURVE SMOOTH",
"22 424 OFFCURVE",
"25 432 OFFCURVE",
"30 438 CURVE SMOOTH",
"32 441 OFFCURVE",
"39 440 OFFCURVE",
"44 440 CURVE SMOOTH",
"47 440 OFFCURVE",
"51 437 OFFCURVE",
"53 438 CURVE SMOOTH",
"58 440 OFFCURVE",
"61 438 OFFCURVE",
"64 435 CURVE SMOOTH",
"67 432 OFFCURVE",
"70 429 OFFCURVE",
"74 427 CURVE SMOOTH",
"81 423 OFFCURVE",
"83 416 OFFCURVE",
"82 406 CURVE SMOOTH",
"81 397 OFFCURVE",
"77 391 OFFCURVE",
"73 383 CURVE SMOOTH",
"69 375 OFFCURVE",
"67 365 OFFCURVE",
"67 356 CURVE SMOOTH",
"68 348 OFFCURVE",
"73 340 OFFCURVE",
"81 335 CURVE SMOOTH",
"86 332 OFFCURVE",
"89 332 OFFCURVE",
"93 335 CURVE SMOOTH",
"102 342 OFFCURVE",
"111 348 OFFCURVE",
"115 358 CURVE SMOOTH",
"117 362 OFFCURVE",
"120 367 OFFCURVE",
"121 371 CURVE SMOOTH",
"124 391 OFFCURVE",
"127 412 OFFCURVE",
"128 432 CURVE SMOOTH",
"129 441 OFFCURVE",
"127 451 OFFCURVE",
"128 460 CURVE SMOOTH",
"128 469 OFFCURVE",
"123 477 OFFCURVE",
"122 486 CURVE SMOOTH",
"121 498 OFFCURVE",
"122 510 OFFCURVE",
"121 521 CURVE SMOOTH",
"120 530 OFFCURVE",
"119 539 OFFCURVE",
"117 548 CURVE SMOOTH",
"117 550 OFFCURVE",
"114 552 OFFCURVE",
"113 553 CURVE",
"113 552 OFFCURVE",
"113 552 OFFCURVE",
"113 551 CURVE"
);
}
);
width = 250;
}
);
unicode = 006A;
},
{
glyphname = k;
lastChange = "2020-11-29 17:08:27 +0000";
layers = (
{
layerId = "BC2BDE5E-3D40-4D25-8676-E4E66850FFEB";
paths = (
{
closed = 1;
nodes = (
"82 532 OFFCURVE",
"96 529 OFFCURVE",
"104 541 CURVE",
"110 551 OFFCURVE",
"118 561 OFFCURVE",
"124 570 CURVE",
"129 576 OFFCURVE",
"132 583 OFFCURVE",
"137 589 CURVE",
"145 599 OFFCURVE",
"153 610 OFFCURVE",
"161 620 CURVE",
"167 629 OFFCURVE",
"173 638 OFFCURVE",
"179 647 CURVE",
"185 655 OFFCURVE",
"191 662 OFFCURVE",
"197 670 CURVE",
"200 675 OFFCURVE",
"204 680 OFFCURVE",
"208 685 CURVE",
"212 692 OFFCURVE",
"216 694 OFFCURVE",
"224 692 CURVE",
"234 691 OFFCURVE",
"242 688 OFFCURVE",
"249 681 CURVE",
"251 678 OFFCURVE",
"258 679 OFFCURVE",
"259 676 CURVE",
"262 667 OFFCURVE",
"271 661 OFFCURVE",
"270 650 CURVE",
"269 642 OFFCURVE",
"266 638 OFFCURVE",
"260 634 CURVE",
"252 630 OFFCURVE",
"247 623 OFFCURVE",
"241 616 CURVE",
"236 610 OFFCURVE",
"231 604 OFFCURVE",
"226 597 CURVE",
"218 586 OFFCURVE",
"209 574 OFFCURVE",
"201 562 CURVE",
"197 557 OFFCURVE",
"193 552 OFFCURVE",
"189 546 CURVE",
"181 533 OFFCURVE",
"174 519 OFFCURVE",
"164 507 CURVE",
"156 499 OFFCURVE",
"154 489 OFFCURVE",
"152 480 CURVE",
"151 475 OFFCURVE",
"154 468 OFFCURVE",
"158 464 CURVE",
"169 452 OFFCURVE",
"175 436 OFFCURVE",
"183 422 CURVE",
"191 407 OFFCURVE",
"200 391 OFFCURVE",
"209 375 CURVE",
"214 364 OFFCURVE",
"224 355 OFFCURVE",
"229 344 CURVE",
"240 318 OFFCURVE",
"257 297 OFFCURVE",
"272 273 CURVE",
"280 259 OFFCURVE",
"287 245 OFFCURVE",
"295 232 CURVE",
"307 213 OFFCURVE",
"318 194 OFFCURVE",
"330 175 CURVE",
"339 159 OFFCURVE",
"348 143 OFFCURVE",
"357 127 CURVE",
"363 118 OFFCURVE",
"369 109 OFFCURVE",
"375 100 CURVE",
"380 93 OFFCURVE",
"384 86 OFFCURVE",
"390 80 CURVE",
"397 72 OFFCURVE",
"405 66 OFFCURVE",
"413 59 CURVE",
"422 52 OFFCURVE",
"425 33 OFFCURVE",
"419 23 CURVE",
"418 20 OFFCURVE",
"416 17 OFFCURVE",
"414 14 CURVE",
"413 12 OFFCURVE",
"410 9 OFFCURVE",
"408 9 CURVE",
"391 8 OFFCURVE",
"373 7 OFFCURVE",
"361 21 CURVE",
"351 33 OFFCURVE",
"343 46 OFFCURVE",
"335 59 CURVE",
"330 67 OFFCURVE",
"326 77 OFFCURVE",
"319 84 CURVE",
"307 97 OFFCURVE",
"300 113 OFFCURVE",
"291 128 CURVE",
"283 142 OFFCURVE",
"275 157 OFFCURVE",
"267 171 CURVE",
"253 194 OFFCURVE",
"240 217 OFFCURVE",
"226 240 CURVE",
"215 258 OFFCURVE",
"203 274 OFFCURVE",
"192 292 CURVE",
"186 301 OFFCURVE",
"181 312 OFFCURVE",
"176 322 CURVE",
"168 336 OFFCURVE",
"159 351 OFFCURVE",
"150 365 CURVE",
"143 378 OFFCURVE",
"136 390 OFFCURVE",
"128 402 CURVE",
"123 408 OFFCURVE",
"117 413 OFFCURVE",
"115 422 CURVE",
"115 425 OFFCURVE",
"104 426 OFFCURVE",
"99 424 CURVE",
"95 422 OFFCURVE",
"91 419 OFFCURVE",
"87 420 CURVE",
"83 420 OFFCURVE",
"79 423 OFFCURVE",
"74 426 CURVE",
"74 421 OFFCURVE",
"74 417 OFFCURVE",
"74 414 CURVE",
"74 387 OFFCURVE",
"73 360 OFFCURVE",
"75 333 CURVE",
"75 325 OFFCURVE",
"74 318 OFFCURVE",
"74 310 CURVE",
"75 302 OFFCURVE",
"77 295 OFFCURVE",
"77 287 CURVE",
"78 277 OFFCURVE",
"79 268 OFFCURVE",
"77 258 CURVE",
"75 245 OFFCURVE",
"78 231 OFFCURVE",
"78 218 CURVE",
"78 192 OFFCURVE",
"78 166 OFFCURVE",
"82 141 CURVE",
"85 122 OFFCURVE",
"83 103 OFFCURVE",
"85 84 CURVE",
"86 69 OFFCURVE",
"87 54 OFFCURVE",
"89 39 CURVE",
"91 17 OFFCURVE",
"95 -4 OFFCURVE",
"98 -26 CURVE",
"99 -29 OFFCURVE",
"99 -32 OFFCURVE",
"99 -36 CURVE",
"102 -50 OFFCURVE",
"104 -64 OFFCURVE",
"106 -79 CURVE",
"107 -87 OFFCURVE",
"109 -95 OFFCURVE",
"110 -103 CURVE",
"111 -114 OFFCURVE",
"112 -124 OFFCURVE",
"114 -135 CURVE",
"117 -152 OFFCURVE",
"120 -169 OFFCURVE",
"126 -185 CURVE",
"130 -195 OFFCURVE",
"136 -204 OFFCURVE",
"136 -216 CURVE",
"136 -224 OFFCURVE",
"132 -227 OFFCURVE",
"124 -227 CURVE",
"119 -228 OFFCURVE",
"113 -228 OFFCURVE",
"109 -231 CURVE",
"98 -238 OFFCURVE",
"90 -229 OFFCURVE",
"82 -226 CURVE",
"68 -220 OFFCURVE",
"63 -207 OFFCURVE",
"63 -193 CURVE",
"63 -175 OFFCURVE",
"61 -158 OFFCURVE",
"56 -141 CURVE",
"56 -140 OFFCURVE",
"56 -138 OFFCURVE",
"56 -137 CURVE",
"53 -124 OFFCURVE",
"51 -111 OFFCURVE",
"49 -98 CURVE",
"47 -90 OFFCURVE",
"46 -81 OFFCURVE",
"45 -73 CURVE",
"43 -57 OFFCURVE",
"40 -41 OFFCURVE",
"38 -25 CURVE",
"38 -24 OFFCURVE",
"38 -22 OFFCURVE",
"38 -21 CURVE",
"36 -6 OFFCURVE",
"37 9 OFFCURVE",
"33 22 CURVE",
"29 36 OFFCURVE",
"31 49 OFFCURVE",
"30 62 CURVE",
"29 80 OFFCURVE",
"28 97 OFFCURVE",
"27 115 CURVE",
"26 131 OFFCURVE",
"24 148 OFFCURVE",
"23 164 CURVE",
"22 193 OFFCURVE",
"21 223 OFFCURVE",
"19 252 CURVE",
"19 259 OFFCURVE",
"16 266 OFFCURVE",
"16 273 CURVE",
"17 300 OFFCURVE",
"15 327 OFFCURVE",
"16 354 CURVE",
"16 364 OFFCURVE",
"13 374 OFFCURVE",
"13 384 CURVE",
"13 391 OFFCURVE",
"16 399 OFFCURVE",
"16 406 CURVE",
"16 423 OFFCURVE",
"16 439 OFFCURVE",
"14 456 CURVE",
"13 464 OFFCURVE",
"13 471 OFFCURVE",
"15 479 CURVE",
"17 483 OFFCURVE",
"13 490 OFFCURVE",
"12 495 CURVE",
"12 509 OFFCURVE",
"13 522 OFFCURVE",
"12 536 CURVE",
"12 546 OFFCURVE",
"13 558 OFFCURVE",
"11 567 CURVE",
"6 588 OFFCURVE",
"10 609 OFFCURVE",
"9 630 CURVE",
"7 656 OFFCURVE",
"5 681 OFFCURVE",
"5 707 CURVE",
"5 726 OFFCURVE",
"3 745 OFFCURVE",
"1 764 CURVE",
"0 781 OFFCURVE",
"-1 799 OFFCURVE",
"-2 816 CURVE",
"-3 829 OFFCURVE",
"-4 843 OFFCURVE",
"-6 856 CURVE",
"-8 873 OFFCURVE",
"-10 891 OFFCURVE",
"-13 908 CURVE",
"-15 917 OFFCURVE",
"-19 925 OFFCURVE",
"-20 934 CURVE",
"-21 942 OFFCURVE",
"-16 947 OFFCURVE",
"-8 948 CURVE",
"-5 948 OFFCURVE",
"-3 950 OFFCURVE",
"-1 950 CURVE",
"1 951 OFFCURVE",
"4 952 OFFCURVE",
"4 951 CURVE",
"9 940 OFFCURVE",
"21 948 OFFCURVE",
"28 941 CURVE",
"32 937 OFFCURVE",
"37 933 OFFCURVE",
"41 929 CURVE",
"44 926 OFFCURVE",
"47 924 OFFCURVE",
"50 923 CURVE",
"56 923 OFFCURVE",
"56 919 OFFCURVE",
"56 914 CURVE",
"56 889 OFFCURVE",
"55 863 OFFCURVE",
"56 837 CURVE",
"56 817 OFFCURVE",
"58 798 OFFCURVE",
"60 778 CURVE",
"60 769 OFFCURVE",
"62 759 OFFCURVE",
"63 750 CURVE",
"64 744 OFFCURVE",
"62 738 OFFCURVE",
"62 731 CURVE",
"65 702 OFFCURVE",
"66 672 OFFCURVE",
"67 643 CURVE",
"67 635 OFFCURVE",
"66 627 OFFCURVE",
"67 620 CURVE",
"67 614 OFFCURVE",
"69 609 OFFCURVE",
"69 604 CURVE",
"69 600 OFFCURVE",
"68 596 OFFCURVE",
"67 592 CURVE",
"67 591 OFFCURVE",
"67 590 OFFCURVE",
"67 589 CURVE",
"74 570 OFFCURVE",
"69 550 OFFCURVE",
"70 530 CURVE",
"70 529 OFFCURVE",
"71 528 OFFCURVE",
"71 525 CURVE"
);
},
{
closed = 1;
nodes = (
"38 713 OFFCURVE",
"39 713 OFFCURVE",
"40 714 CURVE",
"42 724 OFFCURVE",
"41 726 OFFCURVE",
"34 726 CURVE",
"35 721 OFFCURVE",
"36 717 OFFCURVE",
"37 713 CURVE"
);
}
);
width = 300;
}
);
unicode = 006B;
},
{
glyphname = l;
lastChange = "2020-11-29 17:08:35 +0000";
layers = (
{
layerId = "BC2BDE5E-3D40-4D25-8676-E4E66850FFEB";
paths = (
{
closed = 1;
nodes = (
"23 330 OFFCURVE",
"18 336 OFFCURVE",
"12 343 CURVE SMOOTH",
"7 348 OFFCURVE",
"8 355 OFFCURVE",
"9 362 CURVE SMOOTH",
"10 370 OFFCURVE",
"11 377 OFFCURVE",
"11 384 CURVE SMOOTH",
"11 389 OFFCURVE",
"9 394 OFFCURVE",
"8 399 CURVE SMOOTH",
"6 410 OFFCURVE",
"3 421 OFFCURVE",
"1 433 CURVE SMOOTH",
"0 438 OFFCURVE",
"1 444 OFFCURVE",
"1 450 CURVE SMOOTH",
"1 455 OFFCURVE",
"2 460 OFFCURVE",
"2 464 CURVE SMOOTH",
"2 469 OFFCURVE",
"1 474 OFFCURVE",
"1 479 CURVE SMOOTH",
"0 496 OFFCURVE",
"0 513 OFFCURVE",
"1 531 CURVE SMOOTH",
"1 548 OFFCURVE",
"3 566 OFFCURVE",
"4 583 CURVE SMOOTH",
"6 596 OFFCURVE",
"9 609 OFFCURVE",
"11 622 CURVE SMOOTH",
"12 626 OFFCURVE",
"8 630 OFFCURVE",
"9 634 CURVE SMOOTH",
"9 641 OFFCURVE",
"10 648 OFFCURVE",
"12 654 CURVE SMOOTH",
"13 660 OFFCURVE",
"22 664 OFFCURVE",
"29 664 CURVE SMOOTH",
"50 663 OFFCURVE",
"64 650 OFFCURVE",
"75 634 CURVE SMOOTH",
"79 628 OFFCURVE",
"77 616 OFFCURVE",
"76 607 CURVE SMOOTH",
"74 595 OFFCURVE",
"71 582 OFFCURVE",
"68 570 CURVE SMOOTH",
"67 561 OFFCURVE",
"64 552 OFFCURVE",
"63 543 CURVE SMOOTH",
"63 540 OFFCURVE",
"65 537 OFFCURVE",
"65 534 CURVE SMOOTH",
"65 508 OFFCURVE",
"64 482 OFFCURVE",
"63 456 CURVE SMOOTH",
"63 454 OFFCURVE",
"62 452 OFFCURVE",
"62 449 CURVE SMOOTH",
"64 434 OFFCURVE",
"64 418 OFFCURVE",
"66 402 CURVE SMOOTH",
"67 397 OFFCURVE",
"69 391 OFFCURVE",
"72 384 CURVE",
"79 386 OFFCURVE",
"90 385 OFFCURVE",
"97 389 CURVE SMOOTH",
"109 396 OFFCURVE",
"121 395 OFFCURVE",
"133 399 CURVE SMOOTH",
"139 401 OFFCURVE",
"144 404 OFFCURVE",
"149 407 CURVE SMOOTH",
"150 408 OFFCURVE",
"151 410 OFFCURVE",
"152 409 CURVE SMOOTH",
"173 406 OFFCURVE",
"195 406 OFFCURVE",
"208 385 CURVE SMOOTH",
"211 380 OFFCURVE",
"214 372 OFFCURVE",
"212 367 CURVE SMOOTH",
"209 358 OFFCURVE",
"205 349 OFFCURVE",
"193 348 CURVE SMOOTH",
"181 347 OFFCURVE",
"168 346 OFFCURVE",
"156 344 CURVE SMOOTH",
"147 343 OFFCURVE",
"138 340 OFFCURVE",
"130 337 CURVE SMOOTH",
"119 334 OFFCURVE",
"109 330 OFFCURVE",
"99 327 CURVE SMOOTH",
"90 324 OFFCURVE",
"81 324 OFFCURVE",
"75 314 CURVE SMOOTH",
"73 311 OFFCURVE",
"65 311 OFFCURVE",
"59 310 CURVE SMOOTH",
"50 310 OFFCURVE",
"44 316 OFFCURVE",
"37 321 CURVE SMOOTH",
"35 323 OFFCURVE",
"31 323 OFFCURVE",
"29 323 CURVE"
);
}
);
width = 255;
}
);
unicode = 006C;
},
